<?xml version="1.0" standalone="no"?>
<!DOCTYPE svg PUBLIC "-//W3C//DTD SVG 20010904//EN"
 "http://www.w3.org/TR/2001/REC-SVG-20010904/DTD/svg10.dtd">
<svg version="1.0" xmlns="http://www.w3.org/2000/svg"
 width="1250.000000pt" height="1250.000000pt" viewBox="0 0 1250.000000 1250.000000"
 preserveAspectRatio="xMidYMid meet">
<metadata>
Created by potrace 1.11, written by Peter Selinger 2001-2013
</metadata>
<g transform="translate(0.000000,1250.000000) scale(0.100000,-0.100000)"
fill="#000000" stroke="none">
<path d="M6250 11710 c0 -5 -9 -10 -20 -10 -11 0 -20 -4 -20 -8 0 -5 -17 -17
-37 -28 -56 -30 -87 -48 -93 -54 -3 -3 -25 -16 -50 -29 -25 -13 -56 -33 -69
-43 -13 -10 -27 -15 -32 -12 -5 3 -9 1 -9 -3 0 -5 -25 -20 -55 -33 -30 -13
-55 -28 -55 -32 0 -4 -9 -8 -20 -8 -11 0 -20 -4 -20 -10 0 -5 -11 -10 -25 -10
-14 0 -25 -4 -25 -10 0 -5 -11 -10 -25 -10 -14 0 -25 -4 -25 -10 0 -5 -9 -10
-20 -10 -11 0 -20 -4 -20 -10 0 -5 -9 -10 -19 -10 -11 0 -23 -4 -26 -10 -3 -5
-17 -10 -31 -10 -13 0 -24 -4 -24 -10 0 -5 -8 -10 -18 -10 -10 0 -22 -3 -25
-7 -20 -19 -356 -125 -444 -140 -18 -3 -33 -9 -33 -14 0 -5 -22 -9 -50 -9 -27
0 -50 -4 -50 -9 0 -9 -55 -18 -175 -27 -38 -3 -74 -10 -80 -15 -5 -5 -62 -9
-128 -9 -92 0 -117 -3 -111 -12 6 -10 4 -10 -7 0 -9 9 -67 12 -216 12 -129 0
-203 4 -203 10 0 6 -33 10 -80 10 -47 0 -80 4 -80 10 0 6 -22 10 -49 10 -28 0
-53 5 -56 10 -3 6 -24 10 -46 10 -21 0 -39 5 -39 10 0 6 -10 10 -22 10 -23 0
-35 3 -168 45 -84 26 -118 39 -152 56 -10 5 -22 9 -28 9 -10 0 -86 32 -122 51
-10 5 -25 9 -33 9 -8 0 -15 5 -15 10 0 6 -9 10 -20 10 -11 0 -20 5 -20 10 0 6
-9 10 -20 10 -11 0 -20 5 -20 10 0 6 -9 10 -20 10 -11 0 -20 5 -20 10 0 6 -9
10 -20 10 -11 0 -20 5 -20 10 0 6 -9 10 -20 10 -11 0 -20 3 -20 8 0 4 -13 13
-29 20 -28 12 -154 91 -177 110 -5 5 -21 15 -34 22 -14 7 -31 19 -38 27 -19
18 -30 16 -55 -10 -34 -35 -67 -76 -67 -83 0 -3 -18 -23 -40 -44 -22 -21 -40
-43 -40 -49 0 -6 -25 -36 -55 -66 -30 -31 -55 -59 -55 -63 0 -4 -23 -31 -50
-61 -28 -29 -50 -57 -50 -62 0 -5 -4 -9 -10 -9 -5 0 -10 -5 -10 -11 0 -6 -18
-28 -40 -49 -22 -21 -40 -44 -40 -50 0 -7 -12 -24 -28 -38 -15 -15 -45 -49
-67 -77 -22 -27 -57 -67 -78 -88 -20 -21 -37 -42 -37 -48 0 -6 -22 -32 -50
-59 -27 -27 -50 -54 -50 -60 0 -6 -12 -23 -28 -38 -15 -15 -38 -42 -52 -60
-14 -19 -49 -59 -77 -89 -29 -31 -53 -60 -53 -65 0 -6 -13 -23 -30 -38 -16
-15 -30 -33 -30 -38 0 -6 -4 -12 -10 -14 -5 -1 4 -19 20 -38 16 -19 30 -39 30
-43 0 -4 16 -23 35 -43 19 -19 35 -38 35 -42 0 -4 10 -19 23 -32 37 -42 117
-149 117 -158 0 -4 9 -14 20 -22 11 -8 20 -21 20 -29 0 -7 8 -21 18 -30 9 -9
23 -28 31 -43 8 -16 18 -28 23 -28 4 0 8 -5 8 -10 0 -6 8 -20 18 -31 11 -10
25 -32 33 -47 17 -33 72 -118 99 -152 11 -14 20 -31 20 -37 0 -7 5 -13 10 -13
6 0 10 -9 10 -20 0 -11 5 -20 10 -20 6 0 10 -7 10 -15 0 -8 5 -15 10 -15 6 0
10 -9 10 -20 0 -11 3 -20 8 -20 8 0 32 -49 32 -67 0 -7 4 -13 9 -13 5 0 14
-15 22 -32 7 -18 15 -35 19 -38 10 -9 80 -155 80 -168 0 -6 3 -12 8 -12 7 0
32 -63 34 -87 1 -7 5 -13 10 -13 4 0 8 -9 8 -20 0 -11 5 -20 10 -20 6 0 10
-11 10 -24 0 -14 5 -28 10 -31 6 -3 10 -17 10 -31 0 -13 5 -24 10 -24 6 0 10
-13 10 -30 0 -16 5 -30 10 -30 6 0 10 -13 10 -30 0 -16 5 -30 10 -30 6 0 10
-15 10 -34 0 -19 5 -38 10 -41 6 -3 10 -21 10 -40 0 -19 4 -37 10 -40 6 -3 10
-21 10 -40 0 -19 4 -36 9 -39 4 -3 11 -25 14 -48 3 -24 13 -91 21 -150 22
-161 29 -384 17 -543 -10 -126 -15 -171 -36 -325 -4 -25 -10 -54 -15 -65 -5
-11 -11 -38 -15 -60 -3 -22 -8 -57 -11 -78 -4 -20 -10 -40 -15 -43 -5 -3 -9
-20 -9 -39 0 -19 -4 -37 -10 -40 -5 -3 -10 -22 -10 -41 0 -19 -4 -34 -10 -34
-5 0 -10 -13 -10 -29 0 -17 -5 -33 -10 -36 -5 -3 -10 -22 -10 -41 0 -19 -4
-34 -10 -34 -5 0 -10 -13 -10 -29 0 -17 -5 -33 -10 -36 -5 -3 -10 -17 -10 -30
0 -13 -4 -27 -10 -30 -6 -3 -10 -19 -10 -36 0 -16 -4 -29 -10 -29 -5 0 -10
-13 -10 -30 0 -16 -4 -30 -10 -30 -5 0 -10 -13 -10 -29 0 -17 -4 -32 -9 -35
-5 -3 -21 -45 -37 -93 -15 -49 -32 -89 -36 -91 -4 -2 -8 -17 -8 -32 0 -16 -4
-32 -10 -35 -5 -3 -10 -17 -10 -30 0 -13 -5 -27 -10 -30 -6 -3 -10 -17 -10
-30 0 -13 -4 -27 -10 -30 -6 -3 -10 -19 -10 -36 0 -16 -4 -29 -10 -29 -5 0
-10 -13 -10 -30 0 -16 -4 -30 -10 -30 -5 0 -10 -13 -10 -30 0 -16 -4 -30 -10
-30 -5 0 -10 -13 -10 -30 0 -16 -4 -30 -10 -30 -5 0 -10 -13 -10 -30 0 -16 -4
-30 -10 -30 -5 0 -10 -7 -10 -16 0 -14 -20 -85 -51 -179 -6 -16 -21 -68 -35
-115 -13 -47 -28 -99 -34 -116 -5 -17 -10 -40 -10 -52 0 -12 -4 -22 -10 -22
-5 0 -10 -15 -10 -34 0 -19 -5 -38 -10 -41 -6 -3 -10 -24 -10 -45 0 -21 -4
-42 -10 -45 -5 -3 -10 -24 -10 -46 0 -21 -4 -39 -10 -39 -5 0 -10 -22 -10 -50
0 -27 -4 -50 -10 -50 -5 0 -10 -22 -10 -49 0 -28 -5 -53 -10 -56 -5 -3 -10
-31 -10 -61 0 -30 -4 -54 -10 -54 -6 0 -10 -30 -10 -70 0 -38 -4 -70 -9 -70
-5 0 -12 -37 -15 -82 -4 -46 -11 -132 -17 -193 -6 -60 -11 -229 -11 -375 -1
-264 7 -416 23 -426 5 -3 9 -23 9 -45 0 -21 5 -39 10 -39 6 0 10 -18 10 -40 0
-22 5 -40 10 -40 6 0 10 -18 10 -40 0 -22 5 -40 10 -40 6 0 10 -13 10 -30 0
-16 5 -30 10 -30 6 0 10 -13 10 -30 0 -16 5 -30 10 -30 6 0 10 -11 10 -25 0
-14 5 -25 10 -25 6 0 10 -13 10 -30 0 -16 5 -30 10 -30 6 0 10 -9 10 -20 0
-11 5 -20 10 -20 6 0 10 -9 10 -20 0 -11 5 -20 10 -20 6 0 10 -9 10 -20 0 -11
5 -20 10 -20 6 0 10 -7 10 -15 0 -7 14 -38 31 -67 16 -29 33 -61 36 -70 3 -10
9 -18 14 -18 5 0 9 -7 9 -15 0 -9 9 -25 20 -37 11 -12 20 -28 20 -35 0 -7 5
-13 10 -13 6 0 10 -7 10 -15 0 -8 5 -15 10 -15 6 0 10 -6 10 -13 0 -7 9 -23
20 -35 11 -12 20 -25 20 -30 0 -4 16 -25 35 -46 19 -21 35 -42 35 -46 0 -4 12
-21 28 -38 15 -16 45 -51 67 -78 69 -83 239 -245 308 -293 12 -9 31 -24 42
-34 41 -37 80 -67 88 -67 4 0 17 -9 29 -20 12 -11 28 -20 35 -20 7 0 13 -4 13
-8 0 -5 20 -19 45 -32 25 -13 45 -27 45 -32 0 -4 9 -8 19 -8 11 0 21 -4 23 -9
1 -4 57 -34 123 -65 66 -31 128 -61 137 -66 10 -6 25 -10 33 -10 8 0 15 -4 15
-10 0 -5 13 -10 29 -10 17 0 33 -4 36 -10 3 -5 17 -10 30 -10 13 0 27 -5 30
-10 3 -5 19 -10 35 -10 16 0 32 -4 35 -10 3 -5 22 -10 41 -10 19 0 34 -4 34
-10 0 -5 23 -10 50 -10 28 0 50 -4 50 -10 0 -5 25 -10 55 -10 30 0 55 -4 55
-10 0 -6 27 -10 60 -10 33 0 60 -4 60 -9 0 -4 35 -9 77 -10 43 -1 82 -6 88
-11 11 -9 65 -12 500 -29 277 -12 421 -23 485 -39 55 -15 247 -62 278 -69 12
-3 22 -9 22 -14 0 -5 9 -9 20 -9 11 0 20 -4 20 -10 0 -5 14 -10 30 -10 17 0
30 -4 30 -10 0 -5 9 -10 20 -10 11 0 20 -4 20 -10 0 -5 9 -10 20 -10 11 0 20
-4 20 -10 0 -5 6 -10 14 -10 19 0 96 -42 96 -52 0 -4 7 -8 15 -8 9 0 21 -5 28
-10 7 -6 50 -35 97 -65 47 -30 90 -59 97 -65 7 -5 16 -10 20 -10 5 0 15 -9 23
-20 8 -11 21 -20 28 -20 8 0 27 -13 42 -30 15 -16 34 -30 40 -30 7 0 20 -8 29
-18 9 -10 37 -35 62 -54 26 -19 60 -47 75 -62 16 -14 32 -26 36 -26 4 0 37
-29 73 -65 35 -36 69 -65 75 -65 6 0 47 36 92 80 46 44 86 80 90 80 4 0 8 5 8
11 0 13 25 39 38 39 6 0 22 14 35 30 14 17 30 30 36 30 6 0 11 5 11 10 0 6 5
10 10 10 6 0 22 11 35 24 14 14 38 33 55 42 16 10 30 22 30 26 0 4 6 8 13 8 6
0 25 11 41 25 16 14 33 25 37 25 4 0 14 6 21 12 18 17 42 31 106 65 28 15 52
31 52 35 0 4 9 8 20 8 11 0 20 5 20 10 0 6 9 10 20 10 11 0 20 5 20 10 0 6 7
10 15 10 8 0 23 4 33 9 9 5 28 13 42 18 14 6 36 15 50 21 92 40 310 102 413
116 26 4 47 11 47 15 0 5 30 12 68 15 37 3 103 11 147 16 44 5 128 14 187 19
58 5 110 11 115 14 5 3 56 7 114 8 57 1 106 5 109 10 3 4 47 9 98 10 51 1 92
5 92 10 0 5 32 9 70 9 40 0 70 4 70 10 0 6 25 10 55 10 30 0 55 5 55 10 0 6
20 10 44 10 25 0 47 4 50 9 3 5 23 11 43 15 90 13 113 19 113 27 0 5 11 9 25
9 22 0 39 5 100 31 11 4 44 16 73 25 28 9 52 20 52 25 0 5 7 9 15 9 18 0 149
62 153 73 2 4 12 7 23 7 10 0 19 5 19 10 0 6 9 10 20 10 11 0 20 5 20 10 0 6
6 10 13 10 7 0 23 9 35 20 12 11 28 20 37 20 8 0 15 4 15 8 0 5 11 14 24 20
14 6 33 18 43 26 10 8 55 42 101 76 45 34 82 66 82 71 0 5 7 9 15 9 15 0 57
37 188 166 100 100 167 173 167 185 0 5 15 25 33 43 40 42 137 179 137 195 0
6 4 11 8 11 4 0 19 22 33 50 13 27 27 50 32 50 4 0 7 9 7 20 0 11 5 20 10 20
6 0 10 9 10 20 0 11 5 20 10 20 6 0 10 11 10 25 0 14 5 25 10 25 6 0 10 9 10
20 0 11 5 20 10 20 6 0 10 14 10 30 0 17 3 30 8 30 9 0 25 37 52 125 12 39 28
84 36 102 7 17 20 64 28 105 9 40 23 104 31 143 18 82 22 640 5 734 -5 31 -14
99 -20 151 -15 128 -29 227 -42 275 -10 40 -18 80 -37 185 -6 30 -16 75 -22
100 -6 25 -13 62 -16 83 -3 20 -9 40 -14 43 -5 3 -9 21 -9 40 0 19 -4 34 -10
34 -5 0 -10 18 -10 40 0 22 -4 40 -10 40 -5 0 -10 15 -10 34 0 19 -4 38 -10
41 -5 3 -10 19 -10 36 0 16 -4 29 -10 29 -5 0 -10 18 -10 40 0 22 -4 40 -10
40 -5 0 -10 13 -10 29 0 17 -4 33 -10 36 -5 3 -10 17 -10 31 0 13 -4 32 -9 42
-5 9 -17 42 -26 72 -9 30 -25 82 -35 115 -10 33 -28 85 -39 115 -12 30 -21 65
-21 77 0 13 -4 23 -10 23 -5 0 -10 14 -10 30 0 17 -4 30 -10 30 -5 0 -10 14
-10 30 0 17 -4 30 -10 30 -5 0 -10 16 -10 35 0 19 -4 35 -10 35 -5 0 -10 14
-10 30 0 17 -4 30 -10 30 -5 0 -10 14 -10 30 0 17 -4 30 -10 30 -5 0 -10 14
-10 30 0 17 -4 30 -10 30 -5 0 -10 16 -10 35 0 19 -4 35 -10 35 -5 0 -10 10
-10 21 0 12 -13 60 -29 108 -15 47 -34 106 -41 131 -7 25 -23 79 -36 120 -12
41 -28 95 -34 120 -6 25 -16 59 -21 76 -5 17 -9 40 -9 52 0 11 -4 24 -10 27
-5 3 -10 24 -10 46 0 21 -4 39 -10 39 -5 0 -10 23 -10 50 0 28 -4 50 -10 50
-5 0 -10 20 -10 44 0 25 -4 48 -10 51 -5 3 -10 25 -10 49 0 23 -4 46 -9 52 -5
5 -12 38 -15 74 -4 36 -11 106 -17 155 -12 102 -16 651 -5 765 4 41 11 84 16
95 5 11 11 40 14 65 11 95 18 130 27 130 5 0 9 18 9 40 0 22 5 40 10 40 6 0
10 18 10 40 0 22 5 40 10 40 6 0 10 14 10 30 0 17 5 30 10 30 6 0 10 6 10 14
0 21 37 110 96 232 30 62 54 117 54 123 0 6 5 11 10 11 6 0 10 9 10 20 0 11 5
20 10 20 6 0 10 9 10 20 0 11 5 20 10 20 6 0 10 6 10 13 0 7 9 23 20 35 11 12
20 28 20 37 0 8 5 15 10 15 6 0 10 7 10 15 0 9 11 27 25 41 14 14 25 29 25 33
0 4 23 38 50 75 28 37 50 69 50 72 0 2 14 18 30 36 17 17 30 35 30 40 0 6 14
23 30 38 17 15 30 33 30 39 0 6 5 11 10 11 6 0 10 5 10 10 0 6 17 28 38 49 20
21 58 61 84 89 26 29 51 52 57 52 6 0 11 3 11 8 0 4 18 25 40 47 46 47 49 69
15 109 -14 16 -25 32 -25 36 0 5 -13 22 -30 40 -16 18 -30 35 -30 40 0 4 -9
18 -21 31 -12 13 -40 51 -62 84 -22 33 -49 67 -59 76 -10 9 -18 22 -18 29 0 6
-14 25 -30 40 -16 15 -30 34 -30 42 0 7 -9 20 -20 28 -11 8 -20 18 -20 22 0 4
-15 27 -32 51 -18 24 -46 63 -63 86 -16 24 -40 53 -52 66 -13 13 -23 30 -23
37 0 8 -9 20 -20 28 -11 8 -20 20 -20 27 0 7 -4 13 -10 13 -5 0 -10 5 -10 11
0 6 -6 16 -12 24 -30 31 -48 56 -48 66 0 7 -8 19 -17 28 -10 9 -29 32 -43 51
-13 19 -28 40 -32 45 -5 6 -30 39 -56 75 -26 36 -50 67 -54 68 -5 2 -8 9 -8
16 0 7 -13 27 -29 43 -15 17 -33 39 -39 49 -6 10 -12 13 -12 7 0 -7 -7 -13
-15 -13 -14 0 -53 -18 -65 -30 -3 -3 -18 -12 -35 -20 -16 -8 -32 -17 -35 -20
-3 -3 -25 -16 -50 -29 -172 -90 -214 -111 -226 -111 -8 0 -14 -4 -14 -10 0 -5
-9 -10 -20 -10 -11 0 -20 -4 -20 -10 0 -5 -9 -10 -20 -10 -11 0 -20 -4 -20
-10 0 -5 -11 -10 -25 -10 -14 0 -25 -4 -25 -10 0 -5 -11 -10 -25 -10 -14 0
-25 -4 -25 -10 0 -5 -9 -10 -19 -10 -11 0 -23 -4 -26 -10 -3 -5 -17 -10 -30
-10 -13 0 -27 -4 -30 -10 -3 -5 -15 -10 -26 -10 -10 0 -19 -3 -19 -7 0 -7 -41
-21 -205 -71 -27 -8 -54 -18 -60 -22 -5 -4 -23 -10 -40 -13 -16 -3 -50 -11
-75 -17 -25 -6 -62 -14 -82 -17 -21 -3 -38 -9 -38 -14 0 -5 -27 -9 -60 -9 -33
0 -60 -4 -60 -10 0 -6 -26 -10 -59 -10 -33 0 -61 -4 -63 -9 -1 -5 -49 -11
-105 -12 -57 -2 -103 -7 -103 -11 0 -4 -90 -8 -200 -8 -127 0 -200 4 -200 10
0 6 -40 10 -100 10 -60 0 -100 4 -100 10 0 6 -28 10 -65 10 -37 0 -65 4 -65
10 0 6 -22 10 -50 10 -27 0 -50 4 -50 9 0 5 -19 11 -42 14 -52 6 -96 16 -123
26 -11 5 -74 25 -140 47 -66 21 -124 41 -129 46 -6 4 -18 8 -28 8 -10 0 -18 5
-18 10 0 6 -11 10 -24 10 -14 0 -28 5 -31 10 -3 6 -15 10 -26 10 -10 0 -19 5
-19 10 0 6 -9 10 -20 10 -11 0 -20 5 -20 10 0 6 -9 10 -20 10 -11 0 -20 4 -20
8 0 4 -10 9 -22 9 -13 1 -24 7 -26 13 -2 5 -15 10 -28 10 -13 0 -24 3 -24 8 0
4 -15 13 -32 21 -18 8 -35 17 -38 20 -10 12 -50 31 -65 31 -8 0 -15 3 -15 8 0
4 -17 16 -37 27 -21 11 -57 32 -80 47 -23 15 -46 28 -52 28 -6 0 -11 5 -11 10
0 6 -7 10 -15 10 -8 0 -15 5 -15 10 0 6 -6 10 -13 10 -7 0 -23 9 -35 20 -12
11 -28 20 -37 20 -8 0 -15 5 -15 10 0 6 -4 10 -10 10 -5 0 -10 -4 -10 -10z
m60 -210 c0 -5 6 -10 13 -10 7 0 23 -9 35 -20 12 -11 28 -20 37 -20 8 0 15 -4
15 -10 0 -5 7 -10 15 -10 8 0 15 -4 15 -10 0 -5 9 -10 20 -10 11 0 20 -4 20
-10 0 -5 9 -10 19 -10 11 0 21 -4 23 -9 3 -8 36 -27 143 -83 81 -42 117 -58
131 -58 8 0 14 -4 14 -10 0 -5 9 -10 20 -10 11 0 20 -4 20 -10 0 -5 11 -10 24
-10 14 0 28 -4 31 -10 3 -5 15 -10 26 -10 10 0 19 -4 19 -10 0 -5 14 -10 30
-10 17 0 30 -4 30 -10 0 -5 11 -10 25 -10 14 0 25 -4 25 -10 0 -5 14 -10 30
-10 17 0 30 -4 30 -10 0 -5 14 -10 30 -10 17 0 30 -4 30 -10 0 -5 11 -10 25
-10 14 0 33 -4 43 -9 9 -5 37 -14 62 -21 25 -6 66 -18 91 -25 26 -8 58 -15 71
-15 13 0 28 -4 33 -9 6 -5 30 -12 55 -15 25 -3 77 -10 115 -16 351 -51 701
-45 1055 19 133 24 157 29 185 39 47 16 95 30 158 44 31 7 57 16 57 20 0 5 14
8 30 8 17 0 30 5 30 10 0 6 14 10 30 10 17 0 30 5 30 10 0 6 14 10 30 10 17 0
30 5 30 10 0 6 11 10 25 10 14 0 25 5 25 10 0 6 14 10 30 10 17 0 30 5 30 10
0 6 9 10 20 10 11 0 20 5 20 10 0 6 14 10 30 10 17 0 30 5 30 10 0 6 9 10 20
10 11 0 20 5 20 10 0 6 6 10 14 10 8 0 31 9 53 19 21 11 45 22 53 25 8 4 29
15 45 25 17 11 37 20 45 20 9 1 22 10 30 21 8 11 22 20 32 20 10 0 18 5 18 10
0 6 9 10 20 10 11 0 20 5 20 10 0 6 9 10 20 10 11 0 20 5 20 10 0 6 9 10 20
10 11 0 20 5 20 10 0 6 10 10 21 10 21 0 39 -15 69 -60 8 -12 21 -28 28 -36 6
-7 12 -16 12 -21 0 -5 9 -15 20 -23 11 -8 20 -20 20 -27 0 -7 14 -27 30 -45
17 -17 30 -35 30 -40 0 -5 11 -20 25 -34 14 -14 25 -29 25 -34 0 -5 10 -19 23
-32 12 -13 40 -49 61 -80 22 -32 43 -58 48 -58 4 0 8 -6 8 -13 0 -7 9 -19 20
-27 11 -8 20 -20 20 -28 0 -7 11 -24 24 -37 14 -13 27 -34 31 -45 3 -11 9 -20
13 -20 4 0 18 -18 32 -40 14 -22 28 -40 32 -40 5 0 8 -4 8 -10 0 -5 9 -20 19
-32 11 -13 29 -34 40 -47 12 -13 21 -28 21 -32 0 -5 16 -24 35 -43 19 -20 35
-40 35 -46 0 -6 6 -17 13 -25 18 -19 41 -49 53 -71 10 -16 7 -24 -17 -44 -16
-14 -29 -28 -29 -33 0 -4 -28 -36 -62 -71 -86 -89 -160 -172 -178 -201 -8 -14
-18 -25 -22 -25 -5 0 -8 -6 -8 -13 0 -7 -9 -19 -20 -27 -11 -8 -20 -21 -20
-28 0 -8 -13 -26 -28 -40 -16 -15 -35 -38 -42 -51 -7 -14 -17 -30 -21 -35 -21
-25 -59 -88 -59 -96 0 -6 -4 -10 -9 -10 -5 0 -14 -13 -21 -30 -7 -16 -16 -30
-21 -30 -5 0 -9 -9 -9 -20 0 -11 -4 -20 -10 -20 -5 0 -10 -9 -10 -20 0 -11 -4
-20 -8 -20 -5 0 -14 -16 -22 -35 -8 -19 -17 -35 -22 -35 -4 0 -8 -9 -8 -20 0
-11 -4 -20 -10 -20 -5 0 -10 -12 -10 -26 0 -14 -4 -23 -10 -19 -6 4 -10 -5
-10 -19 0 -14 -4 -26 -8 -26 -5 0 -15 -19 -22 -42 -12 -39 -27 -76 -66 -166
-8 -18 -14 -39 -14 -47 0 -9 -4 -23 -9 -33 -14 -29 -31 -87 -31 -110 0 -11 -4
-24 -10 -27 -5 -3 -10 -23 -10 -44 0 -20 -4 -41 -9 -47 -5 -5 -12 -31 -15 -59
-4 -27 -11 -84 -17 -125 -5 -41 -12 -144 -15 -227 -3 -84 -10 -153 -15 -153
-5 0 -9 -13 -9 -30 0 -16 4 -30 9 -30 5 0 12 -71 15 -157 8 -217 15 -314 26
-338 5 -11 11 -42 14 -70 13 -118 18 -151 26 -170 8 -19 13 -42 26 -140 4 -22
10 -44 15 -49 5 -6 9 -22 9 -38 0 -15 6 -42 14 -60 8 -18 20 -60 26 -93 7 -33
18 -78 25 -100 8 -22 16 -57 20 -78 4 -20 11 -37 16 -37 5 0 9 -18 9 -40 0
-22 5 -40 10 -40 6 0 10 -16 10 -35 0 -19 5 -35 10 -35 6 0 10 -13 10 -30 0
-16 5 -30 10 -30 6 0 10 -18 10 -40 0 -22 5 -40 10 -40 6 0 10 -13 10 -29 0
-17 5 -33 10 -36 6 -3 10 -19 10 -36 0 -16 5 -29 10 -29 6 0 10 -13 10 -30 0
-16 5 -30 10 -30 6 0 10 -13 10 -30 0 -16 4 -30 9 -30 5 0 11 -15 14 -32 6
-41 18 -80 56 -193 46 -133 51 -150 51 -168 0 -9 5 -17 10 -17 6 0 10 -13 10
-30 0 -16 5 -30 10 -30 6 0 10 -16 10 -35 0 -19 5 -35 10 -35 6 0 10 -13 10
-29 0 -17 5 -33 10 -36 6 -3 10 -22 10 -41 0 -19 5 -34 10 -34 6 0 10 -13 10
-29 0 -17 5 -33 10 -36 6 -3 10 -19 10 -36 0 -16 5 -29 10 -29 6 0 10 -18 10
-40 0 -22 4 -40 9 -40 5 0 12 -16 15 -35 3 -19 9 -51 12 -70 3 -19 10 -38 15
-41 5 -3 9 -15 9 -26 0 -12 4 -35 9 -52 5 -17 16 -53 24 -81 8 -27 20 -77 27
-110 6 -33 15 -74 21 -91 5 -17 9 -45 9 -62 0 -18 5 -32 10 -32 6 0 10 -22 10
-50 0 -27 5 -50 10 -50 6 0 10 -28 10 -65 0 -37 4 -65 10 -65 6 0 10 -32 10
-75 0 -43 4 -75 10 -75 6 0 10 -43 10 -110 0 -67 4 -110 10 -110 6 0 10 -100
10 -280 0 -180 -4 -280 -10 -280 -6 0 -10 -32 -10 -75 0 -43 -4 -75 -10 -75
-5 0 -10 -18 -10 -40 0 -22 -4 -40 -10 -40 -5 0 -10 -18 -10 -40 0 -22 -4 -40
-10 -40 -5 0 -10 -13 -10 -30 0 -16 -3 -30 -7 -30 -5 0 -19 -34 -32 -76 -13
-42 -30 -82 -38 -89 -7 -8 -13 -19 -13 -25 0 -16 -61 -134 -71 -138 -5 -2 -9
-12 -9 -23 0 -10 -4 -19 -8 -19 -5 0 -14 -16 -22 -35 -8 -19 -17 -35 -22 -35
-4 0 -8 -7 -8 -15 0 -8 -4 -15 -10 -15 -5 0 -10 -6 -10 -13 0 -7 -9 -19 -20
-27 -11 -8 -20 -20 -20 -28 0 -7 -15 -28 -32 -47 -18 -20 -51 -56 -73 -81 -81
-92 -236 -244 -250 -244 -3 0 -18 -11 -33 -24 -66 -59 -124 -104 -135 -105 -4
0 -21 -14 -37 -31 -15 -16 -35 -30 -44 -30 -9 0 -16 -4 -16 -10 0 -5 -7 -10
-15 -10 -8 0 -15 -4 -15 -10 0 -5 -7 -10 -15 -10 -9 0 -25 -9 -37 -20 -12 -11
-28 -20 -35 -20 -7 0 -13 -4 -13 -10 0 -5 -9 -10 -20 -10 -11 0 -20 -4 -20
-10 0 -5 -9 -10 -19 -10 -11 0 -21 -4 -23 -8 -5 -14 -171 -98 -222 -113 -25
-7 -46 -17 -46 -21 0 -4 -9 -8 -20 -8 -11 0 -20 -4 -20 -10 0 -5 -16 -10 -35
-10 -19 0 -35 -4 -35 -10 0 -5 -16 -10 -35 -10 -19 0 -35 -4 -35 -10 0 -5 -16
-10 -35 -10 -19 0 -35 -4 -35 -9 0 -8 -27 -14 -137 -27 -27 -3 -57 -9 -68 -14
-11 -5 -47 -12 -80 -15 -33 -3 -103 -10 -155 -15 -52 -5 -156 -14 -230 -19
-476 -35 -557 -43 -640 -61 -30 -6 -80 -16 -110 -21 -133 -25 -230 -51 -230
-61 0 -4 -16 -8 -35 -8 -19 0 -35 -4 -35 -10 0 -5 -13 -10 -30 -10 -16 0 -30
-4 -30 -10 0 -5 -11 -10 -25 -10 -14 0 -25 -4 -25 -10 0 -5 -11 -10 -25 -10
-14 0 -25 -4 -25 -10 0 -5 -9 -10 -20 -10 -11 0 -20 -4 -20 -10 0 -5 -9 -10
-19 -10 -11 0 -23 -5 -26 -10 -3 -6 -15 -10 -26 -10 -10 0 -19 -3 -19 -8 0 -4
-17 -15 -37 -24 -57 -26 -96 -50 -142 -88 -13 -11 -28 -20 -32 -20 -4 0 -19
-11 -33 -25 -14 -14 -30 -25 -36 -25 -5 0 -10 -4 -10 -10 0 -5 -7 -10 -16 -10
-8 0 -33 -18 -54 -40 -21 -22 -44 -40 -50 -40 -7 0 -63 -52 -126 -114 -63 -63
-114 -111 -114 -105 0 5 -7 9 -15 9 -8 0 -15 5 -15 10 0 6 -7 10 -15 10 -8 0
-15 5 -15 10 0 6 -7 10 -15 10 -8 0 -15 7 -15 15 0 8 -4 15 -9 15 -5 0 -23 12
-39 28 -17 15 -47 41 -68 57 -20 17 -42 36 -49 42 -8 7 -16 13 -19 13 -7 0
-39 26 -72 57 -13 13 -29 23 -36 23 -8 0 -20 9 -28 20 -8 11 -20 20 -28 20 -7
0 -24 11 -37 24 -13 14 -34 27 -45 31 -11 3 -20 10 -20 15 0 8 -21 21 -87 54
-13 6 -23 14 -23 19 0 4 -9 7 -20 7 -11 0 -20 4 -20 8 0 9 -130 72 -148 72 -7
0 -12 5 -12 10 0 6 -9 10 -20 10 -11 0 -20 5 -20 10 0 6 -13 10 -30 10 -16 0
-30 5 -30 10 0 6 -16 10 -35 10 -19 0 -35 4 -35 9 0 5 -12 12 -27 15 -16 4
-46 11 -68 17 -102 25 -199 31 -600 39 -236 4 -450 13 -475 19 -25 5 -73 10
-108 11 -35 0 -71 4 -80 9 -9 5 -46 12 -82 15 -135 14 -160 18 -160 27 0 5
-20 9 -44 9 -25 0 -47 4 -50 9 -3 5 -22 12 -41 15 -19 3 -51 9 -70 12 -19 3
-35 10 -35 15 0 5 -13 9 -30 9 -16 0 -30 5 -30 10 0 6 -11 10 -24 10 -14 0
-28 5 -31 10 -3 6 -17 10 -31 10 -13 0 -24 5 -24 10 0 6 -13 10 -30 10 -16 0
-30 4 -30 8 0 5 -36 26 -80 46 -44 21 -83 42 -86 47 -3 5 -14 9 -25 9 -10 0
-19 5 -19 10 0 6 -6 10 -13 10 -7 0 -23 9 -35 20 -12 11 -28 20 -37 20 -8 0
-15 4 -15 9 0 5 -13 14 -30 21 -16 7 -30 16 -30 21 0 5 -7 9 -15 9 -8 0 -15 5
-15 10 0 6 -6 10 -13 10 -7 0 -19 9 -27 20 -8 11 -20 20 -28 20 -7 0 -23 10
-36 23 -12 12 -35 31 -51 42 -15 11 -83 76 -151 145 -142 144 -164 168 -164
178 0 4 -9 14 -20 22 -11 8 -20 20 -20 27 0 7 -4 13 -10 13 -5 0 -10 6 -10 13
0 7 -9 19 -20 27 -11 8 -20 21 -20 30 0 9 -9 22 -20 30 -11 8 -20 22 -20 32 0
10 -4 18 -8 18 -5 0 -15 12 -23 28 -8 15 -20 33 -27 40 -6 7 -12 20 -12 28 0
8 -3 14 -7 14 -5 0 -19 25 -33 55 -14 30 -28 55 -32 55 -5 0 -8 11 -8 25 0 14
-4 25 -10 25 -5 0 -10 9 -10 20 0 11 -4 20 -10 20 -5 0 -10 9 -10 20 0 11 -4
20 -10 20 -5 0 -10 11 -10 25 0 14 -4 25 -10 25 -5 0 -10 11 -10 24 0 14 -4
28 -10 31 -5 3 -10 17 -10 30 0 13 -4 27 -10 30 -5 3 -10 19 -10 36 0 16 -4
29 -10 29 -5 0 -10 13 -10 29 0 17 -4 33 -10 36 -5 3 -10 19 -10 35 0 16 -4
31 -9 34 -4 3 -11 27 -15 53 -16 106 -24 150 -37 188 -17 52 -16 607 1 705 7
36 16 103 21 150 11 104 25 204 39 290 6 36 13 86 16 113 3 26 10 47 15 47 5
0 9 23 9 50 0 28 5 50 10 50 6 0 10 18 10 39 0 22 4 43 10 46 5 3 10 24 10 46
0 21 5 39 10 39 6 0 10 18 10 40 0 22 5 40 10 40 6 0 10 18 10 40 0 22 5 40
10 40 6 0 10 18 10 40 0 22 5 40 10 40 6 0 10 16 10 35 0 19 4 35 9 35 5 0 12
17 16 38 8 44 121 389 135 414 6 10 10 29 10 43 0 14 5 25 10 25 6 0 10 14 10
30 0 17 5 30 10 30 6 0 10 14 10 30 0 17 5 30 10 30 6 0 10 14 10 30 0 17 5
30 10 30 6 0 10 14 10 30 0 17 5 30 10 30 6 0 10 14 10 30 0 17 5 30 10 30 6
0 10 15 10 34 0 19 3 36 8 38 10 4 52 130 52 156 0 12 5 24 10 27 6 3 10 16
10 29 0 12 7 31 15 42 8 10 15 28 15 39 0 11 9 45 20 75 11 30 20 65 20 77 0
13 5 23 10 23 6 0 10 18 10 40 0 22 5 40 10 40 6 0 10 18 10 39 0 22 5 43 10
46 6 3 10 24 10 45 0 21 5 42 10 45 6 3 10 26 10 51 0 24 5 44 10 44 6 0 10
28 10 65 0 37 4 65 10 65 6 0 10 32 10 75 0 43 4 75 10 75 6 0 10 105 10 295
0 190 -4 295 -10 295 -6 0 -10 32 -10 75 0 43 -4 75 -10 75 -5 0 -10 23 -10
50 0 28 -4 50 -10 50 -5 0 -10 20 -10 45 0 25 -4 45 -10 45 -5 0 -10 18 -10
40 0 22 -4 40 -9 40 -5 0 -12 16 -15 35 -3 19 -9 51 -12 70 -3 19 -10 35 -15
35 -5 0 -9 11 -9 24 0 14 -4 28 -10 31 -6 3 -10 17 -10 31 0 13 -4 24 -10 24
-5 0 -10 12 -10 26 0 14 -7 32 -15 40 -8 9 -15 24 -15 35 0 10 -4 19 -10 19
-5 0 -10 6 -10 14 0 19 -42 120 -52 124 -4 2 -8 15 -8 28 0 13 -4 24 -10 24
-5 0 -10 9 -10 20 0 11 -4 20 -10 20 -5 0 -10 9 -10 20 0 11 -4 20 -10 20 -5
0 -10 9 -10 20 0 11 -4 20 -10 20 -5 0 -10 9 -10 20 0 11 -4 20 -8 20 -5 0
-14 16 -22 35 -8 19 -17 35 -22 35 -4 0 -8 9 -8 20 0 11 -3 20 -8 20 -4 0 -13
14 -20 30 -8 17 -20 36 -27 43 -7 8 -24 36 -38 63 -14 28 -33 56 -41 63 -9 8
-16 21 -16 30 0 9 -9 23 -20 31 -11 8 -20 21 -20 30 0 9 -9 22 -20 30 -11 8
-20 21 -20 30 0 9 -9 22 -20 30 -11 8 -20 22 -20 31 0 10 -4 19 -8 21 -5 2
-23 26 -42 53 -19 28 -39 55 -45 61 -5 6 -17 22 -25 34 -8 13 -23 32 -32 42
-10 10 -18 21 -18 24 0 3 -13 19 -30 34 -16 15 -30 34 -30 42 0 7 -9 20 -20
28 -11 8 -20 20 -20 27 0 7 -4 13 -10 13 -20 0 -9 38 20 68 17 18 30 35 30 38
0 3 14 19 30 34 17 15 30 35 30 44 0 9 5 16 11 16 13 0 49 38 49 52 0 4 6 8
13 8 6 0 23 17 37 37 27 40 56 75 108 129 17 18 32 38 32 44 0 6 24 35 52 65
29 30 69 73 88 96 19 22 47 54 63 70 15 16 27 33 27 39 0 6 29 40 65 75 36 36
65 69 65 73 0 4 19 28 43 53 52 57 73 82 72 89 0 3 12 18 27 33 28 28 48 35
48 17 0 -5 7 -10 15 -10 8 0 15 -4 15 -10 0 -5 7 -10 16 -10 9 0 24 -8 33 -18
16 -19 71 -51 176 -106 33 -17 62 -34 63 -38 2 -5 12 -8 23 -8 10 0 19 -4 19
-10 0 -5 11 -10 24 -10 14 0 28 -4 31 -10 3 -5 15 -10 26 -10 10 0 19 -4 19
-10 0 -5 9 -10 20 -10 11 0 20 -4 20 -10 0 -5 14 -10 30 -10 17 0 30 -4 30
-10 0 -5 11 -10 25 -10 14 0 25 -4 25 -10 0 -5 13 -10 29 -10 16 0 31 -4 33
-8 3 -9 135 -52 159 -52 8 0 23 -6 34 -14 11 -7 38 -16 60 -19 22 -3 60 -10
85 -16 301 -74 823 -83 1195 -22 114 19 241 46 280 59 17 6 46 15 65 20 19 5
56 16 83 23 26 7 47 17 47 21 0 4 14 8 30 8 17 0 30 5 30 10 0 6 16 10 35 10
19 0 35 5 35 10 0 6 14 10 30 10 17 0 30 5 30 10 0 6 14 10 30 10 17 0 30 5
30 10 0 6 9 10 20 10 11 0 20 5 20 10 0 6 14 10 30 10 17 0 30 5 30 10 0 6 9
10 20 10 11 0 20 5 20 10 0 6 7 10 15 10 8 0 23 4 33 9 9 5 45 22 80 37 34 15
62 31 62 36 0 4 9 8 20 8 11 0 20 5 20 10 0 6 9 10 20 10 11 0 20 5 20 10 0 6
9 10 20 10 11 0 20 5 20 10 0 6 9 10 20 10 11 0 20 5 20 10 0 6 9 10 20 10 11
0 20 5 20 10 0 6 7 10 15 10 8 0 15 5 15 10 0 6 9 10 20 10 11 0 20 5 20 10 0
6 8 10 18 10 10 0 24 9 32 20 10 14 26 20 52 20 21 0 38 -4 38 -10z m-1957
-417 c-23 -2 -64 -2 -90 0 -26 2 -7 3 42 3 50 0 71 -1 48 -3z"/>
<path d="M6215 11200 c-11 -4 -30 -10 -42 -15 -13 -4 -23 -11 -23 -16 0 -5 -9
-9 -20 -9 -11 0 -20 -4 -20 -10 0 -5 -7 -10 -15 -10 -8 0 -15 -4 -15 -10 0 -5
-9 -10 -20 -10 -11 0 -20 -4 -20 -10 0 -5 -9 -10 -20 -10 -11 0 -20 -4 -20 -8
0 -5 -22 -15 -50 -22 -27 -7 -50 -17 -50 -22 0 -4 -9 -8 -20 -8 -11 0 -20 -4
-20 -10 0 -5 -7 -10 -15 -10 -8 0 -23 -4 -33 -9 -9 -5 -28 -13 -42 -18 -14 -6
-36 -15 -50 -21 -14 -6 -35 -14 -47 -17 -13 -4 -23 -11 -23 -16 0 -5 -7 -9
-16 -9 -23 0 -208 -63 -212 -72 -2 -5 -17 -8 -33 -8 -16 0 -29 -4 -29 -8 0 -4
-17 -9 -37 -10 -21 -2 -39 -7 -41 -12 -2 -6 -21 -10 -43 -10 -21 0 -39 -4 -39
-10 0 -5 -18 -10 -39 -10 -22 0 -43 -4 -46 -10 -3 -5 -26 -10 -50 -10 -24 0
-47 -4 -50 -10 -3 -5 -25 -10 -49 -10 -23 0 -46 -4 -51 -9 -6 -5 -39 -12 -75
-15 -36 -3 -119 -11 -185 -18 -152 -16 -538 -16 -675 0 -58 7 -132 15 -165 18
-33 3 -69 9 -80 14 -11 5 -40 12 -65 15 -25 3 -64 8 -87 11 -24 3 -43 10 -43
15 0 5 -18 9 -40 9 -22 0 -40 5 -40 10 0 6 -16 10 -35 10 -19 0 -35 5 -35 10
0 6 -18 10 -40 10 -22 0 -40 5 -40 10 0 6 -13 10 -30 10 -16 0 -30 5 -30 10 0
6 -6 10 -14 10 -12 0 -58 17 -146 52 -14 6 -37 17 -52 24 -14 8 -33 14 -42 14
-9 0 -16 5 -16 10 0 6 -6 10 -14 10 -16 0 -140 62 -144 73 -2 4 -15 7 -28 7
-13 0 -24 5 -24 10 0 6 -9 10 -20 10 -11 0 -20 5 -20 10 0 6 -7 10 -16 10 -8
0 -22 6 -30 14 -17 18 -47 11 -65 -16 -8 -12 -25 -34 -39 -49 -54 -59 -80 -89
-80 -94 0 -7 -29 -41 -67 -81 -18 -18 -33 -38 -33 -43 0 -6 -24 -35 -52 -65
-29 -29 -66 -71 -83 -91 -16 -21 -40 -48 -53 -61 -12 -13 -22 -28 -22 -34 0
-6 -22 -33 -50 -60 -27 -27 -50 -53 -50 -59 0 -6 -4 -11 -10 -11 -5 0 -10 -4
-10 -10 0 -5 -13 -23 -30 -38 -16 -16 -30 -37 -30 -46 0 -23 19 -57 42 -77 10
-9 18 -23 18 -30 0 -8 9 -21 20 -29 11 -8 20 -20 20 -27 0 -7 5 -13 10 -13 6
0 10 -7 10 -15 0 -8 5 -15 10 -15 6 0 10 -7 10 -15 0 -8 5 -15 10 -15 6 0 10
-6 10 -13 0 -7 9 -23 20 -35 11 -12 20 -27 20 -34 0 -8 9 -20 20 -28 11 -8 20
-20 20 -28 0 -7 9 -23 21 -35 23 -25 89 -135 89 -148 0 -5 5 -9 10 -9 6 0 10
-7 10 -15 0 -8 5 -15 10 -15 6 0 10 -7 10 -15 0 -8 5 -15 10 -15 6 0 10 -9 10
-20 0 -11 5 -20 10 -20 6 0 10 -9 10 -20 0 -11 4 -20 8 -20 4 0 19 -22 33 -50
13 -27 27 -50 32 -50 4 0 7 -7 7 -15 0 -17 49 -109 62 -113 4 -2 8 -10 8 -18
0 -17 62 -148 73 -152 4 -2 7 -15 7 -28 0 -13 5 -24 10 -24 6 0 10 -11 10 -25
0 -14 5 -25 10 -25 6 0 10 -9 10 -20 0 -11 5 -20 10 -20 6 0 10 -13 10 -30 0
-16 5 -30 10 -30 6 0 10 -13 10 -30 0 -16 5 -30 10 -30 6 0 10 -11 10 -25 0
-14 5 -25 10 -25 6 0 10 -13 10 -30 0 -16 4 -30 9 -30 5 0 12 -17 15 -37 16
-91 19 -103 26 -103 4 0 10 -17 13 -37 15 -97 24 -139 32 -153 13 -20 35 -209
51 -428 9 -119 -20 -469 -48 -577 -11 -44 -26 -127 -34 -192 -4 -24 -10 -43
-14 -43 -4 0 -10 -19 -14 -42 -10 -85 -18 -118 -27 -118 -5 0 -9 -15 -9 -34 0
-19 -4 -38 -10 -41 -5 -3 -10 -22 -10 -41 0 -19 -4 -34 -10 -34 -5 0 -10 -13
-10 -30 0 -16 -4 -30 -10 -30 -5 0 -10 -15 -10 -34 0 -19 -4 -38 -10 -41 -5
-3 -10 -19 -10 -36 0 -16 -4 -29 -10 -29 -5 0 -10 -16 -10 -35 0 -19 -4 -35
-10 -35 -5 0 -10 -13 -10 -30 0 -16 -4 -30 -10 -30 -5 0 -10 -11 -10 -25 0
-14 -4 -33 -9 -43 -8 -14 -30 -87 -57 -184 -3 -10 -10 -18 -15 -18 -5 0 -9
-10 -9 -22 0 -23 -16 -81 -31 -110 -5 -10 -9 -29 -9 -43 0 -14 -4 -25 -10 -25
-5 0 -10 -16 -10 -35 0 -19 -4 -35 -10 -35 -5 0 -10 -13 -10 -30 0 -16 -4 -30
-10 -30 -5 0 -10 -18 -10 -40 0 -22 -4 -40 -10 -40 -5 0 -10 -13 -10 -30 0
-16 -4 -30 -10 -30 -5 0 -10 -20 -10 -45 0 -25 -4 -45 -10 -45 -5 0 -10 -13
-10 -30 0 -16 -4 -30 -10 -30 -5 0 -10 -18 -10 -40 0 -22 -4 -40 -10 -40 -5 0
-10 -10 -10 -21 0 -12 -5 -40 -11 -63 -6 -22 -14 -57 -19 -76 -15 -61 -28
-114 -40 -160 -24 -94 -47 -209 -56 -290 -3 -25 -10 -49 -15 -54 -5 -6 -9 -36
-9 -68 0 -32 -4 -58 -8 -58 -5 0 -10 -28 -11 -62 -1 -34 -6 -67 -11 -73 -8
-10 -14 -70 -26 -258 -3 -48 -10 -87 -15 -87 -5 0 -9 -59 -9 -135 0 -83 -4
-135 -10 -135 -5 0 -10 -16 -10 -35 0 -19 5 -35 10 -35 6 0 10 -45 10 -115 0
-63 4 -115 9 -115 5 0 12 -21 15 -47 14 -119 19 -143 27 -143 5 0 9 -15 9 -34
0 -19 5 -38 10 -41 6 -3 10 -19 10 -35 0 -16 4 -31 8 -34 4 -3 14 -28 22 -55
7 -28 17 -51 22 -51 4 0 8 -7 8 -15 0 -8 16 -44 35 -81 19 -36 35 -72 35 -80
0 -8 5 -14 10 -14 6 0 10 -9 10 -20 0 -11 5 -20 10 -20 6 0 10 -8 10 -18 0
-10 9 -24 20 -32 11 -8 20 -22 20 -32 0 -10 5 -18 10 -18 6 0 10 -9 10 -20 0
-11 5 -20 10 -20 6 0 10 -7 10 -15 0 -8 5 -15 10 -15 6 0 10 -7 10 -15 0 -8 5
-15 10 -15 6 0 10 -7 10 -15 0 -8 4 -15 8 -15 4 0 15 -13 24 -28 18 -30 53
-73 106 -129 17 -19 32 -37 32 -39 0 -6 209 -214 215 -214 3 0 17 -10 30 -23
33 -31 68 -57 77 -57 4 0 8 -7 8 -15 0 -8 9 -15 20 -15 11 0 20 -3 20 -8 0 -4
18 -18 40 -32 22 -14 40 -28 40 -32 0 -5 9 -8 20 -8 11 0 20 -4 20 -10 0 -5 7
-10 15 -10 8 0 15 -4 15 -10 0 -5 9 -10 20 -10 11 0 20 -4 20 -10 0 -5 9 -10
20 -10 11 0 20 -4 20 -10 0 -5 9 -10 20 -10 11 0 20 -4 20 -10 0 -5 9 -10 20
-10 11 0 20 -4 20 -10 0 -5 9 -10 20 -10 11 0 20 -4 20 -9 0 -5 8 -11 18 -14
9 -4 42 -16 72 -27 30 -12 66 -25 80 -30 14 -5 50 -18 80 -29 30 -12 67 -21
82 -21 15 0 30 -4 33 -10 3 -5 21 -10 39 -10 17 0 36 -4 41 -9 6 -5 35 -12 65
-15 30 -3 89 -10 130 -16 152 -22 303 -30 648 -36 204 -3 352 -9 352 -15 0 -5
47 -9 105 -9 63 0 105 -4 105 -10 0 -5 23 -10 50 -10 28 0 50 -4 50 -10 0 -5
20 -10 45 -10 25 0 45 -4 45 -10 0 -5 9 -10 20 -10 10 0 32 -5 47 -11 15 -6
37 -15 48 -20 11 -4 38 -14 60 -21 22 -7 42 -16 45 -19 3 -4 40 -23 83 -44 42
-20 80 -41 83 -46 3 -5 12 -9 20 -9 8 0 24 -9 36 -20 12 -11 28 -20 35 -20 7
0 13 -4 13 -10 0 -5 8 -10 18 -10 10 0 24 -9 32 -20 8 -11 18 -20 23 -20 5 0
14 -6 21 -12 7 -7 25 -22 41 -33 15 -11 44 -34 64 -51 20 -17 52 -41 71 -54
19 -14 61 -50 92 -82 31 -32 64 -58 73 -58 8 0 53 38 99 84 47 46 94 87 105
91 12 3 21 12 21 18 1 7 25 28 55 47 30 19 55 38 55 43 0 4 9 7 20 7 11 0 20
5 20 10 0 6 7 10 15 10 8 0 15 5 15 10 0 6 7 10 15 10 8 0 15 5 15 10 0 6 9
10 20 10 11 0 20 5 20 10 0 6 9 10 20 10 11 0 20 5 20 10 0 6 9 10 20 10 11 0
20 5 20 10 0 6 9 10 20 10 11 0 20 5 20 10 0 6 7 10 15 10 8 0 23 4 33 9 9 5
31 14 47 21 17 7 38 16 47 21 10 5 53 20 95 34 43 14 92 29 109 35 17 5 40 10
52 10 12 0 22 5 22 10 0 6 18 10 40 10 22 0 40 5 40 10 0 6 25 10 55 10 30 0
55 5 55 10 0 6 27 10 60 10 33 0 60 4 60 10 0 6 31 10 73 10 40 0 77 4 82 9 6
5 51 12 100 15 50 3 144 10 210 15 66 6 176 15 245 21 261 22 441 49 525 78
17 6 50 16 75 23 25 7 49 16 55 21 5 4 17 8 27 8 27 0 98 24 98 32 0 5 14 8
30 8 17 0 30 5 30 10 0 6 14 10 30 10 17 0 30 5 30 10 0 6 9 10 20 10 11 0 20
5 20 10 0 6 11 10 25 10 14 0 25 5 25 10 0 6 9 10 20 10 11 0 20 5 20 10 0 6
6 10 13 10 18 0 67 24 67 33 0 4 9 7 20 7 11 0 20 5 20 10 0 6 7 10 15 10 9 0
21 5 28 10 7 6 44 31 82 56 39 25 72 49 73 55 2 5 9 9 16 9 6 0 18 9 26 20 8
11 20 20 27 20 26 0 313 285 313 311 0 6 12 23 28 37 15 15 45 54 67 87 22 33
42 62 45 65 3 3 17 26 30 53 14 26 28 47 32 47 5 0 8 9 8 20 0 11 5 20 10 20
6 0 10 11 10 24 0 14 5 28 10 31 6 3 10 15 10 26 0 10 5 19 10 19 6 0 10 11
10 25 0 14 5 25 10 25 6 0 10 14 10 30 0 17 5 30 10 30 6 0 10 14 10 30 0 17
5 30 10 30 6 0 10 18 10 40 0 22 4 40 9 40 40 0 62 637 33 925 -8 72 -16 154
-19 182 -3 29 -9 53 -14 53 -5 0 -9 29 -9 65 0 37 -4 65 -10 65 -6 0 -10 27
-10 60 0 33 -4 60 -10 60 -5 0 -10 23 -10 50 0 28 -4 50 -10 50 -5 0 -10 20
-10 45 0 25 -4 45 -10 45 -5 0 -10 18 -10 40 0 22 -4 40 -10 40 -5 0 -10 18
-10 39 0 22 -4 43 -10 46 -5 3 -10 24 -10 46 0 21 -4 39 -10 39 -5 0 -10 18
-10 40 0 22 -4 40 -9 40 -8 0 -11 11 -27 103 -3 20 -10 40 -15 43 -5 3 -9 17
-9 31 0 13 -6 37 -14 51 -14 27 -30 79 -63 205 -9 37 -21 67 -25 67 -4 0 -8
14 -8 30 0 17 -4 30 -10 30 -5 0 -10 18 -10 40 0 22 -4 40 -10 40 -5 0 -10 14
-10 30 0 17 -4 30 -10 30 -5 0 -10 13 -10 29 0 17 -4 33 -10 36 -5 3 -10 19
-10 36 0 16 -4 29 -10 29 -5 0 -10 14 -10 30 0 17 -4 30 -10 30 -5 0 -10 18
-10 40 0 22 -4 40 -10 40 -5 0 -10 8 -10 17 0 19 -18 79 -31 105 -5 10 -9 29
-9 43 0 14 -4 25 -8 25 -5 0 -14 21 -21 48 -6 26 -16 61 -21 77 -5 17 -16 60
-26 98 -10 37 -21 67 -26 67 -4 0 -8 18 -8 40 0 22 -4 40 -10 40 -5 0 -10 18
-10 40 0 22 -4 40 -10 40 -5 0 -10 20 -10 45 0 25 -4 45 -10 45 -5 0 -10 18
-10 40 0 22 -4 40 -10 40 -5 0 -10 20 -10 44 0 25 -4 48 -10 51 -5 3 -10 26
-10 51 0 24 -4 44 -9 44 -5 0 -11 24 -14 53 -3 28 -11 79 -17 112 -64 339 -73
838 -20 1160 6 33 13 81 16 108 4 26 10 47 15 47 5 0 9 20 9 45 0 25 5 45 10
45 6 0 10 18 10 40 0 22 5 40 10 40 6 0 10 14 10 30 0 17 5 30 10 30 6 0 10
14 10 30 0 17 5 30 10 30 6 0 10 14 10 30 0 17 5 30 10 30 6 0 10 11 10 25 0
14 5 25 10 25 6 0 10 14 10 30 0 17 5 30 10 30 6 0 10 8 10 18 0 10 4 22 8 28
5 5 22 39 37 77 15 37 32 67 37 67 4 0 8 9 8 20 0 11 5 20 10 20 6 0 10 9 10
20 0 11 5 20 10 20 6 0 10 9 10 20 0 11 5 20 10 20 6 0 10 9 10 19 0 11 3 21
8 23 9 4 41 57 49 81 3 9 9 17 14 17 5 0 9 7 9 15 0 8 5 15 10 15 6 0 10 8 10
18 0 10 9 24 20 32 11 8 20 20 20 27 0 7 6 21 14 30 8 10 44 59 81 108 36 50
77 102 90 118 14 15 25 32 25 38 0 6 18 28 40 49 22 21 40 41 40 44 0 2 14 20
30 38 30 32 39 58 21 58 -5 0 -13 9 -16 20 -4 12 -22 36 -41 55 -19 19 -34 39
-34 46 0 6 -14 24 -30 39 -17 15 -30 33 -30 39 0 6 -4 11 -10 11 -5 0 -10 6
-10 13 0 7 -16 30 -35 51 -19 21 -35 42 -35 46 0 4 -12 21 -27 38 -16 16 -37
42 -48 58 -11 15 -26 33 -32 40 -7 7 -13 17 -13 23 0 6 -4 11 -10 11 -5 0 -10
5 -10 10 0 6 -13 24 -30 42 -16 17 -30 35 -30 40 0 6 -14 23 -30 38 -16 15
-30 33 -30 39 0 17 -67 81 -85 81 -8 0 -15 -4 -15 -10 0 -5 -11 -10 -25 -10
-14 0 -25 -4 -25 -10 0 -5 -9 -10 -20 -10 -11 0 -20 -4 -20 -10 0 -5 -9 -10
-20 -10 -11 0 -20 -4 -20 -10 0 -5 -9 -10 -20 -10 -11 0 -20 -4 -20 -10 0 -5
-9 -10 -20 -10 -11 0 -20 -4 -20 -10 0 -5 -9 -10 -19 -10 -11 0 -23 -4 -26
-10 -3 -5 -15 -10 -26 -10 -10 0 -19 -4 -19 -8 0 -5 -22 -15 -50 -22 -27 -7
-50 -17 -50 -22 0 -4 -9 -8 -19 -8 -11 0 -23 -4 -26 -10 -3 -5 -15 -10 -25
-10 -10 0 -31 -6 -47 -14 -43 -21 -71 -32 -155 -57 -43 -13 -78 -27 -78 -31 0
-5 -16 -8 -35 -8 -19 0 -35 -4 -35 -10 0 -5 -18 -10 -40 -10 -22 0 -40 -4 -40
-10 0 -5 -18 -10 -40 -10 -22 0 -40 -4 -40 -10 0 -5 -18 -10 -39 -10 -22 0
-43 -4 -46 -10 -3 -5 -28 -10 -56 -10 -27 0 -49 -4 -49 -9 0 -9 -56 -17 -190
-27 -41 -3 -80 -10 -85 -14 -17 -14 -488 -22 -640 -10 -244 18 -270 21 -290
30 -11 5 -42 11 -70 14 -93 10 -140 18 -150 27 -5 5 -26 9 -47 9 -21 0 -38 5
-38 10 0 6 -18 10 -40 10 -22 0 -40 5 -40 10 0 6 -13 10 -30 10 -16 0 -30 5
-30 10 0 6 -18 10 -40 10 -22 0 -40 4 -40 9 0 5 -10 11 -22 14 -51 12 -203 69
-206 78 -2 5 -10 9 -18 9 -8 0 -22 4 -32 9 -42 23 -113 51 -127 51 -8 0 -15 5
-15 10 0 6 -9 10 -20 10 -11 0 -20 5 -20 10 0 6 -9 10 -20 10 -11 0 -20 5 -20
10 0 6 -9 10 -20 10 -11 0 -20 5 -20 10 0 6 -9 10 -20 10 -11 0 -20 5 -20 10
0 6 -7 10 -15 10 -8 0 -15 5 -15 10 0 6 -9 10 -20 10 -11 0 -20 5 -20 10 0 6
-9 10 -20 10 -11 0 -20 4 -20 8 0 7 -66 44 -73 41 -1 -1 -11 -4 -22 -9z m3245
-751 c0 -4 18 -25 40 -48 22 -22 40 -48 40 -56 0 -8 5 -15 10 -15 6 0 10 -7
10 -15 0 -8 4 -15 9 -15 5 0 15 -20 22 -45 7 -25 17 -45 21 -45 4 0 8 -13 8
-29 0 -16 5 -31 12 -33 8 -3 12 -50 12 -166 0 -112 -4 -166 -12 -174 -7 -7
-12 -27 -12 -45 0 -18 -4 -33 -10 -33 -5 0 -10 -13 -10 -30 0 -16 -4 -30 -10
-30 -5 0 -10 -9 -10 -20 0 -11 -4 -20 -10 -20 -5 0 -10 -11 -10 -25 0 -14 -4
-25 -10 -25 -5 0 -10 -9 -10 -20 0 -11 -4 -20 -10 -20 -5 0 -10 -9 -10 -20 0
-11 -4 -20 -10 -20 -5 0 -10 -9 -10 -20 0 -11 -4 -20 -8 -20 -5 0 -24 -27 -43
-60 -19 -33 -40 -60 -46 -60 -7 0 -13 -7 -13 -16 0 -9 -13 -29 -30 -44 -16
-15 -30 -33 -30 -39 0 -6 -4 -11 -10 -11 -5 0 -10 -6 -10 -13 0 -7 -9 -19 -20
-27 -11 -8 -20 -18 -20 -22 0 -5 -19 -28 -42 -52 -24 -24 -50 -53 -58 -65 -8
-11 -18 -21 -23 -21 -4 0 -19 -10 -32 -22 -13 -13 -53 -50 -89 -83 -37 -33
-82 -75 -101 -92 -19 -18 -37 -33 -40 -33 -4 0 -24 -18 -45 -40 -21 -22 -42
-40 -47 -40 -5 0 -15 -9 -23 -20 -8 -11 -18 -20 -22 -20 -5 0 -32 -22 -61 -50
-90 -86 -150 -140 -154 -140 -3 0 -22 -18 -43 -40 -21 -22 -43 -40 -49 -40 -6
0 -40 -28 -74 -62 -35 -35 -80 -76 -101 -93 -21 -16 -68 -58 -104 -92 -35 -35
-68 -63 -73 -63 -7 0 -67 -54 -182 -162 -15 -16 -31 -28 -33 -28 -3 0 -27 -23
-54 -50 -27 -28 -52 -50 -56 -49 -13 4 -44 -26 -44 -43 0 -10 38 -57 85 -103
47 -47 85 -89 85 -94 0 -5 18 -29 40 -53 22 -23 40 -48 40 -53 0 -6 9 -17 20
-25 11 -8 20 -20 20 -27 0 -7 5 -13 10 -13 6 0 10 -7 10 -15 0 -8 5 -15 10
-15 6 0 10 -7 10 -15 0 -8 5 -15 10 -15 6 0 10 -7 10 -15 0 -8 5 -15 10 -15 6
0 10 -9 10 -20 0 -11 5 -20 10 -20 6 0 10 -6 10 -14 0 -8 3 -16 8 -18 8 -3 92
-168 92 -181 0 -5 7 -15 15 -23 8 -9 15 -24 15 -35 0 -10 5 -19 10 -19 6 0 10
-7 10 -16 0 -23 43 -148 52 -152 5 -2 8 -21 8 -43 0 -21 5 -39 10 -39 6 0 10
-18 10 -40 0 -22 5 -40 10 -40 6 0 10 -22 10 -50 0 -27 4 -50 9 -50 30 0 30
-637 0 -648 -5 -2 -9 -26 -9 -53 0 -27 -4 -49 -10 -49 -5 0 -10 -22 -10 -50 0
-27 -4 -50 -10 -50 -5 0 -10 -15 -10 -34 0 -19 -3 -36 -8 -38 -4 -1 -23 -50
-42 -108 -19 -58 -40 -111 -47 -118 -7 -7 -13 -20 -13 -27 0 -8 -9 -30 -20
-50 -11 -20 -20 -42 -20 -50 0 -8 -4 -15 -10 -15 -5 0 -10 -9 -10 -20 0 -11
-4 -20 -10 -20 -5 0 -10 -9 -10 -20 0 -11 -4 -20 -10 -20 -5 0 -10 -9 -10 -20
0 -11 5 -20 10 -20 6 0 10 -5 10 -10 0 -6 8 -19 18 -30 10 -10 30 -43 46 -72
16 -29 31 -55 35 -58 17 -14 70 -189 71 -233 0 -31 20 -57 44 -57 9 0 16 -4
16 -10 0 -5 14 -10 30 -10 17 0 30 -4 30 -10 0 -5 18 -10 40 -10 22 0 40 -4
40 -10 0 -5 14 -10 30 -10 17 0 30 -4 30 -10 0 -5 5 -10 10 -10 11 0 60 -45
60 -55 0 -3 18 -24 40 -46 22 -23 40 -45 40 -50 0 -5 33 -43 73 -84 104 -107
137 -144 137 -150 0 -3 25 -30 55 -60 30 -30 62 -67 72 -82 17 -26 92 -110
156 -175 15 -15 27 -30 27 -33 0 -3 24 -29 53 -58 28 -29 63 -68 77 -86 14
-18 55 -64 93 -103 37 -38 67 -74 67 -80 0 -5 24 -32 52 -60 31 -30 48 -53 40
-56 -6 -2 -12 -17 -12 -32 0 -16 -4 -32 -10 -35 -5 -3 -10 -17 -10 -31 0 -13
-4 -24 -10 -24 -5 0 -10 -16 -10 -35 0 -19 -4 -35 -10 -35 -5 0 -10 -13 -10
-30 0 -16 -4 -30 -10 -30 -5 0 -10 -13 -10 -30 0 -16 -4 -30 -10 -30 -5 0 -10
-13 -10 -30 0 -16 -3 -30 -7 -30 -5 0 -19 -35 -32 -78 -49 -160 -62 -193 -81
-212 -3 -3 -11 -17 -19 -32 -8 -15 -22 -30 -31 -33 -10 -3 -28 -14 -40 -25
-29 -25 -134 -29 -144 -5 -3 8 -12 15 -21 15 -8 0 -15 5 -15 10 0 6 -5 10 -11
10 -13 0 -129 78 -150 102 -9 10 -22 18 -29 18 -13 0 -73 61 -144 144 -22 27
-56 65 -73 83 -18 19 -33 39 -33 44 0 5 -4 9 -10 9 -5 0 -10 6 -10 13 0 7 -9
19 -20 27 -11 8 -20 21 -20 30 0 9 -9 22 -20 30 -11 8 -20 20 -20 27 0 7 -4
13 -10 13 -5 0 -10 6 -10 13 0 7 -8 22 -17 33 -10 11 -24 30 -30 42 -7 12 -19
32 -25 44 -14 23 -26 41 -44 61 -5 7 -21 32 -35 57 -13 25 -27 47 -31 48 -5 2
-8 10 -8 18 0 8 -4 14 -10 14 -5 0 -10 9 -10 20 0 11 -4 20 -10 20 -5 0 -10 7
-10 15 0 8 -4 15 -10 15 -5 0 -10 7 -10 15 0 8 -4 15 -10 15 -5 0 -10 9 -10
20 0 11 -4 20 -10 20 -5 0 -10 9 -10 20 0 11 -4 20 -8 20 -4 0 -19 22 -33 50
-13 27 -27 50 -31 50 -5 0 -8 7 -8 15 0 14 -26 62 -40 75 -3 3 -17 26 -30 52
-14 27 -28 48 -32 48 -5 0 -8 9 -8 20 0 11 -4 20 -10 20 -5 0 -10 9 -10 20 0
11 -4 20 -10 20 -5 0 -10 9 -10 20 0 11 -4 20 -10 20 -5 0 -10 7 -10 15 0 8
-4 15 -10 15 -5 0 -10 9 -10 20 0 11 -4 20 -10 20 -5 0 -10 9 -10 20 0 11 -4
20 -10 20 -5 0 -10 9 -10 20 0 11 -4 20 -9 20 -5 0 -14 13 -21 30 -7 16 -16
30 -21 30 -5 0 -9 9 -9 20 0 11 -3 20 -8 20 -4 0 -12 9 -17 19 -44 86 -70 131
-77 131 -4 0 -8 9 -8 20 0 11 -4 20 -10 20 -5 0 -10 7 -10 16 0 22 -32 53 -38
36 -2 -6 -9 -12 -16 -12 -6 0 -18 -9 -26 -20 -8 -11 -20 -20 -27 -20 -7 0 -13
-4 -13 -10 0 -5 -6 -10 -13 -10 -7 0 -19 -9 -27 -20 -8 -11 -20 -20 -28 -20
-7 0 -24 -11 -37 -24 -13 -14 -34 -27 -45 -31 -11 -3 -20 -11 -20 -16 0 -5 -9
-9 -20 -9 -11 0 -20 -6 -20 -13 0 -7 -25 -23 -55 -37 -30 -14 -55 -28 -55 -32
0 -5 -7 -8 -15 -8 -8 0 -15 -4 -15 -10 0 -5 -9 -10 -20 -10 -11 0 -20 -4 -20
-10 0 -5 -9 -10 -20 -10 -11 0 -20 -4 -20 -10 0 -5 -11 -10 -25 -10 -14 0 -25
-4 -25 -10 0 -5 -9 -10 -20 -10 -11 0 -20 -4 -20 -10 0 -5 -9 -10 -19 -10 -11
0 -23 -5 -26 -10 -3 -5 -17 -10 -31 -10 -13 0 -24 -4 -24 -10 0 -5 -11 -10
-25 -10 -14 0 -25 -4 -25 -10 0 -5 -11 -10 -24 -10 -14 0 -27 -4 -30 -9 -3 -5
-20 -11 -38 -14 -53 -9 -111 -23 -138 -35 -51 -21 -307 -52 -434 -52 -146 0
-459 41 -472 61 -3 5 -20 9 -39 9 -19 0 -37 4 -40 10 -3 6 -15 10 -26 10 -27
0 -99 23 -99 32 0 5 -13 8 -30 8 -16 0 -30 5 -30 10 0 6 -11 10 -24 10 -14 0
-28 5 -31 10 -3 6 -17 10 -31 10 -13 0 -24 5 -24 10 0 6 -9 10 -20 10 -11 0
-20 5 -20 10 0 6 -9 10 -20 10 -11 0 -20 5 -20 10 0 6 -9 10 -20 10 -11 0 -20
5 -20 10 0 6 -11 10 -25 10 -14 0 -25 5 -25 10 0 6 -9 10 -20 10 -11 0 -20 3
-20 8 0 4 -15 14 -32 21 -31 13 -117 68 -145 91 -7 5 -18 10 -25 10 -8 0 -20
9 -28 20 -8 11 -20 20 -28 20 -7 0 -22 9 -34 20 -12 11 -28 20 -35 20 -7 0
-13 5 -13 10 0 6 -6 10 -13 10 -7 0 -19 9 -27 20 -8 11 -20 20 -27 20 -7 0
-13 5 -13 10 0 6 -9 10 -20 10 -24 0 -70 -42 -70 -65 0 -8 -7 -15 -15 -15 -8
0 -15 -3 -15 -8 0 -4 -19 -28 -42 -52 -24 -25 -59 -65 -78 -89 -19 -24 -54
-63 -77 -87 -24 -24 -43 -48 -43 -53 0 -5 -26 -36 -57 -68 -62 -63 -133 -143
-133 -150 0 -3 -18 -22 -40 -43 -22 -21 -40 -43 -40 -49 0 -6 -4 -11 -10 -11
-5 0 -10 -7 -10 -16 0 -8 -4 -12 -10 -9 -5 3 -10 2 -10 -3 0 -5 -19 -29 -41
-53 -23 -24 -53 -60 -68 -79 -14 -19 -52 -61 -83 -92 -32 -31 -58 -62 -58 -67
0 -6 -22 -33 -48 -60 -27 -27 -59 -64 -73 -81 -13 -18 -52 -61 -87 -96 -34
-35 -62 -69 -62 -75 0 -14 -26 -39 -34 -32 -3 4 -6 -1 -6 -10 0 -9 -4 -17 -10
-17 -5 0 -10 -4 -10 -10 0 -10 -23 -35 -145 -162 -36 -37 -65 -72 -65 -76 0
-5 -13 -23 -30 -40 -16 -18 -30 -37 -30 -42 0 -6 -4 -8 -10 -5 -5 3 -10 1 -10
-5 0 -14 -25 -40 -39 -40 -6 0 -11 -6 -12 -12 0 -9 -2 -8 -6 1 -3 8 -44 52
-90 97 l-84 84 18 27 c10 16 39 50 65 76 27 26 48 52 48 56 0 5 22 32 50 60
28 28 50 56 50 61 0 6 5 10 10 10 6 0 10 4 10 10 0 5 12 23 27 39 16 16 39 44
53 61 14 17 44 52 67 77 24 24 43 48 43 52 0 3 9 13 20 21 11 8 20 19 20 25 0
6 9 17 20 25 11 8 20 18 20 22 0 8 18 29 106 122 23 25 43 48 45 54 6 13 68
89 107 128 17 18 32 38 32 44 0 6 24 34 52 63 29 29 67 70 83 92 17 21 45 53
63 71 17 18 32 38 32 44 0 6 23 33 50 60 28 27 50 56 50 64 0 9 7 16 15 16 8
0 15 3 15 8 0 4 22 32 50 62 27 30 49 59 50 63 0 5 23 30 50 57 28 27 50 54
50 60 0 6 18 29 40 50 22 21 40 41 40 45 0 3 10 16 23 29 66 68 85 106 52 106
-8 0 -15 6 -15 14 0 19 -42 96 -52 96 -4 0 -8 9 -8 20 0 11 -4 20 -10 20 -5 0
-10 9 -10 20 0 11 -4 20 -10 20 -5 0 -10 9 -10 20 0 11 -4 20 -10 20 -5 0 -10
9 -10 20 0 11 -4 20 -8 20 -5 0 -15 23 -22 50 -7 28 -17 50 -22 50 -4 0 -8 7
-8 15 0 8 -8 29 -18 47 -10 18 -29 67 -42 108 -13 41 -28 77 -32 80 -4 3 -11
23 -17 45 -5 22 -15 58 -21 80 -21 75 -32 120 -37 158 -3 20 -9 37 -14 37 -5
0 -9 29 -9 65 0 37 -4 65 -10 65 -6 0 -10 95 -10 265 0 170 4 265 10 265 6 0
10 27 10 60 0 33 4 60 10 60 6 0 10 10 10 22 0 12 4 35 9 52 34 114 54 175 65
201 8 17 23 51 35 78 11 26 21 54 21 62 0 8 5 15 10 15 6 0 10 9 10 20 0 11 5
20 10 20 6 0 10 9 10 20 0 11 5 20 10 20 6 0 10 8 10 18 0 10 9 28 20 40 11
12 20 28 20 37 0 8 5 15 10 15 6 0 10 9 10 20 0 11 5 20 10 20 6 0 10 7 10 15
0 9 11 27 24 40 14 13 27 34 31 45 3 11 10 20 15 20 5 0 11 8 14 18 3 9 19 33
36 52 16 19 30 39 30 43 0 5 14 22 30 37 17 15 30 33 30 40 0 6 18 29 40 50
22 21 40 41 40 45 0 3 12 18 28 33 51 52 132 144 132 151 -1 3 -32 35 -70 71
-54 50 -198 192 -277 273 -127 128 -687 676 -702 687 -11 8 -21 18 -21 22 0 9
-86 98 -95 98 -3 0 -38 33 -79 73 -41 39 -120 115 -175 167 -55 52 -100 98
-100 102 -1 4 -22 27 -47 50 -26 24 -181 176 -345 338 -164 162 -312 306 -328
320 -17 14 -31 31 -31 38 0 6 -4 12 -10 12 -5 0 -10 9 -10 20 0 11 5 20 10 20
6 0 10 7 10 15 0 21 45 65 65 65 9 0 13 -4 10 -10 -3 -5 -1 -10 5 -10 6 0 30
-19 54 -42 23 -24 64 -61 91 -83 27 -22 68 -59 92 -82 23 -24 47 -43 53 -43 6
0 34 -24 64 -52 29 -29 72 -68 94 -86 23 -18 64 -55 92 -83 27 -27 55 -49 61
-49 6 0 32 -22 59 -50 27 -27 51 -50 54 -50 7 0 64 -51 132 -117 29 -29 58
-53 64 -53 6 0 33 -22 60 -50 27 -27 51 -50 55 -50 3 0 16 -9 28 -20 65 -60
90 -80 98 -80 5 0 9 -6 9 -12 0 -7 17 -24 38 -38 20 -14 54 -42 74 -62 20 -21
39 -38 43 -38 4 0 20 -13 35 -30 15 -16 33 -30 40 -30 14 0 40 -25 40 -39 0
-6 4 -11 9 -11 9 0 26 -15 138 -120 24 -22 45 -40 49 -40 3 0 19 -13 34 -30
15 -16 33 -30 39 -30 6 0 40 -28 76 -62 102 -99 134 -128 140 -128 4 0 24 -18
45 -40 21 -22 43 -40 49 -40 6 0 40 -28 74 -62 35 -35 80 -76 102 -93 21 -16
58 -49 81 -72 24 -24 48 -43 54 -43 6 0 33 -22 60 -50 27 -27 53 -50 59 -50 6
0 11 -4 11 -10 0 -5 11 -16 23 -25 22 -14 29 -14 78 2 30 9 56 21 57 25 2 4
12 8 23 8 10 0 19 5 19 10 0 6 16 10 35 10 19 0 35 5 35 10 0 6 14 10 30 10
17 0 30 5 30 10 0 6 16 10 35 10 19 0 35 5 35 10 0 6 16 10 35 10 19 0 35 5
35 10 0 6 18 10 39 10 22 0 43 5 46 10 3 6 28 10 56 10 27 0 49 4 49 9 0 11
58 18 282 32 124 9 204 8 310 0 212 -17 252 -22 263 -32 5 -5 28 -9 52 -9 24
0 43 -4 43 -10 0 -5 18 -10 40 -10 22 0 40 -4 40 -10 0 -5 14 -10 30 -10 17 0
30 -4 30 -10 0 -5 14 -10 30 -10 17 0 30 -4 30 -10 0 -5 14 -10 30 -10 17 0
30 -4 30 -10 0 -5 11 -10 25 -10 14 0 25 -4 25 -10 0 -5 9 -10 20 -10 11 0 20
-4 20 -10 0 -5 7 -10 16 -10 20 0 268 -129 272 -141 2 -5 10 -9 18 -9 8 0 24
-9 35 -19 20 -18 22 -18 40 -3 38 32 119 112 119 117 0 7 128 135 136 135 3 0
23 18 44 40 21 22 43 40 49 40 6 0 11 4 11 10 0 5 16 20 35 32 19 13 35 29 35
36 0 6 4 12 9 12 13 0 71 56 71 69 0 6 7 11 16 11 9 0 29 14 44 30 15 17 31
30 34 30 3 0 20 14 38 30 17 17 35 30 40 30 5 0 28 19 52 43 25 23 61 56 81
72 21 17 48 40 61 53 13 12 28 22 34 22 5 0 10 5 10 10 0 6 5 10 11 10 6 0 28
18 49 40 21 22 43 40 49 40 6 0 35 24 65 53 29 28 66 61 82 72 15 11 56 48 91
83 34 34 68 62 74 62 14 0 39 25 39 39 0 6 4 11 10 11 11 0 118 107 152 152
13 17 47 54 76 84 28 29 52 59 52 67 0 7 9 19 20 27 11 8 20 18 20 23 0 5 8
21 19 35 31 44 103 191 113 230 24 92 31 144 30 237 0 114 -10 195 -23 195 -5
0 -9 10 -9 23 0 24 -19 79 -38 114 -11 20 -9 26 24 55 21 18 42 38 48 44 8 8
15 8 28 0 10 -6 18 -14 18 -17z m-3040 -169 c0 -6 30 -10 70 -10 40 0 70 -4
70 -10 0 -5 14 -10 30 -10 17 0 30 -4 30 -10 0 -5 9 -10 20 -10 11 0 20 -4 20
-10 0 -5 8 -10 18 -10 10 0 24 -9 32 -20 20 -28 47 -25 80 10 28 30 50 39 50
20 0 -5 7 -10 15 -10 8 0 15 -7 15 -15 0 -9 9 -25 20 -37 19 -21 19 -21 -10
-48 -17 -16 -30 -33 -30 -39 0 -6 -6 -11 -12 -12 -10 0 -10 -2 0 -6 6 -2 12
-16 12 -29 0 -13 5 -24 10 -24 6 0 10 -9 10 -20 0 -11 5 -20 10 -20 6 0 10
-13 10 -29 0 -17 5 -33 10 -36 6 -3 10 -23 10 -44 0 -20 5 -42 11 -48 18 -18
-2 -363 -22 -363 -5 0 -9 -13 -9 -30 0 -16 -4 -30 -10 -30 -5 0 -10 -9 -10
-20 0 -11 -4 -20 -10 -20 -5 0 -10 -9 -10 -20 0 -11 -4 -20 -10 -20 -5 0 -10
-4 -10 -9 0 -35 -191 -181 -235 -181 -8 0 -15 -4 -15 -10 0 -5 -16 -10 -35
-10 -19 0 -35 -4 -35 -10 0 -6 -53 -10 -140 -10 -87 0 -140 4 -140 10 0 6 -13
10 -30 10 -16 0 -30 5 -30 10 0 6 -5 10 -12 10 -15 0 -108 70 -154 116 l-35
36 -18 -21 c-10 -12 -23 -21 -30 -21 -6 0 -11 -4 -11 -10 0 -5 -9 -14 -20 -20
-17 -9 -25 -6 -48 21 -43 51 -43 52 9 107 48 51 59 75 39 87 -5 3 -10 15 -10
26 0 10 -4 19 -10 19 -5 0 -10 15 -10 34 0 19 -4 38 -10 41 -6 4 -10 65 -10
150 0 85 4 146 10 150 6 3 10 26 10 51 0 24 4 44 8 44 4 0 13 20 21 44 7 24
21 53 32 65 10 11 19 25 19 31 0 15 134 150 148 150 7 0 12 5 12 10 0 6 9 10
20 10 11 0 20 5 20 10 0 6 11 10 25 10 14 0 25 5 25 10 0 6 33 10 80 10 47 0
80 4 80 10 0 6 16 10 35 10 19 0 35 -4 35 -10z m-1082 -251 c2 -5 12 -9 23 -9
10 0 19 -4 19 -10 0 -5 7 -10 15 -10 9 0 31 -16 50 -35 19 -19 35 -41 35 -50
0 -8 5 -15 10 -15 6 0 10 -9 10 -20 0 -11 5 -20 10 -20 6 0 10 -13 10 -29 0
-17 5 -33 10 -36 6 -3 10 -49 10 -101 0 -86 -3 -102 -30 -158 -17 -35 -39 -72
-50 -84 -11 -12 -20 -26 -20 -32 0 -5 -4 -10 -10 -10 -5 0 -10 -11 -10 -25 0
-16 6 -25 16 -25 9 0 28 -12 42 -27 15 -16 50 -46 77 -68 28 -22 56 -45 63
-52 7 -7 17 -13 22 -13 5 0 25 -16 44 -35 20 -19 40 -35 47 -35 6 0 24 -13 39
-30 15 -16 33 -30 39 -30 6 0 11 -4 11 -10 0 -5 -11 -10 -25 -10 -14 0 -25 -4
-25 -10 0 -5 -13 -10 -30 -10 -16 0 -30 -4 -30 -10 0 -5 -13 -10 -30 -10 -16
0 -30 -4 -30 -10 0 -5 -13 -10 -30 -10 -16 0 -30 -4 -30 -10 0 -14 -49 -12
-65 3 -27 26 -56 47 -63 47 -4 0 -14 9 -22 20 -8 11 -18 20 -22 20 -5 0 -23
13 -41 30 -73 67 -103 92 -129 108 -16 9 -28 20 -28 24 0 4 -9 8 -19 8 -11 0
-23 5 -26 10 -7 12 -85 14 -85 2 0 -4 -22 -19 -50 -33 -27 -13 -50 -30 -50
-37 0 -22 25 -92 32 -92 5 0 8 -9 8 -20 0 -11 5 -20 10 -20 6 0 10 -13 10 -30
0 -16 5 -30 10 -30 6 0 10 -11 10 -25 0 -14 5 -25 10 -25 6 0 10 -13 10 -30 0
-16 5 -30 10 -30 6 0 10 -9 10 -19 0 -11 5 -23 10 -26 6 -3 10 -22 10 -41 0
-31 -2 -34 -30 -34 -16 0 -30 -4 -30 -10 0 -5 -9 -10 -20 -10 -11 0 -20 -4
-20 -10 0 -5 -11 -10 -25 -10 -14 0 -25 -4 -25 -10 0 -5 -11 -10 -25 -10 -14
0 -25 -4 -25 -10 0 -5 -9 -10 -19 -10 -15 0 -24 13 -38 60 -9 33 -21 60 -25
60 -4 0 -8 11 -8 24 0 14 -4 28 -10 31 -5 3 -10 15 -10 26 0 10 -4 19 -10 19
-5 0 -10 11 -10 25 0 14 -4 25 -10 25 -5 0 -10 14 -10 30 0 17 -4 30 -10 30
-5 0 -10 9 -10 20 0 11 -4 20 -10 20 -5 0 -10 14 -10 30 0 17 -4 30 -10 30 -5
0 -10 9 -10 19 0 11 -4 23 -10 26 -5 3 -10 17 -10 30 0 13 -4 27 -10 30 -5 3
-10 15 -10 26 0 10 -3 19 -8 19 -4 0 -18 36 -32 80 -14 44 -28 80 -32 80 -5 0
-8 8 -8 18 0 10 -6 26 -13 37 -8 11 -20 41 -28 68 -7 26 -17 47 -21 47 -4 0
-8 9 -8 20 0 11 -4 20 -10 20 -5 0 -10 14 -10 30 0 17 -4 30 -10 30 -5 0 -10
11 -10 25 0 14 -4 25 -10 25 -5 0 -10 11 -10 25 0 18 5 25 20 25 11 0 20 5 20
10 0 6 9 10 20 10 11 0 28 4 38 9 9 5 33 15 52 24 19 8 56 24 83 36 26 11 54
21 62 21 8 0 15 5 15 10 0 6 11 10 25 10 14 0 25 5 25 10 0 6 11 10 25 10 14
0 25 5 25 10 0 6 11 10 25 10 14 0 25 5 25 10 0 6 14 10 30 10 17 0 30 5 30
10 0 6 9 10 20 10 11 0 20 5 20 10 0 6 14 10 30 10 17 0 30 4 30 10 0 18 241
17 248 -1z m2382 -59 c0 -5 9 -10 20 -10 11 0 20 -4 20 -10 0 -5 9 -10 20 -10
11 0 20 -4 20 -10 0 -5 9 -10 20 -10 11 0 20 -4 20 -10 0 -5 6 -10 13 -10 7 0
26 -6 41 -12 l28 -13 -6 -240 c-6 -272 -21 -681 -32 -892 -6 -128 -9 -143 -25
-143 -10 0 -21 5 -24 10 -3 6 -17 10 -31 10 -13 0 -24 5 -24 10 0 6 -9 10 -20
10 -11 0 -20 5 -20 10 0 6 -12 10 -26 10 -48 0 -54 18 -54 155 0 130 -7 155
-44 155 -8 0 -18 5 -21 10 -3 6 -15 10 -26 10 -10 0 -19 5 -19 10 0 6 -9 10
-20 10 -11 0 -20 5 -20 10 0 6 -13 10 -30 10 -16 0 -30 5 -30 10 0 6 -9 10
-20 10 -11 0 -20 5 -20 10 0 6 -11 10 -25 10 -14 0 -25 5 -25 10 0 6 -11 10
-25 10 -14 0 -25 3 -25 8 0 9 -49 32 -67 32 -12 0 -123 -103 -123 -114 0 -3
-14 -20 -31 -37 -27 -27 -34 -30 -50 -21 -10 7 -26 12 -34 12 -8 0 -15 5 -15
10 0 6 -11 10 -24 10 -14 0 -28 5 -31 10 -3 6 -15 10 -26 10 -10 0 -19 5 -19
10 0 6 -7 10 -16 10 -8 0 -22 6 -30 14 -12 12 3 32 111 141 69 69 125 132 125
140 0 8 8 15 17 15 9 0 14 3 11 6 -3 3 54 66 128 139 74 74 134 139 134 144 0
6 70 80 155 166 85 85 155 162 155 170 0 8 9 15 20 15 11 0 20 -4 20 -10z
m1490 -3539 c0 -655 2 -729 16 -735 9 -3 139 -6 290 -6 l274 0 0 -180 0 -180
-505 0 -505 0 0 915 0 915 215 0 215 0 0 -729z m-5610 -211 l0 -920 -215 0
-215 0 0 920 0 920 215 0 215 0 0 -920z m598 -2732 c2 -4 12 -8 23 -8 12 0 19
-7 19 -20 0 -11 -4 -20 -10 -20 -5 0 -10 -9 -10 -20 0 -11 -4 -20 -10 -20 -5
0 -10 -9 -10 -20 0 -11 -4 -20 -10 -20 -5 0 -10 -9 -10 -20 0 -11 -4 -20 -10
-20 -5 0 -10 -11 -10 -24 0 -13 -3 -26 -7 -28 -8 -3 -37 -62 -68 -135 -10 -24
-22 -43 -27 -43 -4 0 -8 -7 -8 -15 0 -8 -9 -30 -20 -50 -11 -20 -20 -42 -20
-50 0 -8 -4 -15 -10 -15 -5 0 -10 -9 -10 -20 0 -11 -4 -20 -10 -20 -5 0 -10
-9 -10 -20 0 -24 -25 -26 -47 -5 -8 9 -28 19 -44 22 -27 5 -41 23 -19 23 6 0
10 11 10 25 0 14 5 25 10 25 6 0 10 9 10 20 0 11 5 20 10 20 6 0 10 11 10 24
0 13 3 26 8 28 10 4 72 135 72 153 0 8 4 15 8 15 13 0 43 76 36 94 -3 9 -14
16 -24 16 -11 0 -22 5 -25 10 -3 6 -15 10 -26 10 -10 0 -19 5 -19 10 0 6 -7
10 -15 10 -8 0 -15 9 -15 20 0 11 5 20 10 20 6 0 10 9 10 20 0 13 7 20 20 20
11 0 20 -4 20 -10 0 -6 30 -10 71 -10 69 0 99 12 99 39 0 13 53 3 58 -11z
m4010 -124 c31 -6 132 -93 132 -113 0 -6 5 -11 10 -11 6 0 10 -7 10 -15 0 -8
5 -15 10 -15 6 0 10 -9 10 -20 0 -11 5 -20 10 -20 6 0 10 -9 10 -20 0 -11 5
-20 10 -20 6 0 10 -13 10 -29 0 -17 5 -33 10 -36 6 -3 10 -46 10 -96 0 -53 -4
-89 -10 -89 -5 0 -10 -7 -10 -15 0 -20 -45 -65 -65 -65 -8 0 -15 -4 -15 -10 0
-5 -9 -10 -19 -10 -11 0 -21 -5 -23 -11 -3 -8 -34 -12 -90 -12 -67 0 -90 4
-103 17 -9 9 -20 16 -24 16 -14 0 -51 37 -51 51 0 8 -9 21 -20 29 -11 8 -20
22 -20 32 0 10 -4 18 -10 18 -5 0 -10 9 -10 20 0 11 -4 20 -10 20 -5 0 -10 11
-10 25 0 14 -4 25 -10 25 -5 0 -10 11 -10 24 0 14 -4 28 -10 31 -5 3 -10 42
-10 86 0 46 4 79 10 79 6 0 10 7 10 16 0 16 55 74 70 74 5 0 16 7 25 16 28 28
116 41 183 28z m-3578 -56 c0 -9 -4 -20 -10 -23 -5 -3 -10 -19 -10 -35 0 -16
-4 -32 -10 -35 -5 -3 -10 -19 -10 -36 0 -16 -4 -29 -10 -29 -5 0 -10 -13 -10
-30 0 -16 -4 -30 -10 -30 -5 0 -10 -13 -10 -30 0 -16 -4 -30 -10 -30 -5 0 -10
-13 -10 -30 0 -16 -4 -30 -10 -30 -5 0 -10 -13 -10 -30 0 -16 -4 -30 -10 -30
-5 0 -10 -16 -10 -35 0 -19 -4 -35 -10 -35 -5 0 -10 -13 -10 -30 0 -16 -4 -30
-10 -30 -5 0 -10 -13 -10 -29 0 -37 -21 -43 -82 -23 -45 14 -47 16 -41 46 3
17 10 35 14 40 5 6 9 23 9 38 0 15 5 28 10 28 6 0 10 14 10 30 0 17 5 30 10
30 6 0 10 14 10 30 0 17 5 30 10 30 6 0 10 14 10 30 0 17 5 30 10 30 6 0 10
16 10 35 0 19 5 35 10 35 14 0 12 29 -2 44 -7 6 -39 20 -70 30 -35 11 -58 24
-58 32 0 8 5 14 10 14 6 0 10 11 10 24 0 22 2 23 52 15 59 -10 96 -3 118 21 8
9 26 23 39 32 21 15 26 15 57 0 18 -9 34 -25 34 -34z m2960 -148 c0 -5 7 -10
15 -10 8 0 15 -4 15 -10 0 -5 6 -10 14 -10 8 0 18 -9 21 -20 3 -11 10 -20 15
-20 5 0 14 -16 21 -35 7 -19 17 -35 21 -35 4 0 8 -13 8 -30 0 -16 5 -30 10
-30 6 0 10 -13 10 -30 0 -16 5 -30 10 -30 6 0 10 -43 10 -110 0 -67 -4 -110
-10 -110 -5 0 -10 -9 -10 -20 0 -22 -41 -70 -60 -70 -5 0 -10 -4 -10 -10 0 -5
-9 -10 -20 -10 -11 0 -20 -4 -20 -10 0 -6 -40 -10 -100 -10 -60 0 -100 4 -100
10 0 6 -7 10 -16 10 -18 0 -44 23 -44 39 0 6 -4 11 -10 11 -5 0 -10 7 -10 15
0 8 -4 15 -10 15 -5 0 -10 8 -10 18 0 10 -4 22 -8 28 -5 5 -14 29 -21 54 -8
25 -17 58 -22 74 -5 16 -9 67 -9 115 0 78 3 89 32 138 20 32 39 53 50 53 10 0
18 5 18 10 0 6 9 10 20 10 11 0 20 5 20 10 0 6 37 10 90 10 53 0 90 -4 90 -10z
m-2305 -46 c12 -17 8 -46 -20 -149 -8 -27 -17 -68 -19 -90 -5 -40 -15 -94 -36
-190 -6 -27 -13 -74 -17 -102 -3 -29 -9 -53 -14 -53 -5 0 -9 -13 -9 -30 0 -30
-21 -42 -35 -20 -3 6 -24 10 -46 10 -38 0 -39 1 -37 30 1 17 6 30 10 30 4 0 8
23 8 50 0 28 5 50 10 50 6 0 10 23 10 50 0 28 4 50 9 50 5 0 11 19 14 43 3 23
9 65 12 92 l7 50 -41 13 c-22 6 -54 12 -71 12 -27 0 -30 3 -30 33 0 47 15 57
86 57 56 0 64 3 93 32 17 17 31 35 31 40 0 15 73 8 85 -8z m409 -60 c34 -6 47
-26 26 -39 -5 -3 -10 -35 -10 -71 0 -36 -4 -64 -10 -64 -6 0 -10 -33 -10 -80
0 -47 -4 -80 -10 -80 -6 0 -10 -32 -10 -75 0 -43 -4 -75 -10 -75 -6 0 -10 -29
-10 -66 0 -43 -5 -70 -14 -80 -18 -17 -90 -19 -103 -1 -6 7 -6 42 -2 87 5 41
11 105 15 143 4 37 11 70 15 73 10 6 12 114 3 138 -5 12 -21 16 -74 16 l-69 0
6 38 c3 20 7 39 10 41 2 3 26 4 53 2 30 -1 50 2 50 9 0 5 8 10 18 10 21 0 40
20 62 63 7 15 19 26 26 23 7 -3 29 -8 48 -12z m1236 6 c0 -5 7 -10 15 -10 19
0 84 -70 85 -92 0 -9 5 -18 12 -20 36 -12 35 -354 -1 -366 -6 -2 -11 -10 -11
-18 0 -25 -67 -84 -95 -84 -14 0 -25 -4 -25 -10 0 -6 -30 -10 -69 -10 -39 0
-73 5 -76 10 -3 6 -15 10 -26 10 -24 0 -61 35 -83 78 -9 17 -16 33 -16 37 0 3
28 5 63 5 51 0 65 -4 77 -20 8 -11 22 -20 31 -20 10 0 20 -6 23 -12 5 -10 7
-10 12 0 3 6 15 12 26 12 35 0 78 65 78 120 0 29 -1 30 -22 18 -34 -19 -200
-17 -220 2 -8 8 -27 24 -41 35 -15 11 -27 27 -27 37 0 9 -4 20 -10 23 -5 3
-10 39 -10 79 0 63 4 79 26 112 26 38 46 56 89 81 25 14 195 17 195 3z m-517
-107 c11 -169 27 -350 37 -393 5 -25 9 -73 10 -107 0 -67 2 -65 -72 -77 -46
-8 -46 -7 -59 161 -5 70 -12 163 -16 207 l-6 78 -78 -4 -79 -5 0 44 0 43 40 0
c22 0 40 5 40 10 0 6 7 10 16 10 20 0 44 24 44 44 0 9 5 16 10 16 6 0 10 9 10
19 0 16 8 21 43 24 23 2 45 4 49 5 3 1 9 -33 11 -75z m-1575 22 c52 -59 13
-155 -63 -155 -19 0 -35 5 -35 10 0 6 -9 10 -20 10 -13 0 -20 7 -20 20 0 11
-4 20 -10 20 -14 0 -12 46 3 72 23 42 32 47 78 48 36 0 50 -5 67 -25z m1158
-242 c37 -44 24 -143 -18 -143 -10 0 -18 -4 -18 -10 0 -5 -13 -10 -30 -10 -16
0 -30 5 -30 10 0 6 -8 10 -17 10 -43 0 -56 99 -20 142 18 22 30 28 66 28 35 0
48 -5 67 -27z"/>
<path d="M6103 7934 c-3 -9 -3 -96 1 -193 4 -97 12 -372 16 -611 25 -1163 30
-1379 39 -1557 6 -106 8 -199 5 -208 -4 -9 -18 -15 -37 -15 -16 0 -54 -7 -82
-16 -30 -10 -64 -14 -79 -10 -23 6 -26 12 -26 46 0 22 -4 40 -9 40 -5 0 -11
15 -14 33 -3 17 -11 52 -17 77 -6 25 -14 60 -17 78 -3 18 -9 35 -14 38 -5 3
-9 20 -9 39 0 19 -4 36 -9 39 -5 3 -11 20 -14 38 -6 37 -40 166 -56 213 -5 17
-15 49 -20 73 -28 108 -33 129 -42 158 -5 17 -9 40 -9 52 0 12 -4 22 -10 22
-5 0 -10 16 -10 35 0 19 -4 35 -10 35 -5 0 -10 18 -10 40 0 22 -4 40 -10 40
-5 0 -10 18 -10 40 0 22 -4 40 -10 40 -5 0 -10 15 -10 34 0 19 -4 38 -10 41
-5 3 -10 22 -10 41 0 19 -4 34 -10 34 -5 0 -10 18 -10 40 0 22 -4 40 -10 40
-5 0 -10 18 -10 40 0 22 -4 40 -9 40 -6 0 -11 15 -13 33 -3 30 -5 32 -43 31
-22 -1 -56 -6 -75 -12 -19 -6 -55 -16 -80 -23 -72 -19 -76 -26 -51 -103 11
-36 21 -74 21 -86 0 -11 5 -20 10 -20 6 0 10 -18 10 -40 0 -22 5 -40 10 -40 6
0 10 -16 10 -35 0 -19 5 -35 10 -35 6 0 10 -18 10 -40 0 -22 5 -40 10 -40 6 0
10 -18 10 -40 0 -22 5 -40 10 -40 6 0 10 -13 10 -29 0 -17 5 -33 10 -36 6 -3
10 -16 10 -27 0 -12 4 -35 9 -52 6 -17 17 -56 27 -86 9 -30 20 -71 24 -90 14
-60 48 -184 59 -215 6 -16 18 -59 27 -95 8 -36 20 -81 26 -100 5 -19 12 -50
15 -67 3 -18 9 -33 14 -33 5 0 9 -18 9 -40 0 -22 5 -40 10 -40 6 0 10 -16 10
-35 0 -19 5 -35 10 -35 6 0 10 -20 10 -45 0 -35 -6 -52 -25 -70 -13 -14 -31
-25 -40 -25 -8 0 -15 -4 -15 -10 0 -14 -29 -12 -44 3 -7 6 -23 32 -37 57 -13
25 -26 47 -29 50 -3 3 -23 33 -45 67 -22 35 -43 63 -47 63 -5 0 -8 8 -8 18 0
10 -9 24 -20 32 -11 8 -20 21 -20 30 0 9 -9 22 -20 30 -11 8 -20 22 -20 32 0
10 -4 18 -10 18 -5 0 -10 7 -10 15 0 8 -4 15 -10 15 -5 0 -10 6 -10 13 0 7 -8
22 -18 33 -10 10 -29 39 -42 64 -26 47 -29 51 -60 89 -11 13 -20 28 -20 32 0
4 -11 19 -25 33 -14 14 -25 32 -25 41 0 8 -4 15 -10 15 -5 0 -10 7 -10 15 0 8
-4 15 -10 15 -5 0 -10 8 -10 18 0 10 -9 24 -20 32 -11 8 -20 21 -20 30 0 9 -9
22 -20 30 -11 8 -20 22 -20 32 0 10 -4 18 -9 18 -5 0 -13 9 -16 20 -3 11 -12
26 -18 32 -20 21 -67 97 -67 108 0 5 -4 10 -9 10 -5 0 -13 9 -16 20 -4 11 -17
32 -31 45 -13 13 -24 29 -24 35 0 19 -33 47 -38 32 -2 -6 -12 -12 -23 -12 -10
0 -19 -4 -19 -10 0 -5 -7 -10 -15 -10 -8 0 -15 -4 -15 -10 0 -5 -7 -10 -15
-10 -8 0 -15 -4 -15 -10 0 -5 -7 -10 -15 -10 -8 0 -15 -3 -15 -8 0 -4 -13 -13
-30 -20 -28 -13 -43 -52 -20 -52 6 0 10 -6 10 -14 0 -8 3 -16 8 -18 4 -1 18
-23 31 -48 14 -25 30 -50 35 -57 31 -35 36 -43 36 -58 0 -8 4 -15 9 -15 5 0
14 -13 21 -30 7 -16 16 -30 21 -30 5 0 9 -7 9 -15 0 -8 5 -15 10 -15 6 0 10
-9 10 -20 0 -11 5 -20 10 -20 6 0 10 -7 10 -15 0 -8 5 -15 10 -15 6 0 10 -7
10 -15 0 -8 5 -15 10 -15 6 0 10 -8 10 -18 0 -10 9 -24 20 -32 11 -8 20 -22
20 -32 0 -10 5 -18 10 -18 6 0 10 -4 10 -10 0 -5 25 -47 55 -94 30 -46 55 -89
55 -95 0 -6 4 -11 9 -11 5 0 13 -9 16 -20 4 -11 17 -32 31 -45 13 -13 24 -31
24 -40 0 -8 5 -15 10 -15 6 0 10 -9 10 -20 0 -11 5 -20 10 -20 6 0 10 -7 10
-15 0 -8 4 -15 9 -15 5 0 11 -8 14 -17 7 -21 37 -72 54 -90 6 -7 15 -22 18
-33 3 -11 10 -20 14 -20 4 0 16 -18 26 -40 10 -22 21 -40 24 -40 3 0 17 -20
30 -45 31 -58 29 -62 -86 -190 -10 -11 -29 -36 -43 -55 -27 -38 -48 -65 -67
-85 -17 -18 -17 -45 0 -45 7 0 23 -9 35 -20 12 -11 26 -20 32 -20 5 0 10 -4
10 -10 0 -5 9 -10 20 -10 11 0 20 -4 20 -10 0 -5 7 -10 15 -10 8 0 15 -4 15
-10 0 -5 9 -10 20 -10 11 0 20 -4 20 -10 0 -5 7 -10 15 -10 8 0 15 -4 15 -10
0 -5 9 -10 20 -10 11 0 20 -4 20 -10 0 -5 9 -10 20 -10 11 0 20 -4 20 -10 0
-5 8 -10 19 -10 10 0 24 -7 31 -15 7 -8 21 -15 31 -15 10 0 21 -4 24 -10 3 -5
13 -10 21 -10 8 0 33 -8 57 -19 81 -35 98 -41 122 -41 14 0 25 -4 25 -10 0 -5
15 -10 34 -10 19 0 38 -4 41 -10 3 -5 24 -10 45 -10 21 0 42 -4 45 -10 3 -5
33 -10 66 -10 33 0 59 -4 59 -10 0 -6 93 -10 260 -10 167 0 260 4 260 10 0 6
29 10 66 10 41 0 63 4 59 10 -4 6 11 10 39 10 25 0 48 5 51 10 3 6 18 10 32
10 25 0 71 12 118 31 32 12 168 60 190 67 11 3 26 12 33 19 7 7 22 13 33 13
10 0 19 5 19 10 0 6 6 10 13 10 18 0 67 24 67 33 0 4 9 7 20 7 11 0 20 5 20
10 0 6 9 10 20 10 11 0 20 5 20 10 0 6 7 10 15 10 8 0 15 5 15 10 0 6 9 10 20
10 11 0 20 5 20 10 0 6 7 10 16 10 22 0 53 32 36 38 -6 2 -12 10 -12 18 0 8
-4 14 -10 14 -5 0 -10 9 -10 20 0 11 -4 20 -10 20 -5 0 -10 6 -10 13 0 7 -9
23 -20 35 -11 12 -20 28 -20 37 0 8 -4 15 -9 15 -5 0 -14 14 -21 30 -7 17 -16
30 -21 30 -5 0 -9 6 -9 13 0 6 -9 23 -20 37 -11 14 -20 37 -20 52 0 26 55 140
72 146 4 2 8 12 8 23 0 10 5 19 10 19 6 0 10 9 10 20 0 11 4 20 8 20 5 0 14
16 22 35 8 19 17 35 22 35 4 0 8 7 8 15 0 8 5 15 10 15 6 0 10 11 10 25 0 14
5 25 10 25 6 0 10 7 10 15 0 8 5 15 10 15 6 0 10 7 10 15 0 8 5 15 10 15 6 0
10 9 10 19 0 11 4 21 8 23 8 3 65 102 96 165 6 13 14 23 19 23 4 0 7 9 7 20 0
11 5 20 10 20 6 0 10 9 10 20 0 11 4 20 9 20 5 0 14 14 21 30 7 17 16 30 21
30 5 0 9 9 9 20 0 11 5 20 10 20 6 0 10 9 10 20 0 11 5 20 10 20 6 0 10 9 10
20 0 11 5 20 10 20 6 0 10 7 10 15 0 8 3 15 8 15 4 0 20 27 37 60 16 33 33 60
37 60 4 0 8 9 8 19 0 11 3 21 8 23 4 2 18 23 31 48 13 25 33 63 45 85 11 22
24 42 29 43 4 2 7 10 7 18 0 8 5 14 10 14 17 0 11 35 -7 48 -45 31 -115 72
-123 72 -5 0 -15 7 -23 15 -8 7 -26 17 -41 21 -20 5 -26 2 -26 -10 0 -9 -4
-16 -10 -16 -5 0 -10 -7 -10 -15 0 -8 -4 -15 -10 -15 -5 0 -10 -9 -10 -20 0
-11 -4 -20 -10 -20 -5 0 -10 -9 -10 -19 0 -11 -4 -21 -9 -23 -4 -1 -25 -34
-45 -73 -70 -131 -81 -150 -88 -153 -5 -2 -8 -12 -8 -23 0 -10 -3 -19 -8 -19
-4 0 -23 -30 -42 -67 -19 -38 -38 -69 -42 -71 -5 -2 -8 -12 -8 -23 0 -10 -4
-19 -10 -19 -5 0 -10 -7 -10 -15 0 -8 -4 -15 -10 -15 -5 0 -10 -9 -10 -19 0
-11 -4 -21 -9 -23 -5 -1 -25 -34 -45 -73 -69 -131 -101 -190 -106 -195 -3 -3
-17 -26 -30 -52 -14 -27 -28 -48 -32 -48 -5 0 -8 -9 -8 -20 0 -11 -4 -20 -10
-20 -5 0 -10 -9 -10 -20 0 -11 -4 -20 -10 -20 -5 0 -10 -9 -10 -20 0 -11 -4
-20 -10 -20 -5 0 -10 -7 -10 -15 0 -8 -4 -15 -10 -15 -5 0 -10 -9 -10 -20 0
-11 -4 -20 -8 -20 -5 0 -21 -27 -37 -60 -19 -41 -34 -60 -47 -60 -10 0 -18 5
-18 10 0 6 -13 10 -30 10 -16 0 -30 5 -30 10 0 6 -7 10 -16 10 -38 0 -56 57
-35 112 5 13 14 48 20 78 12 54 15 68 45 185 8 33 20 83 26 110 6 28 15 66 20
85 5 19 14 62 20 95 7 33 16 68 21 77 5 10 9 34 9 53 0 19 4 35 9 35 5 0 12
19 15 43 14 103 19 127 27 127 5 0 9 20 9 45 0 25 5 45 10 45 6 0 10 20 10 45
0 25 5 45 10 45 6 0 10 18 10 40 0 22 5 40 10 40 6 0 10 20 10 45 0 25 5 45
10 45 6 0 10 14 10 32 0 17 4 45 9 62 5 17 15 51 21 76 6 25 17 64 24 87 22
70 18 71 -195 89 l-65 6 -13 -59 c-7 -32 -17 -67 -21 -78 -9 -20 -16 -58 -27
-128 -3 -20 -9 -40 -14 -43 -5 -3 -9 -23 -9 -44 0 -21 -4 -42 -10 -45 -5 -3
-10 -24 -10 -46 0 -21 -4 -39 -10 -39 -5 0 -10 -18 -10 -40 0 -22 -4 -40 -10
-40 -5 0 -10 -20 -10 -45 0 -25 -4 -45 -10 -45 -5 0 -10 -20 -10 -45 0 -25 -4
-45 -9 -45 -5 0 -11 -17 -14 -37 -3 -21 -10 -57 -16 -80 -11 -43 -20 -80 -40
-163 -6 -25 -18 -74 -26 -110 -24 -98 -32 -132 -40 -170 -4 -19 -10 -44 -15
-55 -9 -20 -16 -57 -27 -128 -3 -20 -9 -40 -14 -43 -5 -3 -9 -22 -9 -44 0 -48
-11 -53 -115 -44 l-82 7 -7 301 c-11 449 -25 1249 -32 1791 -4 264 -10 490
-15 503 -8 21 -13 22 -134 22 -107 0 -127 -2 -132 -16z"/>
<path d="M6255 10018 c-22 -11 -41 -25 -43 -29 -2 -5 -8 -9 -14 -9 -5 0 -22
-13 -37 -29 -24 -25 -34 -45 -72 -136 -23 -57 -18 -244 8 -252 6 -2 36 21 67
52 31 30 59 56 63 58 5 1 7 5 6 10 -2 4 4 7 13 7 8 0 37 23 64 50 27 28 51 50
55 50 6 0 24 17 134 121 l63 60 -27 23 c-37 32 -90 46 -171 46 -50 -1 -80 -7
-109 -22z"/>
<path d="M6564 9814 c-38 -36 -98 -91 -133 -122 -35 -32 -94 -86 -131 -122
-37 -36 -86 -81 -109 -101 l-41 -37 40 -41 c22 -23 44 -41 49 -41 5 0 16 -6
23 -12 19 -19 79 -38 116 -38 40 0 122 22 122 32 0 4 8 8 18 8 10 0 24 9 32
20 8 11 19 20 25 20 5 0 19 14 30 30 11 16 23 30 28 30 4 0 7 9 7 19 0 11 4
22 9 25 5 3 12 18 16 33 3 15 11 31 16 34 17 10 13 200 -5 234 -9 17 -16 38
-16 48 0 10 -6 25 -14 32 -12 12 -24 4 -82 -51z"/>
<path d="M5065 9786 c-16 -6 -39 -16 -50 -22 -11 -6 -47 -21 -80 -34 -33 -13
-64 -27 -69 -32 -6 -4 -16 -8 -24 -8 -23 0 -42 -27 -42 -59 0 -17 5 -31 10
-31 6 0 10 -11 10 -25 0 -14 5 -25 10 -25 6 0 10 -11 10 -25 0 -14 5 -25 10
-25 6 0 10 -13 10 -30 0 -16 5 -30 10 -30 6 0 10 -9 10 -20 0 -21 33 -29 45
-10 3 6 15 10 26 10 10 0 19 5 19 10 0 6 9 10 19 10 11 0 23 5 26 10 3 6 17
10 31 10 13 0 24 5 24 10 0 6 6 10 14 10 20 0 139 64 171 92 14 12 25 30 25
40 0 10 5 18 10 18 6 0 10 18 10 40 0 22 -4 40 -10 40 -5 0 -10 7 -10 17 0 9
-14 29 -32 45 -28 25 -39 28 -92 27 -34 -1 -74 -7 -91 -13z"/>
<path d="M7670 9622 c0 -11 -35 -52 -44 -52 -10 0 -36 -27 -36 -37 0 -5 -18
-25 -40 -44 -22 -19 -40 -39 -40 -44 0 -6 -9 -17 -20 -25 -11 -8 -20 -18 -20
-23 0 -12 -47 -57 -60 -57 -33 0 10 -49 51 -57 16 -3 29 -9 29 -14 0 -5 9 -9
19 -9 11 0 26 -6 33 -12 7 -7 33 -20 58 -29 25 -10 52 -20 60 -23 13 -6 18 11
28 102 7 59 12 154 12 210 0 61 4 102 10 102 6 0 10 5 10 10 0 6 -11 10 -25
10 -14 0 -25 -4 -25 -8z"/>
<path d="M8078 3283 c-16 -2 -28 -11 -28 -19 0 -8 -4 -14 -10 -14 -5 0 -10 -9
-10 -20 0 -11 -4 -20 -10 -20 -5 0 -10 -13 -10 -30 0 -16 5 -30 10 -30 6 0 10
-16 10 -35 0 -19 5 -35 10 -35 6 0 10 -11 10 -25 0 -14 5 -25 10 -25 6 0 10
-9 10 -20 0 -11 3 -20 8 -20 4 0 14 -15 21 -32 8 -18 25 -43 38 -56 13 -12 23
-27 23 -32 0 -6 7 -10 15 -10 8 0 15 -4 15 -10 0 -15 92 -12 113 4 9 7 17 21
17 30 0 9 5 16 10 16 6 0 10 20 10 44 0 25 -4 48 -10 51 -5 3 -10 17 -10 31 0
13 -4 24 -10 24 -5 0 -10 5 -10 12 0 19 -43 108 -52 108 -4 0 -8 8 -8 18 -1 9
-18 33 -38 54 -37 37 -74 49 -124 41z"/>
<path d="M7414 3067 c-40 -41 -47 -86 -28 -174 9 -43 19 -90 21 -105 3 -16 9
-28 14 -28 5 0 9 -11 9 -25 0 -14 5 -25 10 -25 6 0 10 -7 10 -15 0 -9 12 -28
26 -42 34 -34 111 -36 146 -3 21 20 23 29 21 123 -1 63 -5 103 -12 105 -6 2
-11 17 -11 33 0 16 -4 37 -9 47 -5 9 -15 31 -22 47 -8 17 -26 42 -41 58 -36
35 -102 37 -134 4z"/>
<path d="M6778 2965 c-33 -31 -42 -61 -35 -122 7 -65 34 -88 101 -87 55 0 72
10 94 51 25 45 7 122 -39 166 -28 26 -88 22 -121 -8z"/>
</g>
</svg>
