<?xml version="1.0" standalone="no"?>
<!DOCTYPE svg PUBLIC "-//W3C//DTD SVG 20010904//EN"
 "http://www.w3.org/TR/2001/REC-SVG-20010904/DTD/svg10.dtd">
<svg version="1.0" xmlns="http://www.w3.org/2000/svg"
 width="1250.000000pt" height="1250.000000pt" viewBox="0 0 1250.000000 1250.000000"
 preserveAspectRatio="xMidYMid meet">
<metadata>
Created by potrace 1.11, written by Peter Selinger 2001-2013
</metadata>
<g transform="translate(0.000000,1250.000000) scale(0.100000,-0.100000)"
fill="#000000" stroke="none">
<path d="M6230 11690 c0 -5 -9 -10 -20 -10 -11 0 -20 -3 -20 -8 0 -4 -15 -13
-32 -21 -18 -8 -35 -17 -38 -20 -6 -7 -39 -26 -95 -55 -22 -12 -42 -24 -45
-27 -10 -12 -182 -99 -196 -99 -8 0 -14 -4 -14 -10 0 -5 -9 -10 -20 -10 -11 0
-20 -4 -20 -10 0 -5 -8 -10 -17 -10 -10 0 -45 -14 -78 -30 -33 -17 -63 -30
-67 -30 -4 0 -31 -11 -60 -24 -59 -26 -313 -114 -368 -127 -19 -4 -48 -11 -65
-14 -16 -4 -39 -10 -50 -15 -19 -8 -54 -15 -140 -26 -22 -3 -49 -9 -60 -14
-36 -16 -345 -41 -510 -41 -175 0 -483 26 -499 42 -6 5 -31 9 -57 9 -26 0 -51
5 -54 10 -3 6 -24 10 -46 10 -21 0 -39 5 -39 10 0 6 -10 10 -22 10 -12 0 -35
4 -52 10 -124 39 -162 52 -251 84 -112 41 -480 220 -505 246 -3 3 -22 14 -42
25 -21 11 -38 23 -38 27 0 3 -8 9 -19 13 -10 3 -31 17 -47 30 -16 14 -36 25
-45 25 -15 0 -98 -83 -99 -98 -1 -4 -19 -25 -40 -47 -22 -22 -40 -44 -40 -48
0 -4 -15 -23 -34 -42 -19 -18 -47 -51 -62 -71 -16 -21 -36 -46 -44 -54 -8 -9
-31 -36 -50 -60 -19 -24 -52 -61 -72 -83 -21 -22 -38 -44 -38 -48 0 -5 -11
-19 -25 -33 -14 -14 -25 -27 -25 -30 0 -3 -10 -16 -22 -29 -36 -37 -80 -88
-118 -137 -19 -25 -37 -47 -40 -50 -14 -13 -78 -90 -100 -119 -14 -19 -36 -46
-50 -61 -14 -15 -41 -46 -60 -70 -19 -24 -44 -54 -55 -66 -12 -12 -32 -37 -45
-54 -14 -18 -33 -41 -42 -52 -18 -21 -14 -44 12 -68 9 -8 21 -23 26 -32 5 -9
24 -34 42 -55 17 -21 55 -67 82 -103 28 -36 57 -73 65 -83 8 -9 15 -21 15 -26
0 -4 14 -22 30 -39 16 -18 30 -38 30 -46 0 -8 4 -16 8 -18 12 -4 162 -226 162
-238 0 -5 4 -10 9 -10 5 0 14 -13 21 -30 7 -16 16 -30 21 -30 5 0 9 -9 9 -20
0 -11 5 -20 10 -20 6 0 10 -6 10 -14 0 -8 3 -16 8 -18 4 -1 27 -42 52 -90 24
-49 48 -88 52 -88 5 0 8 -6 8 -13 0 -8 21 -51 46 -98 25 -46 51 -101 57 -121
7 -21 15 -38 19 -38 5 0 8 -7 8 -15 0 -14 28 -85 51 -127 5 -10 9 -27 9 -38 0
-11 5 -20 10 -20 6 0 10 -8 10 -17 0 -9 9 -44 20 -77 28 -84 36 -113 50 -176
7 -30 16 -64 20 -75 5 -11 11 -38 15 -60 3 -22 13 -80 22 -130 13 -70 17 -154
17 -375 0 -282 -6 -362 -45 -555 -5 -27 -14 -70 -19 -95 -5 -25 -13 -63 -19
-85 -5 -22 -14 -60 -20 -85 -5 -25 -17 -66 -25 -90 -9 -25 -16 -55 -16 -67 0
-13 -4 -23 -10 -23 -5 0 -10 -10 -10 -22 0 -20 -11 -62 -30 -113 -4 -11 -34
-101 -66 -200 -31 -99 -65 -198 -74 -220 -10 -22 -31 -85 -49 -140 -18 -55
-36 -109 -40 -120 -5 -11 -19 -54 -31 -95 -12 -41 -26 -83 -31 -92 -5 -10 -9
-25 -9 -33 0 -8 -4 -23 -9 -33 -9 -18 -70 -205 -91 -282 -7 -25 -16 -56 -20
-70 -5 -14 -13 -47 -20 -75 -7 -27 -15 -59 -20 -70 -4 -11 -13 -47 -20 -80 -7
-33 -16 -70 -21 -83 -5 -13 -9 -38 -9 -57 0 -19 -4 -35 -10 -35 -5 0 -10 -19
-10 -43 0 -24 -4 -47 -9 -53 -5 -5 -12 -29 -15 -54 -3 -25 -10 -74 -16 -110
-6 -36 -15 -96 -20 -135 -5 -38 -14 -104 -20 -145 -32 -234 -49 -686 -31 -810
7 -41 17 -106 22 -145 6 -38 15 -79 19 -90 5 -11 11 -36 15 -55 3 -19 8 -50
12 -67 3 -18 9 -33 14 -33 5 0 9 -10 9 -22 0 -25 22 -93 33 -104 4 -4 7 -18 7
-30 0 -13 4 -25 9 -28 5 -3 12 -18 15 -32 7 -27 105 -235 115 -244 11 -10 31
-50 31 -63 0 -7 9 -19 20 -27 11 -8 20 -22 20 -32 0 -10 5 -18 10 -18 6 0 10
-6 10 -13 0 -7 9 -23 20 -35 11 -12 20 -28 20 -36 0 -8 4 -16 8 -18 5 -1 23
-25 42 -53 35 -51 55 -75 103 -127 15 -17 27 -33 27 -37 0 -10 214 -228 266
-272 22 -19 58 -47 79 -64 21 -16 43 -35 49 -40 6 -6 47 -35 91 -65 44 -30 82
-58 83 -62 2 -4 12 -8 23 -8 10 0 19 -4 19 -10 0 -5 7 -10 15 -10 9 0 25 -9
37 -20 12 -11 28 -20 35 -20 7 0 13 -4 13 -10 0 -5 6 -10 14 -10 7 0 43 -15
79 -33 35 -19 91 -44 123 -57 33 -13 63 -27 69 -32 5 -4 19 -8 31 -8 13 0 25
-4 28 -9 3 -5 18 -11 33 -14 16 -2 54 -12 86 -21 32 -9 67 -16 77 -16 11 0 20
-4 20 -10 0 -5 20 -10 44 -10 25 0 48 -4 51 -10 3 -5 31 -10 61 -10 30 0 54
-4 54 -10 0 -6 30 -10 69 -10 39 0 72 -4 75 -9 9 -13 308 -36 671 -51 314 -13
425 -26 575 -67 30 -8 69 -18 85 -22 17 -5 56 -20 88 -34 32 -15 62 -27 66
-27 5 0 35 -14 66 -30 31 -17 63 -30 71 -30 8 0 14 -4 14 -10 0 -5 9 -10 20
-10 11 0 20 -4 20 -10 0 -5 8 -10 18 -10 10 0 24 -9 32 -20 8 -11 22 -20 31
-20 10 0 19 -4 21 -8 2 -4 37 -29 79 -55 41 -27 88 -59 104 -73 15 -13 32 -24
36 -24 4 0 19 -11 33 -25 14 -14 29 -25 34 -25 4 0 26 -16 47 -35 21 -20 51
-43 67 -53 15 -9 28 -20 28 -24 0 -4 4 -8 10 -8 5 0 20 -10 33 -22 25 -24 114
-102 156 -138 14 -11 30 -19 37 -18 7 2 59 48 116 103 106 102 150 141 208
185 18 14 38 30 44 36 6 6 16 13 22 15 6 2 26 16 45 32 32 25 138 97 184 123
11 6 37 21 58 32 21 12 44 22 52 22 8 0 15 5 15 10 0 6 9 10 20 10 11 0 20 5
20 10 0 6 9 10 20 10 11 0 20 5 20 10 0 6 7 10 15 10 8 0 23 4 33 9 9 5 31 14
47 21 17 7 38 16 47 21 10 5 26 9 36 9 10 0 22 4 27 8 21 17 281 85 400 104
117 19 380 46 528 54 59 4 110 11 113 15 3 5 50 9 105 9 54 0 99 4 99 9 0 5
33 12 73 15 80 5 189 20 227 30 14 4 45 12 70 17 102 23 197 48 225 59 11 5
49 19 85 31 36 12 87 32 114 45 28 13 56 24 63 24 7 0 13 5 13 10 0 6 9 10 20
10 11 0 20 5 20 10 0 6 9 10 20 10 11 0 20 5 20 10 0 6 6 10 13 10 18 0 67 24
67 33 0 4 6 7 14 7 8 0 16 3 18 8 2 4 24 18 51 31 26 13 47 28 47 33 0 4 6 8
13 8 6 0 24 10 39 23 15 12 52 40 84 62 31 22 67 50 80 63 13 12 28 22 34 22
5 0 10 5 10 10 0 6 5 10 12 10 15 0 328 316 328 331 0 6 8 19 18 28 10 9 53
68 96 131 42 63 81 120 86 127 6 7 10 16 10 20 0 4 9 19 20 33 11 14 20 33 20
43 0 9 5 17 10 17 6 0 10 9 10 20 0 11 5 20 10 20 6 0 10 9 10 20 0 11 4 20 8
20 4 0 14 21 21 48 8 26 17 49 21 52 12 10 110 325 124 400 32 169 38 265 33
510 -3 135 -10 286 -16 335 -22 182 -42 322 -56 385 -7 36 -21 103 -31 150 -9
47 -20 103 -25 125 -6 22 -12 59 -16 83 -3 23 -10 42 -14 42 -5 0 -9 18 -9 40
0 22 -4 40 -10 40 -5 0 -10 15 -10 34 0 19 -4 38 -10 41 -5 3 -10 22 -10 41 0
19 -4 34 -10 34 -5 0 -10 18 -10 40 0 22 -4 40 -10 40 -5 0 -10 8 -10 18 0 10
-8 45 -19 78 -10 32 -33 106 -51 164 -17 58 -47 150 -65 205 -17 55 -38 120
-45 145 -8 25 -17 49 -22 55 -4 5 -8 19 -8 31 0 13 -4 26 -10 29 -5 3 -10 17
-10 31 0 13 -4 32 -9 42 -8 16 -39 113 -91 282 -12 41 -26 84 -31 95 -10 23
-67 214 -79 265 -5 19 -20 76 -34 125 -14 50 -26 100 -26 113 0 12 -4 22 -9
22 -8 0 -11 15 -27 133 -3 26 -10 47 -14 47 -4 0 -10 21 -13 48 -3 26 -11 72
-17 102 -53 266 -78 623 -61 884 11 166 18 225 41 351 6 33 14 75 17 93 3 18
9 35 14 38 5 3 9 20 9 39 0 19 5 37 10 40 6 3 10 19 10 36 0 16 5 29 10 29 6
0 10 11 10 25 0 14 4 33 9 43 16 29 71 176 71 189 0 6 3 13 8 15 4 2 39 66 77
143 38 77 73 142 77 143 4 2 8 11 8 21 0 9 9 23 20 31 11 8 20 22 20 32 0 10
5 18 10 18 6 0 10 6 10 13 0 12 124 186 155 218 8 9 15 19 15 24 0 4 13 20 28
35 15 14 39 42 52 61 35 48 61 77 180 202 58 60 106 115 108 123 2 8 -2 20
-10 28 -26 28 -48 56 -48 64 0 4 -16 25 -35 47 -19 22 -35 43 -35 46 0 3 -9
17 -20 30 -11 13 -23 29 -28 34 -4 6 -23 33 -42 60 -19 28 -42 59 -52 69 -10
11 -18 25 -18 31 0 6 -9 17 -20 25 -11 8 -20 19 -20 25 0 5 -12 24 -26 40 -14
17 -45 57 -67 90 -23 33 -49 69 -59 79 -10 11 -18 24 -18 29 0 5 -14 22 -30
37 -16 15 -30 34 -30 40 0 7 -8 20 -18 29 -9 9 -23 28 -31 44 -8 15 -18 27
-23 27 -4 0 -8 7 -8 15 0 8 -4 15 -9 15 -5 0 -12 8 -15 18 -4 9 -20 33 -36 52
-37 43 -41 49 -61 80 -9 14 -26 36 -38 49 -11 13 -21 27 -21 31 0 4 -8 16 -17
28 -46 53 -53 63 -53 70 -1 15 -50 62 -64 62 -9 0 -32 -10 -53 -22 -21 -11
-67 -37 -103 -56 -36 -19 -76 -42 -90 -50 -51 -33 -195 -102 -212 -102 -10 0
-18 -4 -18 -10 0 -5 -9 -10 -20 -10 -11 0 -20 -4 -20 -10 0 -5 -9 -10 -20 -10
-11 0 -20 -4 -20 -10 0 -5 -7 -10 -15 -10 -9 0 -33 -8 -54 -19 -22 -10 -60
-24 -85 -32 -25 -7 -46 -17 -46 -21 0 -4 -10 -8 -23 -8 -13 0 -27 -4 -33 -8
-5 -5 -49 -21 -99 -36 -49 -16 -115 -36 -145 -46 -30 -10 -82 -23 -115 -30
-33 -7 -69 -16 -80 -20 -20 -9 -68 -16 -160 -26 -27 -3 -59 -9 -70 -14 -44
-20 -654 -39 -690 -21 -11 6 -54 12 -95 15 -41 3 -104 10 -140 16 -36 6 -86
13 -112 16 -27 3 -48 10 -48 15 0 5 -12 9 -27 9 -31 0 -37 2 -248 70 -162 52
-180 59 -292 111 -34 16 -69 29 -77 29 -9 0 -16 5 -16 10 0 6 -9 10 -20 10
-11 0 -20 5 -20 10 0 6 -7 10 -15 10 -14 0 -53 18 -65 30 -3 3 -36 21 -75 40
-38 19 -72 38 -75 41 -3 3 -21 14 -40 24 -19 10 -61 35 -92 56 -31 22 -60 39
-63 39 -3 0 -15 9 -27 20 -23 21 -88 28 -88 10z m93 -192 c15 -7 27 -16 27
-20 0 -5 7 -8 15 -8 8 0 15 -3 15 -7 0 -9 48 -33 65 -33 6 0 17 -9 25 -20 8
-11 22 -20 32 -20 10 0 18 -4 18 -10 0 -5 9 -10 20 -10 11 0 20 -4 20 -10 0
-5 9 -10 19 -10 11 0 21 -4 23 -9 4 -11 235 -121 254 -121 8 0 14 -4 14 -10 0
-5 7 -10 15 -10 8 0 25 -5 38 -12 48 -24 57 -28 77 -28 11 0 20 -4 20 -10 0
-5 14 -10 30 -10 17 0 30 -4 30 -10 0 -5 14 -10 30 -10 17 0 30 -4 30 -10 0
-5 14 -10 30 -10 17 0 30 -4 30 -10 0 -5 8 -10 17 -10 9 0 30 -4 47 -9 17 -5
49 -14 71 -20 22 -5 65 -17 95 -25 111 -32 320 -63 535 -77 308 -22 627 9 970
93 22 5 55 12 73 15 18 3 35 9 38 14 3 5 18 9 35 9 16 0 29 5 29 10 0 6 14 10
30 10 17 0 30 5 30 10 0 6 14 10 30 10 17 0 30 5 30 10 0 6 14 10 30 10 17 0
30 5 30 10 0 6 14 10 30 10 17 0 30 5 30 10 0 6 9 10 19 10 11 0 23 5 26 10 3
6 17 10 30 10 13 0 27 5 30 10 3 6 15 10 26 10 10 0 19 4 19 10 0 5 12 13 28
16 37 10 276 124 280 135 2 5 12 9 23 9 10 0 19 5 19 10 0 6 9 10 20 10 11 0
20 5 20 10 0 6 9 10 20 10 11 0 20 5 20 10 0 6 7 10 15 10 8 0 15 3 15 8 0 4
12 12 25 19 23 10 27 9 43 -15 9 -15 24 -34 34 -43 10 -9 18 -22 18 -29 0 -6
14 -25 30 -40 17 -15 30 -34 30 -42 0 -7 9 -20 20 -28 11 -8 20 -20 20 -27 0
-7 4 -13 8 -13 5 0 15 -12 23 -27 8 -16 23 -38 34 -51 11 -12 29 -32 40 -45
11 -12 26 -34 34 -49 8 -16 18 -28 23 -28 4 0 8 -6 8 -13 0 -7 9 -19 20 -27
11 -8 20 -20 20 -27 0 -7 5 -13 10 -13 6 0 10 -7 10 -15 0 -8 4 -15 8 -15 5 0
15 -12 23 -27 8 -16 21 -35 30 -43 9 -8 22 -26 29 -39 7 -13 21 -34 31 -45 11
-12 41 -50 66 -86 26 -36 55 -72 65 -81 10 -9 18 -23 18 -30 0 -8 9 -21 20
-29 11 -8 20 -21 20 -28 0 -8 12 -26 28 -40 15 -15 33 -39 41 -54 13 -25 11
-28 -50 -90 -35 -35 -75 -78 -89 -96 -14 -18 -41 -50 -60 -71 -76 -82 -100
-111 -100 -119 0 -4 -9 -14 -20 -22 -11 -8 -20 -21 -20 -28 0 -8 -13 -27 -30
-42 -16 -15 -30 -33 -30 -39 0 -6 -13 -25 -30 -43 -16 -17 -30 -35 -30 -40 0
-6 -14 -31 -32 -56 -55 -81 -64 -96 -94 -152 -16 -30 -32 -56 -36 -58 -5 -2
-8 -12 -8 -23 0 -10 -4 -19 -10 -19 -5 0 -10 -9 -10 -20 0 -11 -4 -20 -10 -20
-5 0 -10 -11 -10 -25 0 -14 -4 -25 -10 -25 -5 0 -10 -9 -10 -20 0 -11 -4 -20
-8 -20 -5 0 -15 -22 -22 -50 -7 -27 -16 -50 -20 -50 -3 0 -12 -21 -19 -47 -7
-27 -19 -62 -26 -78 -8 -17 -18 -49 -24 -70 -5 -22 -17 -65 -26 -95 -28 -92
-44 -175 -67 -355 -16 -122 -16 -593 0 -725 33 -270 83 -545 122 -677 6 -18
15 -48 20 -66 6 -18 10 -45 10 -60 0 -14 5 -29 10 -32 6 -3 10 -22 10 -41 0
-19 5 -34 10 -34 6 0 10 -13 10 -30 0 -16 5 -30 10 -30 6 0 10 -18 10 -39 0
-22 5 -43 10 -46 6 -3 10 -19 10 -35 0 -15 4 -30 10 -32 5 -1 10 -20 12 -40 1
-21 6 -38 10 -38 4 0 8 -11 8 -24 0 -14 5 -28 10 -31 6 -3 10 -17 10 -31 0
-13 4 -32 9 -42 5 -9 14 -37 21 -62 7 -25 15 -52 19 -60 4 -8 20 -55 35 -105
15 -49 31 -99 35 -110 18 -44 31 -92 31 -113 0 -12 5 -22 10 -22 6 0 10 -13
10 -29 0 -17 5 -33 10 -36 6 -3 10 -17 10 -31 0 -13 5 -24 10 -24 6 0 10 -16
10 -35 0 -19 5 -35 10 -35 6 0 10 -13 10 -30 0 -16 5 -30 10 -30 6 0 10 -18
10 -40 0 -22 5 -40 10 -40 6 0 10 -13 10 -30 0 -16 5 -30 10 -30 6 0 10 -13
10 -29 0 -17 4 -32 9 -35 5 -3 11 -20 14 -38 13 -76 20 -103 27 -108 8 -6 90
-311 97 -360 2 -19 8 -44 13 -55 8 -19 15 -54 26 -142 4 -24 10 -43 15 -43 5
0 9 -22 9 -50 0 -27 5 -50 10 -50 6 0 10 -26 10 -59 0 -33 5 -63 10 -66 6 -3
10 -37 10 -76 0 -39 4 -69 10 -69 6 0 10 -38 10 -95 0 -57 4 -95 10 -95 6 0
10 -117 10 -330 0 -213 -4 -330 -10 -330 -6 0 -10 -26 -10 -59 0 -33 -4 -63
-10 -66 -5 -3 -10 -24 -10 -46 0 -21 -4 -39 -10 -39 -5 0 -10 -18 -10 -40 0
-22 -4 -40 -10 -40 -5 0 -10 -13 -10 -30 0 -16 -4 -30 -10 -30 -5 0 -10 -9
-10 -20 0 -11 -4 -29 -10 -40 -5 -11 -14 -29 -20 -40 -5 -11 -10 -27 -10 -35
0 -8 -4 -15 -10 -15 -5 0 -10 -8 -10 -17 0 -10 -17 -47 -36 -83 -20 -36 -41
-75 -48 -87 -6 -13 -14 -23 -18 -23 -5 0 -8 -8 -8 -18 0 -10 -9 -24 -20 -32
-11 -8 -20 -21 -20 -30 0 -9 -9 -22 -20 -30 -11 -8 -20 -20 -20 -27 0 -7 -16
-30 -35 -50 -19 -20 -35 -40 -35 -44 0 -4 -20 -29 -45 -55 -25 -27 -45 -52
-45 -56 0 -5 -5 -8 -10 -8 -6 0 -50 -39 -98 -88 -79 -79 -153 -143 -212 -182
-13 -8 -33 -25 -46 -37 -13 -13 -29 -23 -36 -23 -8 0 -20 -9 -28 -20 -8 -11
-21 -20 -30 -20 -9 0 -22 -9 -30 -20 -8 -11 -20 -20 -28 -20 -7 0 -22 -9 -34
-20 -12 -11 -28 -20 -35 -20 -7 0 -13 -4 -13 -8 0 -5 -16 -14 -35 -22 -19 -8
-35 -17 -35 -20 0 -6 -166 -87 -230 -112 -14 -6 -33 -14 -42 -19 -10 -5 -27
-9 -38 -9 -11 0 -20 -4 -20 -10 0 -5 -13 -10 -30 -10 -16 0 -30 -4 -30 -10 0
-5 -13 -10 -30 -10 -16 0 -30 -4 -30 -10 0 -5 -18 -10 -40 -10 -22 0 -40 -4
-40 -9 0 -5 -17 -11 -37 -14 -21 -3 -63 -11 -93 -17 -72 -14 -164 -28 -275
-39 -49 -6 -106 -12 -125 -16 -19 -3 -161 -14 -315 -25 -154 -11 -314 -25
-355 -30 -168 -24 -226 -34 -345 -60 -27 -6 -62 -13 -77 -17 -16 -3 -28 -9
-28 -14 0 -5 -16 -9 -35 -9 -19 0 -35 -4 -35 -10 0 -5 -11 -10 -25 -10 -14 0
-25 -4 -25 -10 0 -5 -13 -10 -30 -10 -16 0 -30 -3 -30 -8 0 -4 -16 -13 -35
-20 -19 -6 -51 -18 -70 -24 -19 -7 -35 -16 -35 -20 0 -5 -9 -8 -19 -8 -11 0
-21 -4 -23 -8 -1 -5 -34 -26 -73 -47 -38 -22 -76 -45 -83 -51 -6 -7 -21 -16
-32 -19 -11 -3 -20 -11 -20 -16 0 -5 -7 -9 -15 -9 -8 0 -15 -4 -15 -10 0 -5
-5 -10 -11 -10 -7 0 -19 -8 -28 -18 -9 -9 -28 -23 -43 -31 -16 -8 -28 -18 -28
-23 0 -4 -5 -8 -10 -8 -12 0 -38 -24 -185 -168 -58 -56 -111 -102 -118 -102
-7 0 -19 9 -27 20 -8 11 -18 20 -22 20 -5 0 -28 19 -53 43 -24 23 -50 47 -57
52 -116 90 -137 106 -164 133 -13 12 -28 22 -34 22 -5 0 -10 5 -10 10 0 6 -6
10 -13 10 -7 0 -19 9 -27 20 -8 11 -20 20 -28 20 -7 0 -22 9 -34 20 -12 11
-28 20 -35 20 -7 0 -13 5 -13 10 0 6 -7 10 -15 10 -8 0 -15 4 -15 8 0 5 -12
15 -27 23 -33 16 -93 54 -110 69 -7 5 -19 10 -28 10 -8 0 -15 5 -15 10 0 6 -6
10 -13 10 -18 0 -67 24 -67 33 0 4 -11 7 -25 7 -14 0 -25 5 -25 10 0 6 -11 10
-25 10 -14 0 -25 5 -25 10 0 6 -11 10 -25 10 -14 0 -25 5 -25 10 0 6 -13 10
-30 10 -16 0 -30 4 -30 9 0 5 -15 11 -32 14 -18 3 -58 11 -88 17 -131 27 -208
32 -625 40 -242 4 -456 11 -475 14 -19 4 -73 11 -120 17 -135 17 -263 39 -285
49 -11 5 -36 11 -55 15 -19 3 -50 8 -68 12 -18 3 -35 9 -38 14 -3 5 -18 9 -34
9 -16 0 -32 5 -35 10 -3 6 -17 10 -31 10 -13 0 -24 5 -24 10 0 6 -13 10 -30
10 -16 0 -30 5 -30 10 0 6 -11 10 -25 10 -14 0 -25 5 -25 10 0 6 -11 10 -25
10 -14 0 -25 5 -25 10 0 6 -6 10 -14 10 -17 0 -265 128 -283 146 -7 7 -22 16
-33 19 -11 3 -20 10 -20 14 0 5 -14 14 -30 21 -17 7 -30 16 -30 21 0 5 -6 9
-13 9 -7 0 -19 9 -27 20 -8 11 -20 20 -28 20 -7 0 -28 15 -47 34 -19 19 -43
37 -55 41 -11 3 -20 11 -20 17 0 11 -20 30 -59 58 -12 8 -21 18 -21 23 0 10
-26 37 -35 37 -9 0 -115 109 -115 118 0 5 -13 23 -30 40 -16 18 -30 34 -30 37
0 3 -11 17 -25 31 -14 14 -25 29 -25 33 0 4 -11 21 -25 37 -14 16 -25 33 -25
37 0 4 -5 13 -10 20 -39 47 -50 62 -55 78 -4 11 -11 19 -16 19 -5 0 -9 9 -9
20 0 11 -3 20 -7 20 -5 0 -19 25 -33 55 -14 30 -28 55 -32 55 -5 0 -8 9 -8 20
0 11 -4 20 -10 20 -5 0 -10 9 -10 20 0 11 -4 20 -10 20 -5 0 -10 11 -10 25 0
14 -4 25 -10 25 -5 0 -10 11 -10 25 0 14 -4 25 -10 25 -5 0 -10 9 -10 19 0 11
-4 23 -10 26 -5 3 -10 17 -10 30 0 13 -4 27 -10 30 -5 3 -10 19 -10 36 0 16
-4 29 -8 29 -5 0 -14 19 -20 43 -76 291 -95 418 -96 627 -1 167 10 396 24 490
5 36 21 150 35 255 15 104 33 219 41 255 9 36 18 81 20 100 3 19 9 44 14 55 9
20 16 56 27 128 3 20 9 37 14 37 5 0 9 18 9 40 0 22 5 40 10 40 6 0 10 18 10
40 0 22 5 40 10 40 6 0 10 16 10 35 0 19 5 35 10 35 6 0 10 18 10 40 0 22 5
40 10 40 6 0 10 14 10 30 0 17 5 30 10 30 6 0 10 13 10 29 0 17 5 33 10 36 6
3 10 17 10 31 0 13 4 32 9 42 5 9 26 70 47 135 20 65 41 120 45 123 5 3 9 16
9 29 0 13 5 27 10 30 5 3 10 19 10 36 0 16 5 29 10 29 6 0 10 14 10 30 0 17 5
30 10 30 6 0 10 14 10 30 0 17 5 30 10 30 6 0 10 14 10 30 0 17 5 30 10 30 6
0 10 14 10 30 0 17 5 30 10 30 6 0 10 14 10 30 0 17 5 30 10 30 6 0 10 8 10
17 0 9 8 42 19 72 10 31 24 76 31 101 7 25 16 54 21 65 4 11 13 40 19 65 15
58 39 139 50 165 5 11 11 34 15 50 3 17 10 48 16 70 13 52 29 130 36 180 3 22
9 44 14 50 5 5 9 35 9 67 0 32 4 58 10 58 6 0 10 35 10 85 0 50 4 85 10 85 6
0 10 92 10 255 0 163 -4 255 -10 255 -6 0 -10 32 -10 75 0 43 -4 75 -10 75 -6
0 -10 27 -10 60 0 33 -4 60 -9 60 -5 0 -11 19 -14 43 -7 53 -16 96 -27 122 -8
19 -14 45 -27 110 -3 17 -9 32 -13 35 -3 3 -19 46 -35 95 -16 50 -32 92 -35
95 -4 3 -13 26 -21 53 -7 26 -17 47 -21 47 -4 0 -8 9 -8 19 0 11 -5 23 -10 26
-5 3 -10 15 -10 26 0 10 -4 19 -10 19 -5 0 -10 9 -10 20 0 11 -4 20 -10 20 -5
0 -10 9 -10 20 0 11 -4 20 -10 20 -5 0 -10 9 -10 20 0 11 -4 20 -10 20 -5 0
-10 9 -10 20 0 11 -4 20 -10 20 -5 0 -10 6 -10 13 0 18 -24 67 -32 67 -5 0 -8
8 -8 19 0 10 -7 24 -15 31 -8 7 -15 16 -15 21 0 11 -63 113 -72 117 -5 2 -8
12 -8 23 0 10 -4 19 -9 19 -5 0 -14 14 -21 30 -7 17 -16 30 -21 30 -5 0 -9 7
-9 15 0 9 -9 25 -20 37 -11 12 -20 28 -20 35 0 7 -4 13 -10 13 -5 0 -10 7 -10
15 0 8 -4 15 -9 15 -5 0 -12 8 -16 19 -3 10 -14 29 -25 42 -26 31 -29 36 -70
94 -19 28 -38 52 -42 53 -4 2 -8 10 -8 18 0 8 -4 14 -10 14 -5 0 -10 6 -10 13
0 7 -9 19 -20 27 -11 8 -20 21 -20 28 0 8 -13 27 -30 42 -16 15 -30 33 -30 40
0 7 -13 24 -28 38 -51 49 -47 64 36 148 17 18 32 38 32 44 0 6 21 32 48 58 26
26 65 70 87 97 22 28 52 62 67 77 16 14 28 31 28 37 0 6 5 11 10 11 6 0 10 4
10 10 0 5 25 35 55 66 30 32 55 60 55 64 0 5 12 21 28 37 15 17 45 51 67 77
22 27 59 68 82 92 24 24 43 48 43 54 0 6 15 25 33 43 17 18 50 55 72 81 64 79
112 126 127 126 7 0 20 -9 28 -20 8 -11 22 -20 31 -20 10 0 19 -4 21 -8 4 -11
90 -61 188 -109 41 -20 77 -41 78 -45 2 -4 12 -8 23 -8 10 0 19 -4 19 -10 0
-5 6 -10 13 -10 18 0 67 -24 67 -32 0 -5 14 -8 30 -8 17 0 30 -4 30 -10 0 -5
11 -10 25 -10 14 0 25 -4 25 -10 0 -5 14 -10 30 -10 17 0 30 -4 30 -10 0 -5
14 -10 30 -10 17 0 30 -4 30 -8 0 -4 21 -13 48 -20 26 -8 55 -18 64 -23 10 -5
31 -9 48 -9 16 0 30 -4 30 -9 0 -4 17 -11 38 -14 20 -3 80 -15 132 -26 212
-45 334 -56 605 -56 193 0 294 5 394 18 131 18 357 59 416 77 17 5 50 14 75
21 87 23 115 32 132 40 10 5 29 9 43 9 14 0 25 5 25 10 0 6 14 10 30 10 17 0
30 5 30 10 0 6 11 10 24 10 14 0 28 5 31 10 3 6 17 10 31 10 13 0 24 4 24 8 0
5 23 15 50 22 28 7 50 17 50 22 0 4 7 8 15 8 18 0 339 152 343 162 2 5 10 8
18 8 8 0 14 5 14 10 0 6 11 10 25 10 14 0 25 5 25 10 0 6 7 10 15 10 8 0 15 5
15 10 0 6 9 10 20 10 11 0 20 5 20 10 0 6 7 10 15 10 8 0 15 5 15 10 0 6 9 10
20 10 11 0 20 5 20 10 0 14 61 12 93 -2z"/>
<path d="M6180 11180 c-14 -11 -33 -20 -42 -20 -10 0 -18 -3 -18 -7 0 -9 -49
-33 -67 -33 -7 0 -13 -4 -13 -10 0 -5 -9 -10 -20 -10 -11 0 -20 -4 -20 -10 0
-5 -9 -10 -20 -10 -11 0 -20 -4 -20 -10 0 -5 -7 -10 -15 -10 -8 0 -29 -8 -47
-18 -18 -10 -87 -40 -153 -66 -66 -26 -128 -52 -137 -57 -10 -5 -27 -9 -37 -9
-11 0 -22 -4 -25 -8 -3 -4 -28 -14 -56 -22 -28 -8 -53 -18 -56 -22 -3 -4 -21
-8 -40 -8 -19 0 -34 -4 -34 -10 0 -5 -13 -10 -29 -10 -17 0 -33 -4 -36 -10 -3
-5 -21 -10 -40 -10 -19 0 -36 -4 -39 -9 -3 -5 -20 -11 -38 -14 -18 -4 -55 -11
-83 -16 -84 -17 -157 -31 -220 -41 -33 -5 -87 -14 -120 -19 -33 -5 -146 -15
-251 -21 -194 -11 -471 -2 -609 20 -160 26 -248 42 -330 60 -27 6 -65 14 -82
17 -18 3 -33 9 -33 14 0 5 -15 9 -34 9 -19 0 -38 5 -41 10 -3 6 -19 10 -36 10
-16 0 -29 5 -29 10 0 6 -13 10 -29 10 -17 0 -33 5 -36 10 -3 6 -17 10 -31 10
-13 0 -24 5 -24 10 0 6 -9 10 -20 10 -11 0 -29 5 -40 10 -11 6 -29 15 -40 20
-11 6 -25 10 -30 10 -16 0 -324 152 -328 162 -2 4 -12 8 -23 8 -10 0 -19 5
-19 10 0 22 -50 9 -67 -17 -10 -16 -27 -37 -38 -49 -43 -45 -85 -94 -85 -99 0
-3 -22 -28 -50 -56 -28 -28 -50 -55 -50 -60 0 -5 -20 -30 -45 -56 -25 -25 -45
-49 -45 -53 0 -3 -27 -35 -60 -70 -33 -36 -60 -69 -60 -73 0 -5 -18 -26 -40
-47 -22 -21 -40 -42 -40 -47 0 -5 -22 -34 -50 -64 -46 -50 -64 -89 -41 -89 5
0 13 -9 16 -20 4 -11 17 -32 31 -45 13 -13 24 -30 24 -37 0 -8 9 -20 20 -28
11 -8 20 -22 20 -31 0 -10 4 -19 8 -21 5 -1 34 -41 65 -88 31 -47 66 -95 77
-107 11 -12 20 -29 20 -37 0 -8 3 -16 8 -18 9 -4 41 -57 49 -80 3 -10 9 -18
14 -18 5 0 9 -7 9 -15 0 -8 5 -15 10 -15 6 0 10 -9 10 -20 0 -11 5 -20 10 -20
6 0 10 -7 10 -15 0 -8 5 -15 10 -15 6 0 10 -7 10 -15 0 -8 5 -15 10 -15 6 0
10 -9 10 -20 0 -11 5 -20 10 -20 6 0 10 -9 10 -20 0 -11 5 -20 10 -20 6 0 10
-4 10 -8 0 -5 25 -53 55 -108 30 -54 55 -107 55 -116 0 -10 5 -18 10 -18 6 0
10 -9 10 -20 0 -11 5 -20 10 -20 6 0 10 -9 10 -20 0 -11 5 -20 10 -20 6 0 10
-11 10 -25 0 -14 5 -25 10 -25 6 0 10 -9 10 -19 0 -11 5 -23 10 -26 6 -3 10
-17 10 -31 0 -13 5 -24 10 -24 6 0 10 -9 10 -19 0 -11 5 -23 10 -26 6 -3 10
-16 10 -29 0 -12 4 -26 8 -32 5 -5 15 -29 22 -54 8 -25 17 -50 21 -55 4 -6 24
-75 44 -155 19 -80 40 -161 45 -180 10 -42 25 -141 41 -275 23 -201 -3 -603
-55 -840 -8 -38 -24 -110 -35 -160 -10 -49 -26 -110 -35 -135 -9 -25 -16 -55
-16 -67 0 -12 -4 -25 -10 -28 -6 -3 -10 -19 -10 -35 0 -16 -4 -32 -10 -35 -5
-3 -10 -19 -10 -36 0 -16 -4 -29 -10 -29 -5 0 -10 -16 -10 -35 0 -19 -4 -35
-10 -35 -5 0 -10 -13 -10 -30 0 -16 -4 -30 -9 -30 -5 0 -12 -17 -15 -37 -16
-92 -19 -103 -27 -103 -5 0 -9 -8 -9 -17 0 -19 -18 -79 -31 -105 -5 -10 -9
-29 -9 -43 0 -14 -4 -25 -10 -25 -5 0 -10 -13 -10 -30 0 -16 -4 -30 -10 -30
-5 0 -10 -7 -10 -14 0 -15 -44 -165 -59 -201 -5 -11 -14 -40 -21 -65 -7 -25
-16 -55 -21 -68 -5 -13 -9 -34 -9 -47 0 -13 -4 -27 -10 -30 -6 -3 -10 -19 -10
-35 0 -16 -4 -32 -10 -35 -5 -3 -10 -19 -10 -36 0 -16 -4 -29 -10 -29 -5 0
-10 -18 -10 -40 0 -22 -4 -40 -10 -40 -5 0 -10 -15 -10 -34 0 -19 -4 -37 -9
-40 -5 -3 -11 -23 -14 -43 -3 -21 -10 -57 -16 -80 -26 -102 -33 -131 -41 -178
-5 -27 -14 -67 -20 -88 -41 -139 -110 -594 -126 -822 -3 -49 -10 -94 -15 -99
-12 -13 -12 -469 0 -482 5 -5 12 -31 15 -59 11 -99 18 -140 27 -149 5 -6 9
-19 9 -30 0 -21 15 -71 36 -121 6 -16 19 -52 28 -78 21 -62 126 -281 137 -285
5 -2 9 -12 9 -23 0 -10 5 -19 10 -19 6 0 10 -7 10 -15 0 -9 9 -25 20 -37 11
-12 20 -28 20 -35 0 -7 5 -13 10 -13 6 0 10 -7 10 -15 0 -8 5 -15 10 -15 6 0
10 -5 10 -11 0 -11 62 -93 92 -120 10 -9 18 -21 18 -26 0 -18 159 -186 249
-263 29 -25 59 -51 66 -57 8 -7 16 -13 20 -13 3 0 20 -14 38 -31 18 -17 77
-59 132 -95 55 -35 105 -69 112 -74 7 -6 19 -10 28 -10 8 0 15 -4 15 -10 0 -5
9 -10 20 -10 11 0 20 -4 20 -10 0 -5 9 -10 20 -10 11 0 20 -4 20 -10 0 -5 6
-10 13 -10 7 0 32 -9 55 -20 22 -11 46 -20 52 -20 5 0 18 -4 28 -10 30 -16
173 -63 271 -87 226 -58 470 -80 989 -89 182 -4 332 -10 332 -14 0 -4 35 -8
78 -9 42 -1 81 -6 87 -12 5 -5 31 -9 57 -9 26 0 48 -4 48 -10 0 -5 18 -10 40
-10 22 0 40 -4 40 -10 0 -5 13 -10 28 -10 15 0 32 -4 37 -8 6 -5 30 -15 55
-22 47 -15 221 -97 230 -109 3 -3 26 -17 52 -30 26 -13 56 -32 67 -42 11 -11
26 -19 33 -19 8 0 20 -9 28 -20 8 -11 20 -20 27 -20 7 0 27 -14 45 -30 17 -17
37 -30 44 -30 7 0 14 -3 16 -8 2 -4 25 -25 53 -47 27 -22 67 -57 87 -78 20
-20 42 -37 48 -37 6 0 8 -4 5 -10 -3 -5 0 -10 8 -10 7 0 23 -9 35 -20 l22 -20
71 69 c39 39 84 81 101 93 16 13 46 38 66 56 20 17 40 32 44 32 5 0 18 9 30
20 12 11 28 20 35 20 7 0 13 5 13 10 0 6 7 10 15 10 8 0 15 5 15 10 0 6 9 10
19 10 11 0 21 4 23 9 3 10 240 131 255 131 4 0 19 6 33 13 14 7 45 19 70 26
25 7 53 17 62 22 10 5 29 9 42 9 14 0 28 5 31 10 3 5 19 10 35 10 16 0 31 4
34 9 6 8 24 12 129 27 23 3 46 10 52 15 5 5 33 9 61 9 29 0 55 4 58 9 3 4 36
11 73 15 38 4 109 11 158 17 90 10 210 20 445 38 234 19 445 48 550 77 100 28
195 56 218 65 13 5 32 9 42 9 11 0 20 5 20 10 0 6 7 10 15 10 24 0 95 24 95
32 0 5 11 8 24 8 14 0 28 5 31 10 3 6 15 10 26 10 10 0 19 5 19 10 0 6 9 10
19 10 11 0 23 5 26 10 3 6 15 10 26 10 10 0 19 5 19 10 0 6 9 10 20 10 11 0
20 4 20 9 0 5 9 12 20 16 25 8 204 125 208 136 2 5 9 9 16 9 7 0 27 13 44 30
18 16 36 30 42 30 5 0 10 5 10 10 0 6 5 10 11 10 14 0 269 257 269 270 0 6 14
24 30 42 17 17 30 35 30 39 0 5 8 18 18 29 9 11 34 48 54 83 21 34 42 67 48
74 5 7 10 19 10 28 0 8 3 15 8 15 4 0 13 15 20 33 7 17 18 40 23 49 5 10 9 25
9 33 0 8 5 15 10 15 6 0 10 9 10 19 0 11 5 23 10 26 5 3 10 17 10 31 0 13 4
24 9 24 8 0 14 23 27 113 4 20 10 37 14 37 4 0 11 21 14 47 33 254 40 560 18
808 -8 83 -16 178 -19 213 -2 34 -9 62 -14 62 -5 0 -9 29 -9 65 0 37 -4 65
-10 65 -6 0 -10 27 -10 60 0 33 -4 60 -10 60 -5 0 -10 23 -10 50 0 28 -4 50
-10 50 -5 0 -10 20 -10 45 0 25 -4 45 -9 45 -5 0 -11 19 -14 43 -3 23 -10 61
-16 85 -26 100 -30 119 -36 147 -4 17 -11 39 -15 50 -5 11 -16 49 -25 85 -9
36 -29 106 -46 157 -16 50 -29 101 -29 112 0 12 -4 21 -10 21 -5 0 -10 10 -10
22 0 20 -10 59 -30 113 -20 54 -30 93 -30 113 0 12 -4 22 -10 22 -5 0 -10 11
-10 25 0 14 -4 33 -9 43 -5 9 -15 37 -21 62 -7 25 -16 54 -20 65 -4 11 -13 40
-20 65 -7 25 -16 54 -21 65 -4 11 -20 63 -35 115 -16 52 -31 97 -35 100 -3 3
-9 19 -12 35 -3 17 -11 48 -17 70 -7 22 -14 55 -17 73 -3 18 -9 35 -14 38 -5
3 -9 18 -9 34 0 16 -4 31 -9 34 -5 3 -12 23 -15 43 -16 91 -19 103 -27 109 -5
3 -9 20 -9 39 0 19 -4 37 -10 40 -5 3 -10 24 -10 45 0 21 -4 42 -10 45 -5 3
-10 18 -10 32 0 15 -4 40 -9 57 -6 17 -15 58 -21 91 -6 33 -18 89 -26 125 -46
205 -67 490 -61 808 5 264 18 398 53 537 9 33 18 74 20 90 3 17 9 39 14 50 8
19 13 38 27 108 3 15 9 27 14 27 5 0 9 13 9 29 0 17 5 33 10 36 6 3 10 17 10
31 0 13 5 24 10 24 6 0 10 14 10 30 0 17 5 30 10 30 6 0 10 11 10 25 0 14 5
25 10 25 6 0 10 7 10 15 0 8 5 24 10 35 6 11 15 29 20 40 6 11 10 27 10 35 0
8 5 15 10 15 6 0 10 9 10 19 0 11 4 21 8 23 5 2 31 46 58 98 27 52 51 97 55
100 3 3 12 20 20 38 8 17 17 32 21 32 5 0 8 7 8 15 0 8 5 15 10 15 6 0 10 7
10 15 0 8 5 15 10 15 6 0 10 7 10 16 0 9 8 24 18 33 10 9 21 23 24 31 6 16
123 176 145 198 7 7 13 17 13 22 0 5 15 24 33 42 18 18 43 49 57 68 14 19 37
48 52 64 30 31 28 38 -14 77 -10 9 -18 22 -18 29 0 6 -13 25 -30 40 -16 15
-30 33 -30 40 0 7 -13 25 -30 40 -16 15 -30 32 -30 37 0 5 -8 18 -17 29 -10
10 -31 37 -47 59 -17 22 -38 47 -48 56 -10 9 -18 21 -18 26 0 6 -13 24 -30 41
-16 18 -30 36 -30 42 0 5 -4 10 -10 10 -5 0 -10 6 -10 13 0 7 -9 19 -20 27
-11 8 -20 20 -20 27 0 7 -4 13 -8 13 -4 0 -15 12 -24 28 -9 15 -25 37 -35 49
-37 45 -53 67 -53 75 0 4 -6 8 -14 8 -8 0 -17 6 -20 13 -5 10 -7 10 -12 0 -3
-7 -14 -13 -25 -13 -10 0 -19 -4 -19 -10 0 -5 -9 -10 -20 -10 -11 0 -20 -4
-20 -10 0 -5 -9 -10 -20 -10 -11 0 -20 -4 -20 -10 0 -5 -7 -10 -15 -10 -8 0
-23 -4 -33 -10 -33 -18 -214 -100 -222 -100 -5 0 -37 -13 -72 -28 -34 -15
-110 -43 -168 -61 -58 -18 -113 -37 -122 -42 -10 -5 -29 -9 -43 -9 -14 0 -25
-4 -25 -10 0 -5 -16 -10 -35 -10 -19 0 -35 -4 -35 -10 0 -5 -18 -10 -40 -10
-22 0 -40 -4 -40 -9 0 -5 -17 -11 -37 -14 -21 -3 -63 -11 -93 -17 -86 -17
-210 -37 -375 -61 -120 -17 -621 -17 -735 0 -47 7 -112 16 -145 21 -83 11
-134 20 -175 30 -19 5 -62 14 -95 20 -33 7 -69 16 -80 20 -21 9 -60 18 -112
27 -18 3 -33 9 -33 14 0 5 -16 9 -35 9 -19 0 -35 5 -35 10 0 6 -11 10 -24 10
-14 0 -27 4 -30 8 -3 4 -28 14 -55 22 -28 7 -51 17 -51 22 0 4 -13 8 -30 8
-16 0 -30 4 -30 8 0 5 -39 23 -86 42 -47 18 -92 39 -99 47 -8 7 -21 13 -29 13
-9 0 -16 5 -16 10 0 6 -6 10 -13 10 -18 0 -67 24 -67 33 0 4 -7 7 -15 7 -15 0
-55 19 -65 31 -3 3 -20 12 -37 20 -18 8 -33 17 -33 21 0 5 -9 8 -20 8 -11 0
-20 5 -20 10 0 17 -64 10 -90 -10z m3298 -745 c23 -25 42 -50 42 -55 0 -6 5
-10 10 -10 6 0 10 -7 10 -15 0 -8 5 -15 10 -15 6 0 10 -7 10 -15 0 -8 5 -15
10 -15 6 0 10 -9 10 -20 0 -11 5 -20 10 -20 6 0 10 -9 10 -19 0 -11 5 -23 10
-26 6 -3 10 -16 10 -29 0 -12 5 -27 10 -32 21 -21 33 -179 21 -276 -7 -51 -16
-97 -22 -102 -5 -6 -9 -22 -9 -37 0 -15 -4 -31 -10 -34 -5 -3 -10 -13 -10 -21
0 -8 -9 -34 -20 -56 -11 -23 -20 -48 -20 -55 0 -7 -4 -13 -10 -13 -5 0 -10 -9
-10 -20 0 -11 -4 -20 -8 -20 -5 0 -14 -16 -22 -35 -8 -19 -17 -35 -21 -35 -4
0 -9 -8 -12 -17 -8 -24 -39 -75 -57 -93 -8 -8 -26 -31 -40 -52 -30 -43 -85
-109 -145 -175 -25 -26 -45 -52 -45 -56 0 -10 -26 -37 -34 -37 -6 0 -20 -11
-111 -94 -27 -25 -53 -46 -57 -46 -5 0 -8 -7 -8 -15 0 -8 -6 -15 -14 -15 -8 0
-42 -27 -75 -60 -34 -33 -63 -60 -66 -60 -6 0 -45 -34 -119 -102 -23 -21 -44
-38 -48 -38 -5 0 -8 -6 -8 -14 0 -8 -8 -17 -18 -20 -10 -3 -41 -27 -69 -54
-28 -26 -75 -67 -104 -92 -30 -25 -75 -66 -102 -92 -27 -26 -63 -58 -80 -71
-18 -13 -46 -37 -63 -53 -17 -16 -57 -51 -89 -79 -57 -49 -81 -72 -161 -143
-67 -61 -104 -92 -109 -92 -2 0 -34 -29 -71 -65 l-66 -65 31 -29 c17 -16 31
-31 31 -34 0 -3 24 -30 53 -60 66 -70 128 -142 147 -173 8 -13 18 -24 22 -24
5 0 8 -7 8 -15 0 -8 5 -15 10 -15 6 0 10 -6 10 -13 0 -7 9 -23 20 -35 11 -12
20 -26 20 -32 0 -6 9 -20 20 -32 11 -12 20 -28 20 -35 0 -7 5 -13 10 -13 6 0
10 -9 10 -20 0 -11 4 -20 8 -20 5 0 26 -37 47 -82 21 -46 41 -85 44 -88 4 -3
13 -25 21 -50 7 -25 16 -49 20 -55 4 -5 12 -30 20 -55 7 -25 17 -49 22 -55 4
-5 8 -24 8 -42 0 -18 5 -33 10 -33 6 0 10 -18 10 -40 0 -22 5 -40 10 -40 6 0
10 -22 10 -49 0 -28 4 -52 9 -55 34 -21 34 -686 0 -686 -5 0 -9 -22 -9 -50 0
-27 -4 -50 -10 -50 -5 0 -10 -20 -10 -45 0 -25 -4 -45 -10 -45 -5 0 -10 -14
-10 -30 0 -17 -4 -38 -10 -48 -5 -9 -19 -46 -30 -82 -24 -72 -29 -85 -90 -217
-24 -51 -47 -93 -51 -93 -5 0 -9 -7 -9 -15 0 -8 -5 -24 -12 -35 -10 -16 -9
-22 8 -37 39 -33 134 -197 134 -230 0 -7 4 -13 9 -13 5 0 12 -17 15 -37 29
-164 32 -173 62 -173 12 0 26 -4 29 -10 3 -5 19 -10 36 -10 16 0 29 -4 29 -10
0 -5 13 -10 29 -10 17 0 33 -4 36 -10 3 -5 17 -10 31 -10 26 0 68 -39 169
-156 28 -32 74 -83 103 -112 28 -29 52 -56 52 -60 0 -4 24 -33 53 -64 28 -31
75 -82 102 -113 28 -32 70 -78 95 -104 25 -26 61 -67 80 -90 19 -24 41 -49 48
-56 6 -8 12 -16 12 -18 0 -3 28 -34 63 -70 34 -35 80 -85 102 -111 22 -27 64
-73 93 -103 28 -31 52 -60 52 -65 0 -6 14 -23 30 -38 30 -28 38 -54 20 -65 -5
-3 -10 -15 -10 -26 0 -10 -4 -28 -10 -39 -5 -11 -14 -29 -20 -40 -5 -11 -10
-27 -10 -35 0 -8 -4 -23 -9 -33 -5 -9 -14 -37 -21 -62 -7 -25 -16 -53 -21 -62
-5 -10 -9 -25 -9 -33 0 -8 -4 -24 -10 -35 -5 -11 -14 -29 -20 -40 -5 -11 -10
-31 -10 -45 0 -14 -4 -25 -10 -25 -5 0 -10 -13 -10 -30 0 -16 -4 -30 -10 -30
-5 0 -10 -13 -10 -29 0 -16 -7 -34 -15 -41 -8 -7 -15 -18 -15 -25 0 -14 -37
-54 -84 -93 -33 -28 -111 -39 -143 -20 -12 7 -50 30 -85 50 -35 20 -76 48 -92
62 -16 15 -33 26 -38 26 -12 0 -238 230 -238 242 0 6 -13 23 -30 38 -16 15
-30 33 -30 40 0 7 -12 24 -28 38 -15 15 -33 39 -41 55 -8 15 -18 27 -23 27 -4
0 -8 5 -8 10 0 9 -114 185 -140 217 -6 7 -10 19 -10 28 0 8 -4 15 -10 15 -5 0
-10 7 -10 15 0 8 -4 15 -8 15 -5 0 -14 16 -22 35 -8 19 -17 35 -22 35 -4 0 -8
6 -8 14 0 8 -3 16 -7 18 -5 2 -24 33 -43 70 -19 38 -38 68 -42 68 -5 0 -8 4
-8 9 0 5 -25 53 -55 106 -30 54 -55 101 -55 106 0 5 -4 9 -10 9 -5 0 -10 9
-10 20 0 11 -4 20 -10 20 -5 0 -10 9 -10 20 0 11 -4 20 -10 20 -5 0 -10 6 -10
14 0 8 -3 16 -7 18 -5 2 -18 23 -31 48 -42 81 -67 125 -73 130 -4 3 -23 37
-43 75 -20 39 -45 84 -55 100 -40 66 -61 106 -61 118 0 7 -9 19 -20 27 -11 8
-20 20 -20 27 0 20 -17 15 -44 -12 -14 -14 -29 -25 -34 -25 -4 0 -17 -8 -28
-18 -10 -10 -41 -33 -69 -52 -27 -19 -52 -38 -55 -41 -3 -3 -20 -14 -39 -24
-19 -9 -43 -26 -54 -36 -12 -10 -27 -19 -34 -19 -7 0 -13 -4 -13 -10 0 -5 -9
-10 -20 -10 -11 0 -20 -4 -20 -10 0 -5 -7 -10 -15 -10 -8 0 -15 -4 -15 -10 0
-5 -9 -10 -20 -10 -11 0 -20 -4 -20 -10 0 -5 -9 -10 -20 -10 -11 0 -20 -4 -20
-10 0 -5 -9 -10 -20 -10 -11 0 -20 -4 -20 -10 0 -5 -7 -10 -15 -10 -8 0 -23
-4 -33 -9 -16 -8 -37 -17 -94 -40 -13 -5 -41 -17 -63 -27 -73 -32 -258 -78
-390 -96 -104 -15 -468 -15 -570 0 -44 6 -98 14 -120 17 -22 4 -49 10 -60 15
-11 5 -49 16 -85 25 -62 15 -98 26 -147 46 -13 5 -34 14 -48 19 -14 6 -36 15
-50 20 -61 24 -81 33 -97 41 -10 5 -25 9 -33 9 -8 0 -15 5 -15 10 0 6 -9 10
-20 10 -11 0 -20 5 -20 10 0 6 -9 10 -20 10 -11 0 -20 5 -20 10 0 6 -9 10 -20
10 -11 0 -20 3 -20 8 0 4 -15 13 -32 21 -18 8 -35 17 -38 20 -3 3 -25 17 -50
31 -25 13 -49 28 -55 32 -5 4 -41 29 -80 55 -38 25 -71 50 -73 55 -2 4 -10 8
-18 8 -8 0 -14 5 -14 10 0 6 -7 10 -15 10 -8 0 -15 5 -15 10 0 6 -7 10 -15 10
-8 0 -15 5 -15 10 0 30 -79 -23 -80 -53 0 -5 -12 -21 -28 -35 -15 -15 -50 -54
-77 -87 -28 -32 -74 -83 -102 -112 -29 -30 -53 -58 -53 -63 0 -5 -15 -24 -32
-42 -18 -18 -55 -60 -83 -93 -27 -33 -66 -76 -85 -95 -20 -19 -47 -51 -60 -70
-14 -19 -38 -48 -54 -65 -15 -16 -47 -52 -70 -79 -22 -28 -65 -74 -94 -103
-28 -29 -52 -57 -52 -61 0 -5 -19 -29 -43 -54 -23 -26 -60 -67 -82 -93 -22
-26 -51 -60 -65 -75 -25 -28 -46 -52 -130 -149 -25 -29 -62 -71 -83 -94 -20
-23 -40 -50 -43 -59 -3 -10 -12 -18 -20 -18 -8 0 -14 -3 -14 -7 0 -5 -16 -26
-36 -48 -19 -22 -50 -57 -67 -79 -18 -21 -53 -61 -79 -88 l-47 -49 -91 91
c-49 50 -90 95 -90 101 0 15 23 50 55 83 17 17 53 58 80 90 28 33 60 70 73 82
12 13 22 28 22 34 0 5 5 10 10 10 6 0 10 5 10 10 0 6 19 30 43 53 23 24 56 61
72 82 17 22 40 49 51 61 12 12 32 37 45 56 13 18 45 55 71 81 27 27 48 53 48
58 0 5 20 30 45 55 25 24 45 48 45 52 0 4 32 41 70 81 39 41 70 78 70 84 0 5
12 21 28 35 15 15 43 47 62 72 19 24 42 52 50 61 55 60 70 78 70 84 0 4 17 23
38 43 21 20 49 53 62 72 13 19 31 42 40 50 8 8 37 42 65 75 27 33 61 72 76 87
15 14 31 33 36 41 12 22 63 84 106 131 21 22 46 53 55 69 9 15 20 27 24 27 10
0 11 40 1 40 -5 0 -19 23 -32 50 -14 28 -29 50 -33 50 -4 0 -8 9 -8 20 0 11
-4 20 -10 20 -5 0 -10 11 -10 25 0 14 -4 25 -10 25 -5 0 -10 9 -10 20 0 11 -4
20 -10 20 -5 0 -10 9 -10 20 0 11 -4 20 -10 20 -5 0 -10 9 -10 20 0 11 -4 20
-10 20 -5 0 -10 7 -10 15 0 15 -4 24 -34 82 -19 38 -65 157 -73 191 -3 12 -9
22 -13 22 -4 0 -10 15 -13 33 -3 17 -10 50 -17 72 -6 22 -16 57 -21 78 -5 20
-14 56 -20 80 -6 23 -13 65 -16 92 -3 28 -9 54 -14 60 -5 5 -9 58 -9 117 0 65
-4 108 -10 108 -6 0 -10 30 -10 69 0 39 5 73 10 76 6 3 10 52 10 111 0 63 4
104 10 104 6 0 10 19 10 42 0 23 4 55 9 72 5 17 14 50 20 74 22 88 35 127 43
137 4 5 8 17 8 26 0 10 7 30 15 46 8 15 29 62 47 103 18 41 36 77 40 78 5 2 8
12 8 23 0 10 5 19 10 19 6 0 10 9 10 20 0 11 4 20 9 20 5 0 11 8 14 18 8 23
40 76 50 80 4 2 7 12 7 23 0 10 5 19 10 19 6 0 10 7 10 15 0 8 5 15 10 15 6 0
10 7 10 15 0 8 5 15 10 15 6 0 10 7 10 15 0 8 5 15 10 15 6 0 10 7 10 15 0 7
6 18 13 22 6 4 25 28 42 52 16 24 35 45 42 48 7 3 13 11 13 18 0 7 18 31 40
54 22 22 40 44 40 47 0 3 6 11 13 19 6 7 28 32 47 56 19 24 52 59 73 78 20 20
37 40 37 45 0 9 -629 636 -637 636 -9 0 -53 50 -53 60 0 5 -4 10 -8 10 -10 0
-52 35 -52 43 0 6 -109 117 -115 117 -5 0 -291 279 -671 655 -123 121 -270
265 -328 320 -58 55 -105 103 -106 106 0 7 -69 79 -75 79 -2 0 -56 51 -119
113 -80 77 -116 119 -116 135 0 12 5 22 10 22 6 0 10 7 10 15 0 18 44 65 61
65 6 0 24 -14 39 -30 15 -16 31 -30 34 -30 6 0 32 -23 114 -97 25 -24 50 -43
54 -43 4 0 8 -7 8 -15 0 -8 6 -15 13 -15 7 0 36 -22 65 -50 29 -27 55 -50 58
-50 3 0 15 -10 28 -22 12 -13 47 -43 76 -68 90 -77 180 -155 233 -204 18 -16
48 -41 67 -55 19 -14 53 -44 76 -66 22 -22 62 -58 88 -79 26 -21 60 -51 75
-65 43 -39 71 -61 76 -61 3 0 25 -19 48 -42 24 -24 69 -65 101 -93 33 -27 71
-61 86 -75 44 -40 70 -60 76 -60 3 0 22 -17 42 -37 21 -21 69 -65 107 -98 38
-33 83 -72 99 -87 16 -16 33 -28 37 -28 5 0 38 -29 75 -65 37 -36 70 -65 74
-65 4 0 34 -27 68 -60 33 -33 64 -60 69 -60 5 0 36 -26 69 -57 33 -32 80 -74
104 -93 25 -19 64 -54 88 -77 24 -24 47 -43 51 -43 4 0 34 -26 67 -57 74 -71
139 -123 154 -123 20 0 90 25 90 32 0 5 14 8 30 8 17 0 30 5 30 10 0 6 14 10
30 10 17 0 30 5 30 10 0 6 14 10 30 10 17 0 30 5 30 10 0 6 16 10 35 10 19 0
35 4 35 9 0 5 15 11 33 14 54 9 91 18 112 27 11 5 38 11 60 15 61 9 143 23
215 36 86 16 475 16 560 0 106 -20 173 -31 213 -37 20 -4 40 -10 43 -15 3 -5
20 -9 39 -9 19 0 37 -4 40 -10 3 -5 17 -10 30 -10 13 0 27 -4 30 -10 3 -5 17
-10 31 -10 13 0 24 -4 24 -10 0 -5 14 -10 30 -10 17 0 30 -4 30 -10 0 -5 9
-10 19 -10 11 0 23 -4 26 -10 3 -5 17 -10 31 -10 13 0 24 -4 24 -10 0 -5 9
-10 20 -10 11 0 20 -4 20 -10 0 -5 8 -10 18 -11 9 0 31 -9 47 -19 17 -10 59
-33 95 -51 36 -17 67 -35 70 -38 11 -14 60 -41 74 -41 8 0 84 70 170 155 86
85 158 155 161 155 5 0 76 64 151 138 29 28 57 52 62 52 4 0 24 15 44 33 19
17 57 50 82 72 26 22 66 57 88 78 23 20 44 37 48 37 3 0 28 20 53 45 26 25 52
45 57 45 6 0 10 5 10 10 0 6 5 10 10 10 6 0 21 10 34 23 13 12 39 35 58 50 20
15 51 41 69 57 19 16 37 30 42 30 4 0 7 7 7 15 0 8 6 15 13 15 6 0 35 21 62
45 28 25 84 76 125 113 125 112 309 306 319 335 2 6 9 17 15 23 29 31 46 55
46 67 0 7 9 19 20 27 11 8 20 22 20 32 0 10 5 18 10 18 6 0 10 9 10 20 0 11 5
20 10 20 6 0 10 8 10 18 0 10 4 22 9 28 17 16 49 127 66 222 14 84 14 100 0
185 -17 103 -52 224 -66 232 -22 14 -6 52 37 88 25 20 49 37 53 37 4 0 26 -20
49 -45z m-2996 -154 c2 -6 24 -11 51 -12 26 -2 47 -6 47 -11 0 -4 10 -8 23 -8
12 0 33 -9 47 -20 14 -11 29 -20 34 -20 6 0 20 -10 33 -21 l22 -22 36 24 c19
13 35 27 35 32 0 4 7 7 16 7 17 0 44 -23 44 -38 0 -5 9 -17 20 -27 26 -23 26
-26 -10 -63 -30 -31 -40 -75 -20 -87 6 -3 10 -17 10 -31 0 -13 4 -24 8 -24 4
0 13 -21 20 -47 7 -27 18 -64 23 -83 6 -20 8 -95 6 -175 -5 -151 -14 -222 -28
-231 -5 -3 -9 -16 -9 -29 0 -13 -3 -25 -7 -27 -5 -1 -19 -25 -33 -53 -39 -78
-106 -137 -217 -194 -35 -17 -74 -32 -88 -33 -14 -1 -25 -6 -25 -10 0 -13
-276 -9 -307 3 -75 31 -119 57 -166 101 -69 64 -89 69 -126 29 -16 -17 -34
-31 -40 -31 -15 0 -81 66 -81 80 0 6 23 33 50 60 46 45 64 80 40 80 -5 0 -10
9 -10 20 0 11 -4 20 -10 20 -5 0 -10 10 -10 23 0 13 -6 29 -12 36 -17 16 -18
328 -1 362 6 13 17 45 24 72 8 26 17 47 21 47 4 0 8 9 8 20 0 11 5 20 10 20 6
0 10 7 10 15 0 8 5 15 10 15 6 0 10 7 10 15 0 8 5 15 10 15 6 0 10 5 10 10 0
14 106 120 120 120 5 0 10 5 10 10 0 6 9 10 20 10 11 0 20 5 20 10 0 6 11 10
24 10 14 0 28 5 31 10 3 6 28 10 56 10 27 0 49 5 49 10 0 13 187 13 192 1z
m-1200 -232 c103 -20 181 -80 223 -172 70 -151 55 -313 -39 -422 -14 -16 -26
-35 -26 -42 0 -6 -6 -13 -12 -16 -14 -5 33 -57 52 -57 5 0 10 -4 10 -10 0 -5
20 -23 45 -40 25 -17 56 -41 68 -53 13 -12 33 -29 46 -37 22 -14 41 -31 104
-86 15 -13 30 -24 33 -24 7 0 37 -30 33 -33 -2 -1 -14 -8 -26 -14 -13 -7 -32
-13 -42 -13 -11 0 -23 -4 -26 -10 -3 -5 -17 -10 -31 -10 -13 0 -24 -4 -24 -10
0 -5 -13 -10 -29 -10 -17 0 -33 -4 -36 -10 -14 -22 -75 -11 -108 20 -18 16
-35 30 -39 30 -4 0 -29 20 -55 45 -25 25 -50 45 -54 45 -5 0 -18 10 -31 23
-43 41 -103 85 -140 100 -41 17 -73 10 -138 -31 -19 -12 -38 -23 -42 -24 -9
-3 33 -131 45 -136 4 -2 7 -12 7 -22 0 -10 5 -22 10 -25 6 -3 10 -17 10 -31 0
-13 5 -24 10 -24 6 0 10 -9 10 -20 0 -11 4 -28 9 -38 31 -60 43 -104 33 -118
-4 -6 -28 -17 -54 -25 -27 -7 -48 -17 -48 -21 0 -4 -9 -8 -20 -8 -11 0 -20 -3
-20 -8 0 -8 -71 -32 -95 -32 -10 0 -15 10 -15 30 0 17 -4 30 -8 30 -5 0 -15
23 -22 51 -8 27 -18 52 -22 55 -4 3 -8 14 -8 25 0 10 -4 19 -10 19 -5 0 -10
11 -10 25 0 14 -4 25 -10 25 -5 0 -10 11 -10 25 0 14 -4 25 -10 25 -5 0 -10
14 -10 30 0 17 -4 30 -10 30 -5 0 -10 7 -10 15 0 8 -4 23 -9 33 -12 23 -26 59
-41 102 -7 19 -20 53 -30 75 -10 22 -26 60 -35 85 -22 57 -55 141 -64 160 -4
8 -14 36 -22 63 -7 26 -16 47 -19 47 -4 0 -13 23 -20 50 -7 28 -17 50 -22 50
-4 0 -8 13 -8 29 0 26 6 31 68 56 37 15 72 30 77 34 6 5 31 14 58 22 26 7 47
16 47 19 0 4 23 13 50 20 28 7 50 17 50 22 0 4 11 8 24 8 14 0 28 5 31 10 3 6
15 10 26 10 10 0 19 5 19 10 0 6 8 10 18 10 10 0 37 9 60 20 22 11 48 20 56
20 8 0 18 5 21 10 3 6 21 10 38 10 18 0 39 5 47 10 20 13 57 12 122 -1z m2438
-79 c0 -5 9 -10 20 -10 11 0 20 -4 20 -10 0 -5 7 -10 15 -10 8 0 23 -4 33 -9
9 -4 40 -20 67 -33 46 -23 50 -29 53 -64 6 -64 -39 -1228 -48 -1237 -4 -5 -37
3 -72 17 -36 14 -70 26 -76 26 -7 0 -12 4 -12 9 0 5 -13 11 -30 15 l-30 6 0
138 c0 134 -1 139 -22 149 -69 33 -120 53 -133 53 -8 0 -15 5 -15 10 0 6 -9
10 -20 10 -11 0 -20 5 -20 10 0 6 -11 10 -24 10 -14 0 -28 5 -31 10 -3 6 -15
10 -26 10 -10 0 -19 5 -19 10 0 6 -11 10 -25 10 -14 0 -25 3 -25 8 0 7 -48 32
-63 32 -10 0 -107 -100 -107 -111 0 -14 -59 -69 -74 -69 -9 0 -25 5 -36 10
-11 6 -29 15 -40 20 -11 6 -27 10 -35 10 -8 0 -15 5 -15 10 0 6 -9 10 -20 10
-11 0 -20 5 -20 10 0 6 -8 10 -19 10 -10 0 -24 7 -31 14 -9 12 -2 25 42 69 29
29 85 89 123 132 39 43 104 113 145 155 41 42 107 112 145 155 39 43 102 110
140 149 60 61 208 224 240 263 12 15 45 17 45 3z m1490 -3530 c0 -401 1 -731
3 -732 1 -1 135 -5 297 -8 l295 -5 3 -179 c2 -137 -1 -181 -10 -188 -7 -4
-239 -8 -515 -8 l-503 0 0 925 0 925 215 0 215 0 0 -730z m-5610 -220 l0 -930
-215 0 -215 0 0 930 0 930 215 0 215 0 0 -930z m599 -2722 c25 -13 41 -29 41
-40 0 -10 -4 -18 -10 -18 -5 0 -10 -9 -10 -20 0 -11 -4 -20 -10 -20 -5 0 -10
-9 -10 -19 0 -11 -4 -23 -10 -26 -5 -3 -10 -15 -10 -26 0 -10 -4 -19 -10 -19
-5 0 -10 -6 -10 -13 0 -8 -13 -41 -30 -75 -16 -34 -30 -69 -30 -77 0 -8 -4
-15 -10 -15 -5 0 -10 -9 -10 -20 0 -11 -4 -20 -9 -20 -5 0 -13 -10 -17 -22 -3
-13 -25 -60 -47 -105 -29 -59 -46 -83 -59 -83 -10 0 -18 5 -18 10 0 6 -6 10
-13 10 -7 0 -25 6 -40 13 -27 12 -35 31 -17 42 6 3 10 15 10 26 0 10 5 19 10
19 6 0 10 11 10 25 0 14 5 25 10 25 6 0 10 9 10 20 0 11 5 20 10 20 6 0 10 9
10 20 0 11 5 20 10 20 6 0 10 9 10 20 0 11 5 20 10 20 6 0 10 7 10 15 0 8 14
44 32 79 27 54 30 67 19 80 -8 9 -22 16 -32 16 -11 0 -19 5 -19 10 0 6 -7 10
-16 10 -22 0 -44 25 -44 50 0 39 57 69 75 40 3 -5 30 -10 58 -10 45 0 55 4 77
29 14 16 28 30 32 30 3 1 25 -9 47 -21z m4006 -128 c3 -5 14 -10 23 -10 19 -1
112 -83 112 -99 0 -6 5 -11 10 -11 6 0 10 -7 10 -16 0 -8 7 -22 15 -30 8 -9
18 -27 22 -42 3 -15 9 -29 12 -32 12 -10 30 -76 37 -130 12 -102 -24 -172
-111 -217 -79 -40 -146 -53 -183 -34 -9 5 -30 15 -47 22 -35 16 -75 53 -75 70
0 6 -8 19 -18 28 -31 28 -93 168 -105 235 -15 86 1 137 58 191 62 59 72 65 99
65 14 0 28 5 31 10 3 6 28 10 55 10 27 0 52 -4 55 -10z m-3597 -26 c18 -8 32
-17 32 -18 0 -10 -50 -167 -58 -182 -14 -28 -52 -149 -52 -168 0 -9 -4 -16
-10 -16 -5 0 -10 -13 -10 -30 0 -16 -4 -30 -10 -30 -5 0 -10 -13 -10 -30 0
-16 -4 -30 -10 -30 -5 0 -10 -13 -10 -30 0 -16 -4 -30 -10 -30 -5 0 -10 -13
-10 -30 0 -43 -23 -51 -83 -29 -27 10 -51 20 -53 22 -2 2 12 50 31 108 20 57
42 127 51 154 9 28 20 58 25 67 5 10 9 27 9 38 0 11 5 20 10 20 6 0 10 9 10
20 0 11 -7 20 -15 20 -8 0 -15 5 -15 10 0 6 -7 10 -15 10 -28 0 -95 25 -95 35
0 5 5 26 10 46 l10 36 54 -10 c29 -5 64 -7 78 -4 29 8 68 39 68 56 0 16 42 14
78 -5z m2995 -186 c15 -7 27 -16 27 -20 0 -5 7 -8 15 -8 8 0 15 -6 15 -13 0
-7 9 -23 20 -35 11 -12 20 -28 20 -37 0 -8 5 -15 10 -15 6 0 10 -11 10 -25 0
-14 5 -25 10 -25 6 0 10 -13 10 -29 0 -17 5 -33 10 -36 15 -9 13 -230 -2 -257
-21 -35 -76 -88 -93 -88 -8 0 -15 -4 -15 -10 0 -5 -20 -10 -45 -10 -25 0 -45
-4 -45 -10 0 -5 -13 -10 -30 -10 -16 0 -30 5 -30 10 0 6 -13 10 -30 10 -16 0
-30 5 -30 10 0 6 -7 10 -15 10 -35 0 -89 81 -126 187 -25 71 -36 213 -20 268
11 41 60 105 80 105 6 0 11 5 11 10 0 6 11 10 25 10 14 0 25 5 25 10 0 15 161
12 193 -2z m-2307 -54 c4 -14 1 -37 -5 -50 -6 -14 -11 -37 -11 -51 0 -15 -4
-40 -10 -57 -5 -17 -21 -94 -35 -171 -51 -280 -58 -305 -81 -305 -8 0 -34 6
-60 12 -45 12 -46 13 -39 48 3 19 8 53 11 75 3 22 9 49 14 60 5 11 11 38 14
60 3 22 10 65 16 95 25 127 26 117 -17 124 -112 19 -103 14 -103 62 l0 44 69
0 c64 0 72 2 100 31 17 17 31 35 31 40 0 5 22 9 50 9 45 0 50 -2 56 -26z
m1632 -40 c27 -5 102 -71 102 -89 0 -8 6 -20 13 -27 21 -21 39 -146 34 -228
-7 -95 -17 -150 -27 -150 -5 0 -11 -8 -15 -19 -9 -29 -36 -56 -80 -81 -49 -28
-174 -33 -215 -10 -47 27 -80 58 -80 74 0 9 -4 16 -10 16 -5 0 -10 9 -10 20 0
18 7 20 63 20 51 0 65 -4 77 -20 11 -15 26 -20 58 -20 50 0 80 24 100 81 19
56 17 59 -35 43 -70 -21 -132 -18 -189 11 -73 36 -94 78 -94 189 0 51 4 86 10
86 6 0 10 6 10 14 0 18 47 64 84 81 46 21 127 25 204 9z m-1223 -4 c25 -9 27
-14 21 -48 -4 -20 -9 -67 -12 -104 -4 -38 -10 -68 -15 -68 -5 0 -9 -31 -9 -69
0 -39 -4 -73 -10 -76 -5 -3 -10 -37 -10 -76 0 -39 -4 -69 -10 -69 -6 0 -10
-30 -10 -69 0 -51 -4 -70 -15 -74 -17 -7 -114 3 -120 12 -2 4 8 85 21 181 40
281 39 260 16 260 -12 0 -24 5 -27 10 -3 6 -28 10 -56 10 l-49 0 0 39 c0 22 6
43 13 48 6 4 38 8 70 9 46 1 63 6 82 24 14 13 25 27 25 32 0 33 47 46 95 28z
m709 -52 c3 -18 10 -96 16 -173 6 -77 15 -176 20 -220 5 -44 11 -115 13 -157
l4 -77 -29 -6 c-15 -3 -41 -8 -57 -11 -47 -9 -45 -20 -67 333 -4 65 -11 107
-20 113 -9 8 -30 8 -74 -1 -72 -14 -80 -8 -80 54 0 34 2 37 30 37 55 0 120 39
120 72 0 10 4 18 9 18 5 0 11 9 14 19 3 14 16 21 43 24 22 2 42 4 46 5 4 1 9
-13 12 -30z m-1573 -24 c35 -37 34 -100 -3 -137 -60 -60 -158 -19 -158 66 0
84 105 131 161 71z m1157 -247 c40 -37 24 -147 -22 -147 -9 0 -16 -4 -16 -10
0 -14 -41 -13 -72 2 -32 15 -58 57 -58 91 0 29 34 75 64 87 29 12 77 2 104
-23z"/>
<path d="M6110 7893 c0 -39 30 -1272 57 -2334 l5 -207 -48 -12 c-68 -16 -156
-28 -171 -22 -7 2 -13 17 -13 33 0 16 -4 29 -10 29 -5 0 -10 16 -10 35 0 19
-4 35 -9 35 -8 0 -14 23 -27 113 -4 20 -10 40 -15 43 -5 3 -9 20 -9 38 0 17
-4 36 -9 42 -8 8 -20 54 -53 194 -5 25 -14 49 -19 54 -5 6 -9 25 -9 43 0 18
-4 33 -10 33 -5 0 -10 18 -10 40 0 22 -4 40 -10 40 -5 0 -10 15 -10 34 0 19
-4 38 -10 41 -5 3 -10 22 -10 41 0 19 -4 34 -10 34 -5 0 -10 18 -10 40 0 22
-4 40 -10 40 -5 0 -10 18 -10 40 0 22 -4 40 -10 40 -5 0 -10 16 -10 35 0 19
-4 35 -10 35 -5 0 -10 15 -10 34 0 19 -4 38 -10 41 -5 3 -10 21 -10 40 0 19
-4 37 -10 40 -5 3 -10 16 -10 27 0 12 -4 35 -9 52 -6 17 -18 58 -27 91 -9 33
-21 65 -25 71 -6 8 -33 4 -91 -12 -156 -43 -143 -36 -139 -80 1 -21 7 -47 12
-56 5 -9 9 -28 9 -42 0 -14 5 -26 10 -26 6 0 10 -16 10 -35 0 -19 5 -35 10
-35 6 0 10 -18 10 -40 0 -22 5 -40 10 -40 6 0 10 -18 10 -40 0 -22 5 -40 10
-40 6 0 10 -16 10 -35 0 -19 5 -35 10 -35 6 0 10 -13 10 -29 0 -17 5 -33 10
-36 6 -3 10 -21 10 -40 0 -19 5 -37 10 -40 6 -3 10 -21 10 -40 0 -18 4 -35 8
-37 8 -3 90 -296 99 -356 3 -18 9 -35 14 -38 5 -3 9 -18 9 -34 0 -16 5 -32 10
-35 6 -3 10 -21 10 -40 0 -19 5 -37 10 -40 6 -3 10 -22 10 -41 0 -19 5 -34 10
-34 6 0 10 -16 10 -35 0 -19 5 -35 10 -35 6 0 10 -16 10 -35 0 -19 5 -35 10
-35 6 0 10 -18 10 -40 0 -22 5 -40 10 -40 6 0 10 -9 10 -21 0 -23 -22 -49 -41
-49 -6 0 -19 -8 -28 -18 -15 -18 -53 -42 -65 -42 -3 0 -6 7 -6 15 0 9 -9 26
-20 38 -26 29 -90 126 -90 138 0 5 -4 9 -10 9 -5 0 -10 7 -10 15 0 8 -4 15
-10 15 -5 0 -10 7 -10 15 0 8 -4 15 -10 15 -5 0 -10 7 -10 15 0 8 -4 15 -10
15 -5 0 -10 8 -10 18 0 10 -9 24 -20 32 -11 8 -20 20 -20 28 0 7 -8 22 -18 33
-11 10 -25 32 -33 47 -8 15 -21 35 -30 45 -9 10 -29 41 -44 70 -16 29 -37 59
-47 68 -10 9 -18 22 -18 28 0 7 -9 21 -20 33 -11 12 -20 28 -20 35 0 7 -4 13
-10 13 -5 0 -10 7 -10 15 0 8 -4 15 -10 15 -5 0 -10 7 -10 15 0 8 -4 15 -10
15 -5 0 -10 7 -10 15 0 8 -4 15 -9 15 -5 0 -14 14 -21 30 -7 17 -16 30 -21 30
-5 0 -9 7 -9 16 0 9 -8 24 -19 33 -10 9 -27 34 -39 57 -11 22 -28 46 -36 53
-9 8 -16 20 -16 27 0 8 -4 14 -10 14 -5 0 -10 7 -10 15 0 8 -4 15 -10 15 -5 0
-10 6 -10 13 0 7 -9 23 -20 35 -11 12 -20 27 -20 34 0 8 -9 20 -20 28 -11 8
-20 22 -20 32 0 10 -4 18 -10 18 -5 0 -10 -4 -10 -10 0 -5 -7 -10 -15 -10 -8
0 -15 -4 -15 -10 0 -5 -7 -10 -15 -10 -8 0 -15 -4 -15 -10 0 -5 -7 -10 -15
-10 -8 0 -15 -3 -15 -7 0 -5 -20 -21 -44 -36 -36 -22 -43 -32 -38 -50 3 -12 8
-24 12 -27 8 -7 70 -109 70 -116 0 -3 6 -12 13 -19 30 -34 37 -45 37 -57 0 -8
9 -20 20 -28 11 -8 20 -22 20 -32 0 -10 5 -18 10 -18 6 0 10 -7 10 -15 0 -8 5
-15 10 -15 6 0 10 -9 10 -20 0 -11 5 -20 10 -20 6 0 10 -7 10 -15 0 -8 5 -15
10 -15 6 0 10 -7 10 -15 0 -8 5 -15 10 -15 6 0 10 -6 10 -13 0 -7 9 -23 20
-35 11 -12 20 -26 20 -32 0 -6 5 -16 10 -23 6 -7 30 -43 55 -82 24 -38 49 -75
55 -82 5 -7 10 -18 10 -25 0 -8 9 -20 20 -28 11 -8 20 -22 20 -32 0 -10 5 -18
10 -18 6 0 10 -7 10 -16 0 -9 8 -24 18 -33 10 -9 25 -31 33 -48 7 -18 17 -33
21 -33 5 0 8 -5 8 -10 0 -6 15 -33 34 -61 19 -27 38 -58 41 -69 4 -11 10 -20
15 -20 4 0 10 -8 14 -17 5 -18 26 -53 36 -63 3 -3 12 -18 20 -35 8 -16 19 -33
24 -36 5 -4 -6 -22 -25 -41 -19 -20 -41 -45 -49 -58 -14 -21 -46 -60 -90 -107
-11 -12 -20 -27 -20 -33 0 -5 -4 -10 -9 -10 -5 0 -16 -15 -24 -32 -15 -30 -14
-34 1 -48 9 -9 32 -23 50 -30 17 -8 32 -18 32 -22 0 -5 7 -8 15 -8 8 0 15 -4
15 -10 0 -5 7 -10 15 -10 8 0 15 -4 15 -10 0 -5 9 -10 20 -10 11 0 20 -4 20
-10 0 -5 9 -10 20 -10 11 0 20 -4 20 -10 0 -5 9 -10 20 -10 11 0 20 -4 20 -10
0 -5 9 -10 20 -10 11 0 20 -4 20 -10 0 -5 9 -10 20 -10 11 0 20 -4 20 -10 0
-5 6 -10 13 -10 6 0 23 -6 37 -13 14 -7 59 -24 100 -37 41 -14 77 -28 80 -31
3 -3 19 -9 35 -12 17 -3 50 -11 75 -17 25 -7 66 -14 93 -17 26 -3 47 -9 47
-14 0 -5 32 -9 70 -9 40 0 70 -4 70 -10 0 -6 73 -10 200 -10 127 0 200 4 200
10 0 6 30 10 70 10 39 0 70 4 70 9 0 5 21 12 48 15 94 11 132 18 138 27 3 5
14 9 26 9 26 0 282 91 286 102 2 4 12 8 23 8 10 0 19 5 19 10 0 6 9 10 19 10
11 0 23 5 26 10 3 6 15 10 26 10 11 0 17 5 14 10 -4 6 5 10 19 10 14 0 26 5
26 10 0 6 9 10 20 10 11 0 20 5 20 10 0 6 6 10 13 10 7 0 23 9 35 20 12 11 26
20 32 20 17 0 40 26 40 44 0 9 -4 16 -10 16 -5 0 -10 9 -10 20 0 11 -4 20 -9
20 -4 0 -19 20 -32 45 -13 25 -27 45 -31 45 -5 0 -8 7 -8 15 0 9 -5 21 -10 28
-21 25 -63 93 -75 120 -11 25 -8 36 28 105 22 42 44 79 49 80 4 2 8 12 8 23 0
10 4 19 8 19 4 0 19 22 33 50 13 27 27 50 32 50 4 0 7 9 7 20 0 11 5 20 10 20
6 0 10 7 10 15 0 8 5 15 10 15 6 0 10 9 10 20 0 11 5 20 10 20 6 0 10 9 10 19
0 11 4 21 8 23 8 3 99 163 114 199 4 10 11 20 17 24 6 3 11 15 11 26 0 10 4
19 9 19 5 0 14 14 21 30 7 17 16 30 21 30 5 0 9 9 9 20 0 11 5 20 10 20 6 0
10 9 10 20 0 11 5 20 10 20 6 0 10 7 10 15 0 8 5 15 10 15 6 0 10 9 10 20 0
11 5 20 10 20 6 0 10 9 10 20 0 11 4 20 8 20 5 0 17 19 28 41 10 23 23 47 29
53 6 6 28 45 49 86 22 41 47 87 58 102 10 14 18 31 18 37 0 6 5 11 10 11 6 0
10 9 10 20 0 11 5 20 10 20 6 0 10 5 10 10 0 6 -7 10 -15 10 -8 0 -15 5 -15
10 0 6 -7 10 -15 10 -8 0 -15 5 -15 10 0 6 -9 10 -20 10 -11 0 -20 3 -20 8 0
4 -15 14 -32 21 -18 8 -39 21 -46 28 -18 18 -52 16 -52 -2 0 -8 -4 -15 -10
-15 -5 0 -10 -9 -10 -20 0 -11 -4 -20 -10 -20 -5 0 -10 -9 -10 -20 0 -11 -4
-20 -10 -20 -5 0 -10 -9 -10 -20 0 -11 -3 -20 -8 -20 -4 0 -23 -30 -42 -67
-19 -38 -37 -70 -40 -73 -8 -8 -27 -40 -57 -97 -15 -29 -31 -53 -35 -53 -4 0
-8 -9 -8 -20 0 -11 -4 -20 -10 -20 -5 0 -10 -9 -10 -20 0 -11 -4 -20 -10 -20
-5 0 -10 -9 -10 -20 0 -11 -4 -20 -10 -20 -5 0 -10 -7 -10 -15 0 -8 -4 -15
-10 -15 -5 0 -10 -9 -10 -20 0 -11 -4 -20 -10 -20 -5 0 -10 -9 -10 -20 0 -11
-4 -20 -9 -20 -5 0 -14 -13 -21 -30 -7 -16 -16 -30 -21 -30 -5 0 -9 -9 -9 -20
0 -11 -4 -20 -10 -20 -5 0 -10 -9 -10 -19 0 -11 -4 -21 -8 -23 -5 -1 -31 -43
-57 -93 -27 -49 -52 -91 -57 -93 -4 -2 -8 -12 -8 -23 0 -10 -4 -19 -10 -19 -5
0 -10 -9 -10 -20 0 -11 -4 -20 -10 -20 -5 0 -10 -7 -10 -15 0 -8 -4 -15 -10
-15 -5 0 -10 -9 -10 -20 0 -11 -4 -20 -10 -20 -5 0 -10 -9 -10 -21 0 -11 -4
-17 -10 -14 -6 4 -10 -5 -10 -20 0 -14 -4 -24 -8 -21 -5 3 -15 -10 -22 -29 -8
-19 -17 -35 -22 -35 -4 0 -8 -9 -8 -20 0 -16 -7 -20 -35 -20 -19 0 -35 5 -35
10 0 6 -11 10 -25 10 -14 0 -25 5 -25 10 0 6 -9 10 -21 10 -11 0 -27 6 -35 14
-16 16 -19 46 -5 46 5 0 11 17 14 38 6 39 20 106 37 182 6 25 15 63 20 85 5
22 18 74 28 115 11 41 29 120 41 175 13 55 26 109 31 120 9 22 18 66 27 133 3
23 9 42 14 42 5 0 9 18 9 40 0 22 5 40 10 40 6 0 10 20 10 45 0 25 5 45 10 45
6 0 10 20 10 45 0 25 5 45 10 45 6 0 10 20 10 45 0 25 5 45 10 45 6 0 10 20
10 45 0 25 4 45 9 45 8 0 14 22 27 108 3 20 9 46 14 57 5 11 11 38 14 61 5 38
4 41 -27 52 -19 7 -46 12 -62 12 -16 0 -55 5 -87 12 -70 15 -70 15 -88 -83 -7
-39 -17 -72 -22 -75 -4 -3 -8 -23 -8 -44 0 -21 -4 -41 -9 -44 -5 -3 -11 -23
-14 -43 -3 -21 -11 -60 -17 -88 -6 -27 -14 -65 -17 -82 -3 -18 -9 -33 -14 -33
-5 0 -9 -22 -9 -50 0 -27 -4 -50 -10 -50 -5 0 -10 -18 -10 -40 0 -22 -4 -40
-10 -40 -5 0 -10 -20 -10 -45 0 -25 -4 -45 -10 -45 -5 0 -10 -18 -10 -40 0
-22 -4 -40 -9 -40 -5 0 -11 -19 -14 -42 -3 -24 -10 -63 -17 -88 -6 -25 -15
-63 -20 -85 -5 -22 -23 -94 -39 -160 -17 -66 -31 -130 -31 -142 0 -13 -4 -23
-9 -23 -5 0 -12 -19 -15 -42 -13 -103 -19 -128 -27 -134 -5 -3 -9 -16 -9 -30
0 -24 -1 -24 -99 -24 l-99 0 -6 28 c-3 15 -15 594 -26 1287 -12 693 -26 1270
-31 1283 -8 21 -13 22 -129 22 l-120 0 0 -47z"/>
<path d="M6288 10027 c-21 -6 -38 -14 -38 -19 0 -4 -7 -8 -15 -8 -22 0 -78
-59 -107 -111 -37 -68 -48 -118 -48 -223 0 -86 2 -96 18 -96 10 0 50 31 89 68
39 38 85 79 103 92 18 13 60 50 93 82 34 32 63 58 66 58 4 0 30 23 60 50 l54
50 -23 20 c-49 42 -170 60 -252 37z"/>
<path d="M6549 9791 c-122 -113 -125 -116 -160 -145 -64 -53 -229 -210 -229
-218 0 -11 61 -68 72 -68 5 0 18 -9 29 -19 27 -25 102 -45 136 -37 15 4 43 10
61 13 17 3 32 9 32 14 0 5 9 9 21 9 28 0 110 87 133 141 10 24 25 58 32 76 18
40 18 150 0 205 -8 24 -17 55 -20 71 -4 15 -12 27 -20 27 -7 0 -46 -31 -87
-69z"/>
<path d="M5135 9792 c-33 -3 -75 -17 -157 -51 -16 -6 -38 -15 -50 -20 -108
-43 -128 -56 -128 -83 0 -16 5 -28 10 -28 6 0 10 -7 10 -15 0 -9 9 -35 20 -57
11 -23 20 -47 20 -53 0 -7 7 -26 16 -43 17 -36 34 -36 108 -1 22 11 46 19 53
19 7 0 13 5 13 10 0 6 7 10 16 10 20 0 152 68 178 92 11 10 22 18 26 18 3 0
11 19 18 43 11 35 11 49 0 73 -28 64 -80 94 -153 86z"/>
<path d="M7640 9580 c-25 -27 -63 -70 -85 -95 -22 -25 -64 -70 -92 -100 -56
-57 -66 -85 -33 -85 11 0 20 -4 20 -10 0 -5 11 -10 24 -10 14 0 28 -4 31 -10
3 -5 15 -10 26 -10 10 0 19 -3 19 -8 0 -4 24 -16 53 -26 28 -10 57 -20 63 -23
8 -3 13 30 18 99 15 240 18 328 10 327 -5 0 -29 -22 -54 -49z"/>
<path d="M8052 3261 c-19 -16 -22 -29 -22 -95 0 -44 4 -76 10 -76 6 0 10 -9
10 -19 0 -20 40 -104 53 -109 4 -2 7 -10 7 -17 0 -7 21 -34 46 -59 39 -39 52
-46 85 -46 21 0 39 4 39 9 0 5 8 12 18 15 31 11 61 116 32 116 -5 0 -10 16
-10 35 0 19 -4 35 -10 35 -5 0 -10 9 -10 20 0 11 -4 20 -10 20 -5 0 -10 9 -10
20 0 11 -4 20 -10 20 -5 0 -10 9 -10 20 0 11 -4 20 -10 20 -5 0 -10 6 -10 13
0 7 -19 32 -42 55 -35 36 -47 42 -83 42 -27 0 -50 -7 -63 -19z"/>
<path d="M7435 3078 c-45 -26 -49 -36 -47 -137 1 -55 6 -97 12 -99 5 -2 10
-17 10 -32 0 -16 5 -32 10 -35 6 -3 10 -17 10 -31 0 -13 5 -24 10 -24 6 0 10
-9 10 -20 0 -11 5 -20 10 -20 6 0 10 -5 10 -11 0 -21 35 -38 78 -39 32 0 49 6
67 25 23 22 25 32 25 115 0 49 -4 90 -8 90 -4 0 -8 9 -9 21 -2 26 -50 149 -66
170 -28 37 -84 49 -122 27z"/>
<path d="M6778 2956 c-25 -21 -28 -30 -28 -88 0 -82 22 -108 92 -108 72 0 93
23 93 102 0 56 -4 68 -27 91 -36 36 -91 37 -130 3z"/>
</g>
</svg>
