<?xml version="1.0" standalone="no"?>
<!DOCTYPE svg PUBLIC "-//W3C//DTD SVG 20010904//EN"
 "http://www.w3.org/TR/2001/REC-SVG-20010904/DTD/svg10.dtd">
<svg version="1.0" xmlns="http://www.w3.org/2000/svg"
 width="1093.000000pt" height="1093.000000pt" viewBox="0 0 1093.000000 1093.000000"
 preserveAspectRatio="xMidYMid meet">
<metadata>
Created by potrace 1.11, written by Peter Selinger 2001-2013
</metadata>
<g transform="translate(0.000000,1093.000000) scale(0.100000,-0.100000)"
fill="#000000" stroke="none">
<path d="M5460 10920 c0 -5 -9 -10 -20 -10 -11 0 -20 -4 -20 -10 0 -5 -9 -10
-20 -10 -11 0 -20 -4 -20 -10 0 -5 -7 -10 -15 -10 -8 0 -15 -4 -15 -10 0 -5
-9 -10 -20 -10 -11 0 -20 -4 -20 -10 0 -5 -6 -10 -13 -10 -7 0 -23 -9 -35 -20
-12 -11 -28 -20 -37 -20 -8 0 -15 -4 -15 -10 0 -5 -9 -10 -20 -10 -11 0 -20
-4 -20 -8 0 -4 -36 -26 -80 -47 -44 -21 -80 -43 -80 -47 0 -4 -11 -8 -25 -8
-14 0 -25 -4 -25 -10 0 -5 -9 -10 -20 -10 -11 0 -20 -4 -20 -10 0 -5 -9 -10
-20 -10 -11 0 -20 -4 -20 -10 0 -5 -11 -10 -25 -10 -14 0 -25 -4 -25 -10 0 -5
-11 -10 -25 -10 -14 0 -25 -4 -25 -10 0 -5 -11 -10 -25 -10 -14 0 -25 -4 -25
-10 0 -5 -11 -10 -24 -10 -14 0 -28 -4 -31 -10 -3 -5 -15 -10 -26 -10 -10 0
-19 -4 -19 -10 0 -5 -13 -10 -30 -10 -16 0 -30 -4 -30 -10 0 -5 -13 -10 -30
-10 -16 0 -30 -4 -30 -10 0 -5 -13 -10 -28 -10 -16 0 -32 -3 -36 -7 -7 -8
-115 -39 -186 -54 -25 -5 -46 -14 -48 -19 -2 -6 -26 -10 -53 -10 -27 0 -49 -4
-49 -10 0 -6 -27 -10 -60 -10 -33 0 -60 -4 -60 -10 0 -6 -32 -10 -76 -10 -47
0 -73 -4 -69 -10 4 -7 -105 -10 -319 -10 -211 0 -326 4 -326 10 0 6 -30 10
-70 10 -40 0 -70 4 -70 10 0 6 -25 10 -55 10 -30 0 -55 5 -55 10 0 6 -21 10
-46 10 -27 0 -51 6 -60 15 -9 8 -24 15 -35 15 -22 0 -145 36 -171 51 -10 5
-27 9 -37 9 -11 0 -23 5 -26 10 -3 6 -17 10 -31 10 -13 0 -24 5 -24 10 0 6
-13 10 -30 10 -16 0 -30 5 -30 10 0 6 -9 10 -20 10 -11 0 -20 5 -20 10 0 6
-11 10 -25 10 -14 0 -25 5 -25 10 0 6 -11 10 -25 10 -14 0 -25 5 -25 10 0 6
-12 10 -26 10 -14 0 -23 4 -19 10 4 6 -5 10 -19 10 -14 0 -26 5 -26 10 0 6 -9
10 -20 10 -11 0 -20 5 -20 10 0 6 -9 10 -20 10 -11 0 -20 5 -20 10 0 6 -9 10
-20 10 -11 0 -20 7 -20 15 0 8 -6 15 -12 15 -7 0 -41 18 -76 40 -34 22 -67 40
-72 40 -6 0 -10 5 -10 10 0 6 -8 10 -18 10 -10 0 -24 9 -32 20 -8 11 -21 20
-30 20 -9 0 -22 9 -30 20 -8 11 -18 20 -23 20 -11 0 -97 -92 -97 -103 0 -4
-10 -18 -23 -31 -46 -47 -77 -86 -77 -97 0 -13 -25 -39 -38 -39 -6 0 -12 -4
-14 -9 -5 -14 -51 -71 -85 -107 -18 -18 -33 -37 -33 -41 0 -5 -9 -15 -20 -23
-11 -8 -20 -20 -20 -28 0 -7 -22 -35 -50 -62 -27 -27 -50 -54 -50 -60 0 -6
-25 -34 -55 -63 -30 -28 -55 -55 -55 -59 0 -7 -29 -42 -78 -93 -12 -13 -22
-29 -22 -35 0 -6 -22 -33 -50 -60 -27 -27 -50 -56 -50 -64 0 -9 -6 -16 -12
-17 -7 0 -35 -29 -63 -65 -27 -35 -74 -90 -102 -121 -29 -30 -53 -61 -53 -67
0 -6 -9 -18 -20 -26 -21 -15 -27 -40 -10 -40 6 0 10 -7 10 -16 0 -8 18 -33 40
-54 22 -21 40 -43 40 -50 0 -6 10 -21 23 -34 12 -12 31 -35 42 -50 29 -41 82
-108 105 -133 11 -12 20 -27 20 -34 0 -6 14 -24 30 -39 17 -15 30 -35 30 -44
0 -9 4 -16 8 -16 5 0 19 -20 32 -45 13 -25 27 -45 32 -45 4 0 8 -6 8 -13 0 -7
9 -23 20 -35 11 -12 20 -26 20 -32 0 -6 10 -21 23 -34 13 -13 29 -37 36 -55 8
-17 17 -31 22 -31 5 0 9 -7 9 -15 0 -8 5 -15 10 -15 6 0 10 -9 10 -20 0 -11 5
-20 10 -20 6 0 10 -7 10 -15 0 -8 5 -15 10 -15 6 0 10 -7 10 -15 0 -8 5 -15
10 -15 6 0 10 -9 10 -20 0 -11 5 -20 10 -20 6 0 10 -9 10 -20 0 -11 5 -20 10
-20 6 0 10 -9 10 -20 0 -11 5 -20 10 -20 6 0 10 -9 10 -20 0 -11 5 -20 10 -20
6 0 10 -9 10 -20 0 -11 5 -20 10 -20 6 0 10 -6 10 -14 0 -8 13 -39 30 -69 16
-30 30 -62 30 -71 0 -9 4 -16 8 -16 4 0 14 -20 21 -46 7 -25 20 -51 27 -59 8
-7 14 -25 14 -39 0 -14 5 -26 10 -26 6 0 10 -13 10 -30 0 -16 5 -30 10 -30 6
0 10 -13 10 -30 0 -16 5 -30 10 -30 6 0 10 -13 10 -30 0 -16 5 -30 10 -30 6 0
10 -13 10 -30 0 -16 5 -30 10 -30 6 0 10 -20 10 -45 0 -25 5 -45 10 -45 6 0
10 -18 10 -40 0 -22 5 -40 10 -40 6 0 10 -27 10 -60 0 -33 4 -60 10 -60 6 0
10 -30 10 -69 0 -39 4 -73 10 -76 14 -8 14 -532 0 -540 -5 -3 -10 -42 -10 -86
0 -46 -4 -79 -10 -79 -5 0 -10 -25 -10 -55 0 -30 -4 -55 -10 -55 -5 0 -10 -22
-10 -50 0 -27 -4 -50 -10 -50 -5 0 -10 -22 -10 -50 0 -27 -4 -50 -10 -50 -5 0
-10 -18 -10 -40 0 -22 -4 -40 -10 -40 -5 0 -10 -16 -10 -35 0 -19 -4 -35 -10
-35 -5 0 -10 -18 -10 -40 0 -22 -4 -40 -10 -40 -5 0 -10 -13 -10 -30 0 -16 -4
-30 -10 -30 -5 0 -10 -18 -10 -40 0 -22 -4 -40 -10 -40 -5 0 -12 -12 -16 -27
-12 -55 -69 -218 -76 -221 -5 -2 -8 -17 -8 -32 0 -16 -5 -32 -10 -35 -5 -3
-10 -19 -10 -36 0 -16 -4 -29 -10 -29 -5 0 -10 -13 -10 -30 0 -16 -4 -30 -10
-30 -5 0 -10 -13 -10 -30 0 -16 -4 -30 -10 -30 -5 0 -10 -13 -10 -30 0 -16 -4
-30 -10 -30 -5 0 -10 -11 -10 -25 0 -14 -4 -25 -10 -25 -5 0 -10 -13 -10 -30
0 -16 -4 -30 -10 -30 -5 0 -10 -13 -10 -30 0 -16 -4 -30 -10 -30 -5 0 -10 -13
-10 -30 0 -16 -4 -30 -10 -30 -5 0 -10 -13 -10 -30 0 -16 -4 -30 -10 -30 -5 0
-10 -14 -10 -31 0 -17 -7 -37 -15 -45 -8 -9 -15 -26 -15 -38 0 -12 -3 -26 -7
-30 -4 -4 -9 -19 -11 -34 -2 -15 -6 -29 -10 -32 -4 -3 -9 -16 -10 -30 -2 -14
-8 -29 -13 -34 -5 -6 -9 -22 -9 -37 0 -15 -4 -31 -10 -34 -5 -3 -10 -19 -10
-35 0 -16 -4 -31 -9 -34 -8 -6 -11 -18 -27 -108 -3 -21 -10 -38 -15 -38 -5 0
-9 -18 -9 -39 0 -22 -5 -43 -10 -46 -5 -3 -10 -24 -10 -46 0 -21 -4 -39 -10
-39 -5 0 -10 -18 -10 -40 0 -22 -4 -40 -10 -40 -5 0 -10 -22 -10 -49 0 -28 -5
-53 -10 -56 -6 -3 -10 -28 -10 -56 0 -27 -4 -49 -10 -49 -6 0 -10 -27 -10 -60
0 -33 -4 -60 -10 -60 -6 0 -10 -28 -10 -64 0 -37 -5 -66 -11 -68 -10 -3 -18
-61 -41 -328 -17 -186 -17 -571 -1 -670 27 -162 34 -195 43 -198 6 -2 10 -21
10 -43 0 -21 5 -39 10 -39 6 0 10 -13 10 -30 0 -16 5 -30 10 -30 6 0 10 -16
10 -35 0 -19 5 -35 10 -35 6 0 10 -13 10 -30 0 -16 5 -30 10 -30 6 0 10 -11
10 -24 0 -14 5 -28 10 -31 6 -3 10 -15 10 -26 0 -10 5 -19 10 -19 6 0 10 -9
10 -20 0 -11 5 -20 10 -20 6 0 10 -8 10 -17 0 -21 79 -187 92 -191 4 -2 8 -10
8 -19 0 -8 6 -21 12 -28 32 -35 38 -45 38 -60 0 -8 5 -15 10 -15 6 0 10 -7 10
-15 0 -8 5 -15 10 -15 6 0 10 -6 10 -13 0 -7 9 -23 20 -35 11 -12 20 -26 20
-32 0 -5 5 -10 10 -10 6 0 10 -6 10 -13 0 -7 9 -19 20 -27 11 -8 20 -21 20
-28 0 -7 18 -31 40 -52 22 -21 40 -43 40 -48 0 -13 262 -277 325 -327 28 -22
57 -48 66 -57 9 -10 22 -18 29 -18 6 0 25 -13 40 -30 15 -16 33 -30 39 -30 7
0 21 -9 33 -20 12 -11 28 -20 35 -20 7 0 13 -4 13 -10 0 -5 7 -10 15 -10 8 0
15 -4 15 -10 0 -5 9 -10 20 -10 11 0 20 -4 20 -10 0 -5 9 -10 20 -10 11 0 20
-7 20 -15 0 -8 9 -15 20 -15 11 0 20 -4 20 -10 0 -5 6 -10 14 -10 17 0 100
-42 104 -52 2 -5 15 -8 28 -8 13 0 24 -4 24 -10 0 -5 9 -10 20 -10 11 0 20 -4
20 -10 0 -5 14 -10 30 -10 17 0 30 -4 30 -10 0 -5 14 -10 30 -10 17 0 30 -4
30 -10 0 -5 9 -10 19 -10 11 0 23 -5 26 -10 3 -6 22 -10 41 -10 19 0 34 -4 34
-10 0 -5 20 -10 45 -10 25 0 45 -4 45 -10 0 -5 18 -10 40 -10 22 0 40 -4 40
-10 0 -5 25 -10 55 -10 30 0 55 -4 55 -10 0 -6 30 -10 69 -10 40 0 71 -5 73
-11 6 -18 303 -43 703 -59 300 -13 387 -20 400 -31 5 -5 33 -9 62 -9 29 0 53
-4 53 -10 0 -5 18 -10 39 -10 22 0 43 -4 46 -10 3 -5 19 -10 35 -10 16 0 32
-5 35 -10 3 -6 17 -10 31 -10 13 0 24 -4 24 -10 0 -5 14 -10 30 -10 17 0 30
-4 30 -10 0 -5 9 -10 20 -10 11 0 20 -4 20 -10 0 -5 9 -10 20 -10 11 0 20 -4
20 -10 0 -5 11 -10 25 -10 14 0 25 -4 25 -10 0 -5 9 -10 20 -10 11 0 20 -4 20
-10 0 -5 9 -10 20 -10 11 0 20 -4 20 -10 0 -5 7 -10 15 -10 9 0 21 -5 28 -10
47 -39 62 -50 78 -55 11 -4 19 -11 19 -16 0 -5 7 -9 15 -9 9 0 25 -9 37 -20
12 -11 28 -20 35 -20 7 0 13 -4 13 -10 0 -5 7 -10 15 -10 8 0 15 -4 15 -10 0
-5 4 -10 10 -10 9 0 35 -19 65 -48 8 -6 19 -12 25 -12 7 0 25 -13 40 -30 15
-16 35 -30 44 -30 9 0 16 -6 16 -12 0 -7 17 -25 38 -40 50 -36 90 -69 118 -96
13 -12 28 -22 34 -22 6 0 33 -22 60 -50 27 -27 56 -50 64 -50 9 0 63 46 120
103 103 101 175 167 184 167 2 0 17 14 32 30 15 17 33 30 40 30 7 0 25 14 40
30 15 17 34 30 42 30 7 0 20 9 28 20 8 11 20 20 28 20 7 0 22 9 34 20 12 11
30 20 40 20 10 0 18 4 18 9 0 4 22 19 50 32 27 13 50 29 50 36 0 7 9 13 20 13
11 0 20 5 20 10 0 6 9 10 20 10 11 0 20 5 20 10 0 6 14 10 30 10 17 0 30 5 30
10 0 6 11 10 25 10 14 0 25 5 25 10 0 6 9 10 20 10 11 0 20 5 20 10 0 6 14 10
30 10 17 0 30 5 30 10 0 6 14 10 30 10 17 0 30 5 30 10 0 6 13 10 29 10 17 0
33 5 36 10 3 6 21 10 40 10 19 0 37 5 40 10 3 6 24 10 46 10 21 0 39 5 39 10
0 6 23 10 50 10 28 0 50 4 50 9 0 4 28 12 63 16 34 4 94 11 132 16 90 11 244
25 415 39 74 6 137 15 138 20 2 6 45 10 98 10 56 0 94 4 94 10 0 6 30 10 70
10 40 0 70 4 70 10 0 6 27 10 60 10 33 0 60 4 60 10 0 6 20 10 45 10 25 0 45
5 45 10 0 6 18 10 40 10 22 0 40 5 40 10 0 6 18 10 40 10 22 0 40 5 40 10 0 6
14 10 30 10 17 0 30 5 30 10 0 6 14 10 30 10 17 0 30 5 30 10 0 6 11 10 24 10
14 0 28 4 31 10 3 5 17 10 31 10 13 0 24 3 24 8 0 4 15 13 33 20 78 32 147 66
147 74 0 4 9 8 20 8 11 0 20 5 20 10 0 6 7 10 15 10 8 0 15 5 15 10 0 6 9 10
20 10 11 0 20 5 20 10 0 6 6 10 13 10 7 0 23 9 35 20 12 11 27 20 34 20 8 0
20 9 28 20 8 11 22 20 31 20 10 0 19 3 21 8 2 4 30 27 63 52 82 60 79 58 140
117 30 29 59 53 65 53 13 0 170 156 170 169 0 6 5 11 10 11 6 0 10 5 10 11 0
6 18 28 40 49 22 21 40 43 40 49 0 6 15 27 33 46 61 66 75 83 88 114 8 17 17
31 21 31 5 0 8 8 8 18 0 10 9 24 20 32 11 8 20 22 20 32 0 10 5 18 10 18 6 0
10 9 10 20 0 11 5 20 10 20 6 0 10 9 10 20 0 11 5 20 10 20 6 0 10 9 10 20 0
11 5 20 10 20 6 0 10 9 10 20 0 11 5 20 10 20 6 0 10 9 10 19 0 11 5 23 10 26
6 3 10 15 10 26 0 10 4 19 10 19 5 0 14 15 19 33 6 17 26 77 45 132 20 55 36
110 36 123 0 12 5 22 10 22 6 0 10 18 10 39 0 22 5 43 10 46 5 3 10 28 10 56
0 27 5 49 10 49 6 0 10 133 10 380 0 227 -4 380 -9 380 -5 0 -12 39 -15 88
-10 157 -18 222 -27 222 -5 0 -9 25 -9 55 0 30 -4 63 -9 73 -6 9 -22 78 -37
152 -14 74 -30 153 -34 175 -5 22 -13 41 -19 43 -6 2 -11 21 -11 43 0 21 -4
39 -10 39 -5 0 -10 18 -10 40 0 22 -4 40 -10 40 -5 0 -10 16 -10 35 0 19 -4
35 -10 35 -5 0 -10 18 -10 40 0 22 -4 40 -10 40 -5 0 -10 16 -10 35 0 19 -4
35 -10 35 -5 0 -10 16 -10 35 0 19 -4 35 -10 35 -5 0 -10 16 -10 35 0 19 -4
35 -10 35 -5 0 -10 14 -10 30 0 17 -4 30 -10 30 -5 0 -10 13 -10 29 0 17 -4
33 -10 36 -5 3 -10 19 -10 35 0 16 -4 32 -10 35 -5 3 -10 19 -10 34 0 15 -4
31 -8 37 -5 5 -21 48 -37 97 -15 48 -31 87 -36 87 -5 0 -9 16 -9 35 0 19 -4
35 -10 35 -5 0 -10 14 -10 30 0 17 -4 30 -10 30 -5 0 -10 14 -10 30 0 17 -4
30 -10 30 -5 0 -10 18 -10 40 0 22 -4 40 -10 40 -5 0 -10 14 -10 30 0 17 -4
30 -10 30 -5 0 -10 13 -10 29 0 17 -4 33 -10 36 -5 3 -10 19 -10 36 0 16 -4
29 -10 29 -5 0 -10 14 -10 30 0 17 -4 30 -10 30 -5 0 -10 15 -10 34 0 19 -4
38 -10 41 -5 3 -10 19 -10 36 0 16 -4 29 -10 29 -5 0 -10 16 -10 35 0 19 -4
35 -9 35 -5 0 -11 15 -14 33 -3 17 -15 68 -27 112 -12 44 -25 98 -30 120 -4
22 -13 41 -19 43 -6 2 -11 26 -11 53 0 27 -4 49 -10 49 -5 0 -10 20 -10 45 0
25 -4 45 -10 45 -5 0 -10 23 -10 50 0 28 -4 50 -10 50 -6 0 -10 27 -10 60 0
33 -4 60 -10 60 -6 0 -10 26 -10 59 0 33 -4 63 -10 66 -5 3 -10 46 -10 96 0
53 -4 89 -10 89 -6 0 -10 100 -10 280 0 180 4 280 10 280 6 0 10 35 10 85 0
50 4 85 10 85 6 0 10 23 10 50 0 28 5 50 10 50 6 0 10 23 10 50 0 28 5 50 10
50 6 0 10 18 10 40 0 22 5 40 10 40 6 0 10 16 10 35 0 19 5 35 10 35 6 0 10
14 10 30 0 17 4 30 9 30 4 0 21 37 36 82 15 46 35 100 46 122 10 22 19 46 19
53 0 7 5 13 10 13 6 0 10 9 10 20 0 11 5 20 10 20 6 0 10 9 10 20 0 11 5 20
10 20 6 0 10 9 10 20 0 11 5 20 10 20 6 0 10 9 10 20 0 11 5 20 10 20 6 0 10
9 10 20 0 11 5 20 10 20 6 0 10 7 10 15 0 8 5 15 10 15 6 0 10 9 10 20 0 11 5
20 10 20 6 0 10 8 10 18 0 10 9 24 20 32 11 8 20 22 20 31 0 9 7 19 15 23 8 3
23 21 32 41 9 19 20 35 24 35 5 0 16 16 25 35 9 19 20 35 25 35 5 0 9 7 9 16
0 8 18 33 40 54 22 21 40 43 40 49 0 6 25 37 55 67 30 31 55 59 55 63 0 4 50
58 110 120 117 119 133 150 90 181 -11 8 -20 21 -20 30 0 9 -9 22 -20 30 -11
8 -20 20 -20 27 0 7 -13 27 -30 45 -16 17 -30 35 -30 40 0 5 -13 23 -30 41
-16 17 -35 44 -41 59 -6 16 -18 28 -25 28 -8 0 -14 7 -14 16 0 9 -13 29 -30
44 -16 15 -30 33 -30 39 0 10 -18 36 -47 66 -7 8 -13 18 -13 24 0 6 -4 11 -10
11 -5 0 -10 7 -10 15 0 8 -4 15 -10 15 -5 0 -10 6 -10 13 0 6 -16 29 -35 51
-19 21 -35 42 -35 46 0 12 -37 50 -49 50 -6 0 -11 9 -11 20 0 11 -4 20 -10 20
-5 0 -10 7 -10 15 0 8 -4 15 -10 15 -5 0 -10 7 -10 15 0 8 -4 15 -10 15 -5 0
-10 6 -10 13 0 7 -9 19 -20 27 -11 8 -20 20 -20 26 0 6 -13 25 -30 42 -16 18
-30 38 -30 45 0 7 -9 19 -20 27 -11 8 -20 22 -20 32 0 10 -7 18 -15 18 -8 0
-15 5 -15 11 0 13 -47 77 -77 105 -13 12 -23 28 -23 35 0 8 -9 21 -20 29 -11
8 -20 20 -20 28 0 7 -6 20 -14 28 -17 16 -46 19 -46 4 0 -5 -7 -10 -15 -10 -8
0 -15 -4 -15 -10 0 -5 -9 -10 -20 -10 -11 0 -20 -4 -20 -10 0 -5 -9 -10 -20
-10 -11 0 -20 -4 -20 -10 0 -5 -6 -10 -13 -10 -7 0 -23 -9 -35 -20 -12 -11
-28 -20 -37 -20 -8 0 -15 -4 -15 -10 0 -5 -9 -10 -20 -10 -11 0 -20 -4 -20
-10 0 -5 -9 -10 -19 -10 -11 0 -21 -3 -23 -7 -1 -5 -31 -21 -65 -37 -35 -16
-63 -33 -63 -38 0 -4 -9 -8 -20 -8 -11 0 -20 -4 -20 -10 0 -5 -13 -10 -30 -10
-16 0 -30 -4 -30 -10 0 -5 -9 -10 -20 -10 -11 0 -20 -4 -20 -10 0 -5 -9 -10
-19 -10 -11 0 -23 -4 -26 -10 -3 -5 -17 -10 -31 -10 -13 0 -24 -4 -24 -10 0
-5 -11 -10 -25 -10 -14 0 -25 -4 -25 -10 0 -5 -13 -10 -30 -10 -16 0 -30 -4
-30 -8 0 -4 -21 -13 -47 -20 -27 -8 -56 -18 -65 -23 -10 -5 -27 -9 -37 -9 -11
0 -23 -4 -26 -10 -3 -5 -19 -10 -34 -10 -15 0 -31 -4 -37 -8 -5 -5 -63 -22
-129 -37 -66 -16 -121 -32 -123 -37 -2 -4 -26 -8 -53 -8 -27 0 -49 -4 -49 -10
0 -6 -30 -10 -70 -10 -40 0 -70 -4 -70 -10 0 -6 -42 -10 -105 -10 -63 0 -105
-4 -105 -10 0 -6 -65 -10 -175 -10 -110 0 -175 4 -175 10 0 6 -42 10 -105 10
-63 0 -105 4 -105 10 0 6 -30 10 -70 10 -40 0 -70 4 -70 10 0 6 -22 10 -50 10
-27 0 -50 4 -50 10 0 5 -17 12 -37 15 -21 4 -51 11 -68 15 -16 5 -50 14 -75
21 -25 7 -49 16 -55 21 -5 4 -18 8 -30 8 -22 1 -151 43 -162 53 -3 4 -17 7
-30 7 -13 0 -23 5 -23 10 0 6 -9 10 -19 10 -11 0 -23 5 -26 10 -3 6 -17 10
-31 10 -13 0 -24 5 -24 10 0 6 -11 10 -25 10 -14 0 -25 5 -25 10 0 6 -9 10
-20 10 -11 0 -20 5 -20 10 0 6 -9 10 -20 10 -11 0 -20 5 -20 10 0 6 -9 10 -20
10 -11 0 -20 5 -20 10 0 6 -9 10 -20 10 -11 0 -20 3 -20 8 0 4 -29 20 -65 37
-36 16 -65 33 -65 37 0 4 -9 8 -20 8 -11 0 -20 4 -20 9 0 5 -13 14 -30 21 -16
7 -30 16 -30 21 0 5 -7 9 -15 9 -9 0 -25 9 -37 20 -12 11 -28 20 -35 20 -7 0
-13 5 -13 10 0 6 -7 10 -15 10 -8 0 -15 5 -15 10 0 6 -7 10 -15 10 -8 0 -15 5
-15 10 0 6 -11 10 -25 10 -14 0 -25 5 -25 10 0 6 -4 10 -10 10 -5 0 -10 -4
-10 -10z"/>
</g>
</svg>
